M48
; DRILL file {KiCad (6.0.9)} date Sun Jun 11 12:51:56 2023
; FORMAT={-:-/ absolute / metric / decimal}
; #@! TF.CreationDate,2023-06-11T12:51:56-04:00
; #@! TF.GenerationSoftware,Kicad,Pcbnew,(6.0.9)
; #@! TF.FileFunction,Plated,1,4,PTH
FMAT,2
METRIC
; #@! TA.AperFunction,Plated,PTH,ViaDrill
T1C0.400
; #@! TA.AperFunction,Plated,PTH,ComponentDrill
T2C0.800
; #@! TA.AperFunction,Plated,PTH,ComponentDrill
T3C1.000
; #@! TA.AperFunction,Plated,PTH,ComponentDrill
T4C1.016
; #@! TA.AperFunction,Plated,PTH,ComponentDrill
T5C1.100
; #@! TA.AperFunction,Plated,PTH,ComponentDrill
T6C1.397
; #@! TA.AperFunction,Plated,PTH,ComponentDrill
T7C1.500
; #@! TA.AperFunction,Plated,PTH,ComponentDrill
T8C1.651
; #@! TA.AperFunction,Plated,PTH,ComponentDrill
T9C2.000
; #@! TA.AperFunction,Plated,PTH,ComponentDrill
T10C3.200
; #@! TA.AperFunction,Plated,PTH,ComponentDrill
T11C3.429
%
G90
G05
T1
X104.394Y-75.946
X104.394Y-77.724
X105.156Y-69.342
X105.156Y-70.358
X105.156Y-74.422
X105.918Y-125.984
X105.918Y-131.064
X106.172Y-69.342
X106.172Y-70.358
X106.172Y-74.422
X106.68Y-110.998
X106.934Y-125.984
X106.934Y-131.064
X107.188Y-69.342
X107.188Y-70.358
X107.442Y-72.898
X107.696Y-124.206
X107.95Y-131.064
X108.458Y-66.548
X108.458Y-72.898
X108.712Y-124.206
X108.966Y-65.786
X108.966Y-126.746
X109.474Y-66.548
X109.474Y-72.898
X109.728Y-124.206
X109.982Y-65.786
X109.982Y-126.746
X110.49Y-66.548
X110.998Y-122.428
X110.998Y-126.746
X112.014Y-122.428
X112.014Y-126.746
X112.268Y-128.524
X112.268Y-130.048
X112.268Y-131.572
X112.776Y-129.286
X112.776Y-130.81
X113.03Y-122.428
X113.03Y-123.444
X113.03Y-124.46
X113.284Y-128.524
X113.284Y-130.048
X113.284Y-131.572
X113.538Y-68.326
X113.538Y-101.346
X113.538Y-102.362
X114.046Y-127.508
X114.3Y-93.472
X114.3Y-103.124
X114.554Y-66.635
X114.554Y-98.044
X114.808Y-77.978
X114.808Y-104.902
X115.316Y-93.472
X115.316Y-103.124
X115.57Y-98.044
X116.332Y-91.44
X116.332Y-103.124
X116.419Y-127.524
X116.586Y-98.044
X117.09Y-107.637
X117.094Y-68.326
X117.227Y-109.004
X117.348Y-91.44
X117.348Y-103.124
X117.602Y-93.98
X117.685Y-76.319
X117.856Y-99.822
X118.11Y-66.635
X118.11Y-94.742
X118.364Y-74.422
X118.364Y-78.994
X118.364Y-91.44
X118.364Y-127.508
X118.618Y-93.98
X118.872Y-114.046
X118.872Y-116.586
X118.872Y-119.126
X118.872Y-121.666
X119.126Y-94.742
X119.634Y-93.98
X119.634Y-99.822
X119.842Y-106.75
X119.888Y-89.916
X120.142Y-94.742
X120.396Y-105.918
X120.65Y-93.98
X120.65Y-107.442
X120.904Y-89.916
X120.904Y-96.52
X120.904Y-97.536
X120.904Y-98.552
X120.904Y-99.568
X120.904Y-100.584
X120.991Y-127.508
X121.412Y-90.932
X121.92Y-89.916
X122.428Y-90.932
X122.428Y-102.616
X122.682Y-96.52
X122.682Y-97.536
X122.682Y-98.552
X122.682Y-112.776
X122.936Y-76.454
X122.936Y-87.376
X122.936Y-89.916
X122.936Y-111.76
X122.936Y-127.508
X123.19Y-88.646
X123.19Y-110.49
X123.952Y-123.952
X124.972Y-101.096
X125.222Y-76.492
X125.476Y-78.994
X125.476Y-87.122
X125.563Y-127.524
X125.73Y-77.978
X125.984Y-100.076
X125.984Y-134.54
X126.238Y-107.95
X126.492Y-78.994
X126.593Y-119.126
X126.746Y-102.616
X127.216Y-77.978
X127.254Y-98.044
X127.254Y-115.316
X127.254Y-123.444
X127.508Y-111.234
X127.508Y-127.508
X127.639Y-88.515
X127.762Y-87.376
X127.97Y-104.578
X128.27Y-78.994
X128.524Y-105.41
X128.524Y-110.49
X128.524Y-115.316
X128.824Y-99.314
X129.032Y-76.962
X129.032Y-87.376
X129.032Y-98.298
X129.286Y-78.994
X129.286Y-88.646
X129.286Y-107.188
X129.794Y-102.362
X130.136Y-127.524
X130.302Y-109.728
X130.556Y-96.266
X130.81Y-123.444
X131.064Y-108.458
X131.53Y-99.734
X131.572Y-87.376
X131.968Y-115.945
X132.08Y-127.508
X132.118Y-110.434
X132.338Y-117.09
X132.588Y-78.994
X132.842Y-107.188
X132.843Y-109.728
X133.68Y-110.273
X133.835Y-99.736
X133.858Y-78.74
X133.858Y-87.376
X134.366Y-96.266
X134.707Y-127.508
X134.907Y-103.082
X135.128Y-76.962
X135.128Y-78.486
X135.128Y-87.376
X135.377Y-107.709
X135.382Y-88.646
X135.573Y-99.568
X135.89Y-111.76
X136.144Y-114.3
X136.652Y-127.508
X137.414Y-101.854
X137.414Y-113.792
X137.668Y-91.186
X137.668Y-87.376
X137.75Y-107.168
X138.176Y-96.266
X138.68Y-90.428
X139.152Y-108.171
X139.192Y-110.735
X139.192Y-111.76
X139.196Y-99.674
X139.279Y-127.508
X139.446Y-103.378
X139.954Y-78.74
X139.954Y-87.376
X140.013Y-107.383
X140.208Y-117.602
X140.558Y-101.379
X140.72Y-90.42
X140.754Y-108.335
X141.224Y-127.508
X141.934Y-106.969
X143.256Y-90.424
X143.46Y-102.362
X143.46Y-105.918
X143.851Y-127.508
X144.184Y-94.488
X146.304Y-96.52
X146.812Y-65.532
X147.32Y-107.188
X147.32Y-109.982
X147.574Y-91.186
X147.828Y-68.834
X147.828Y-70.866
X147.828Y-88.138
X147.828Y-101.854
X147.828Y-103.886
X147.828Y-114.808
X147.828Y-134.874
X147.828Y-136.906
X148.082Y-65.786
X148.082Y-84.328
X148.464Y-80.136
X149.098Y-99.06
X149.098Y-105.156
X149.606Y-98.044
X150.114Y-87.122
X150.876Y-100.076
X150.876Y-119.888
X151.638Y-118.872
X151.892Y-70.612
X151.892Y-103.632
X151.892Y-136.652
X152.4Y-100.838
X152.654Y-68.072
X153.416Y-67.056
X153.416Y-100.076
X154.432Y-99.06
X154.432Y-132.08
X154.686Y-66.294
X154.686Y-88.392
X159.004Y-100.076
X159.004Y-133.096
X159.258Y-67.31
X160.256Y-69.088
X160.256Y-102.108
X160.256Y-135.128
X161.544Y-61.214
X161.732Y-78.828
X161.732Y-111.848
X161.732Y-144.868
X162.052Y-94.234
X162.052Y-127.508
X163.068Y-70.358
X163.068Y-103.632
X163.068Y-136.398
X165.354Y-74.676
X165.354Y-107.696
X165.354Y-140.716
X166.37Y-127.0
X166.43Y-71.822
X166.43Y-104.842
X166.557Y-137.989
X166.624Y-60.96
X166.624Y-93.98
X167.386Y-127.0
X167.64Y-60.96
X167.64Y-93.98
X168.056Y-70.196
X168.056Y-103.216
X168.183Y-136.363
X179.07Y-75.184
X179.07Y-111.506
X179.07Y-147.32
X181.102Y-75.184
X181.102Y-111.506
X181.102Y-147.32
T2
X115.57Y-132.842
X115.57Y-145.542
X116.088Y-114.056
X116.088Y-116.596
X116.088Y-119.136
X116.088Y-121.676
X120.142Y-132.842
X120.142Y-145.542
X123.708Y-114.056
X123.708Y-116.596
X123.708Y-119.136
X123.708Y-121.676
X124.714Y-132.842
X124.714Y-145.542
X129.286Y-132.842
X129.286Y-145.542
X133.858Y-132.842
X133.858Y-145.542
X138.43Y-132.842
X138.43Y-145.542
X143.002Y-132.842
X143.002Y-145.542
T3
X110.008Y-76.895
X110.008Y-79.435
X110.008Y-87.055
X110.008Y-92.135
X119.644Y-72.898
X122.184Y-72.898
X124.714Y-91.694
X124.714Y-94.234
X124.714Y-96.774
X124.724Y-72.898
X127.254Y-91.694
X127.254Y-94.234
X127.254Y-96.774
X127.264Y-72.898
X131.328Y-72.898
X131.572Y-92.451
X131.572Y-94.991
X133.868Y-72.898
X135.382Y-92.451
X135.382Y-94.991
X136.408Y-72.898
X138.948Y-72.898
X139.192Y-92.451
X139.192Y-94.991
T4
X108.585Y-64.325
X109.855Y-63.055
X111.125Y-64.325
X112.395Y-63.055
X113.665Y-64.325
X114.935Y-63.055
X116.205Y-64.325
X117.475Y-63.055
X127.127Y-64.325
X128.397Y-63.055
X129.667Y-64.325
X130.937Y-63.055
X132.207Y-64.325
X133.477Y-63.055
X134.747Y-64.325
X136.017Y-63.055
T5
X115.57Y-148.844
X120.17Y-148.844
X124.77Y-148.844
X129.258Y-148.844
X133.858Y-148.844
X138.458Y-148.844
X185.392Y-135.382
X189.992Y-135.382
X194.592Y-135.382
T6
X189.485Y-78.467
X189.485Y-87.967
X189.485Y-97.467
X189.485Y-106.967
X189.485Y-116.467
X189.485Y-125.967
T7
X171.91Y-54.864
X171.91Y-57.404
X171.91Y-59.944
X171.91Y-65.024
X171.91Y-71.374
X171.91Y-73.914
X171.91Y-76.454
X171.91Y-81.534
X171.91Y-87.884
X171.91Y-90.424
X171.91Y-92.964
X171.91Y-98.044
X171.91Y-104.394
X171.91Y-106.934
X171.91Y-109.474
X171.91Y-114.554
X171.91Y-120.904
X171.91Y-123.444
X171.91Y-125.984
X171.91Y-131.064
X171.91Y-137.414
X171.91Y-139.954
X171.91Y-142.494
X171.91Y-147.574
T8
X105.156Y-53.657
X120.904Y-53.657
X123.698Y-53.657
X139.446Y-53.657
T9
X179.33Y-104.14
X179.33Y-141.64
X179.338Y-61.052
X179.338Y-98.552
X199.63Y-104.14
X199.63Y-141.64
X199.638Y-61.052
X199.638Y-98.552
T10
X108.458Y-99.822
X108.458Y-146.05
X194.31Y-55.118
X194.31Y-147.574
T11
X107.315Y-56.706
X118.745Y-56.706
X125.857Y-56.706
X137.287Y-56.706
T0
M30
