%TF.GenerationSoftware,KiCad,Pcbnew,(6.0.9)*%
%TF.CreationDate,2023-06-11T12:51:52-04:00*%
%TF.ProjectId,HV servo drive v1,48562073-6572-4766-9f20-647269766520,rev?*%
%TF.SameCoordinates,Original*%
%TF.FileFunction,Legend,Bot*%
%TF.FilePolarity,Positive*%
%FSLAX46Y46*%
G04 Gerber Fmt 4.6, Leading zero omitted, Abs format (unit mm)*
G04 Created by KiCad (PCBNEW (6.0.9)) date 2023-06-11 12:51:52*
%MOMM*%
%LPD*%
G01*
G04 APERTURE LIST*
%ADD10C,0.200000*%
%ADD11C,0.120000*%
%ADD12C,0.508000*%
%ADD13C,0.152400*%
G04 APERTURE END LIST*
D10*
%TO.C,C9*%
X204738000Y-101256000D02*
X174738000Y-101256000D01*
X174738000Y-101256000D02*
X174738000Y-58256000D01*
X174738000Y-58256000D02*
X204738000Y-58256000D01*
X204738000Y-58256000D02*
X204738000Y-101256000D01*
%TO.C,C8*%
X174230000Y-101436000D02*
X204230000Y-101436000D01*
X204230000Y-101436000D02*
X204230000Y-144436000D01*
X204230000Y-144436000D02*
X174230000Y-144436000D01*
X174230000Y-144436000D02*
X174230000Y-101436000D01*
D11*
%TO.C,C42*%
X118356748Y-95531000D02*
X118879252Y-95531000D01*
X118356748Y-97001000D02*
X118879252Y-97001000D01*
%TO.C,R9*%
X120887258Y-118603500D02*
X120412742Y-118603500D01*
X120887258Y-119648500D02*
X120412742Y-119648500D01*
%TO.C,R32*%
X129269258Y-121934500D02*
X128794742Y-121934500D01*
X129269258Y-120889500D02*
X128794742Y-120889500D01*
%TO.C,C22*%
X131204580Y-107698000D02*
X130923420Y-107698000D01*
X131204580Y-106678000D02*
X130923420Y-106678000D01*
%TO.C,C38*%
X105408000Y-124032169D02*
X105408000Y-124313329D01*
X106428000Y-124032169D02*
X106428000Y-124313329D01*
%TO.C,R8*%
X120887258Y-117108500D02*
X120412742Y-117108500D01*
X120887258Y-116063500D02*
X120412742Y-116063500D01*
%TO.C,R37*%
X131809258Y-97804500D02*
X131334742Y-97804500D01*
X131809258Y-96759500D02*
X131334742Y-96759500D01*
%TO.C,C37*%
X114044000Y-91299420D02*
X114044000Y-91580580D01*
X115064000Y-91299420D02*
X115064000Y-91580580D01*
%TO.C,R31*%
X128509500Y-129523258D02*
X128509500Y-129048742D01*
X129554500Y-129523258D02*
X129554500Y-129048742D01*
%TO.C,L2*%
X116426000Y-95496748D02*
X116426000Y-96019252D01*
X114206000Y-95496748D02*
X114206000Y-96019252D01*
%TO.C,C46*%
X118356748Y-100865000D02*
X118879252Y-100865000D01*
X118356748Y-102335000D02*
X118879252Y-102335000D01*
%TO.C,R7*%
X120887258Y-114568500D02*
X120412742Y-114568500D01*
X120887258Y-113523500D02*
X120412742Y-113523500D01*
%TO.C,C40*%
X119632000Y-92088580D02*
X119632000Y-91807420D01*
X120652000Y-92088580D02*
X120652000Y-91807420D01*
%TO.C,C45*%
X109720748Y-129733749D02*
X110243252Y-129733749D01*
X109720748Y-128263749D02*
X110243252Y-128263749D01*
D12*
%TO.C,J1*%
X127508000Y-66230500D02*
G75*
G03*
X127508000Y-66230500I-381000J0D01*
G01*
D11*
%TO.C,R24*%
X135619258Y-97804500D02*
X135144742Y-97804500D01*
X135619258Y-96759500D02*
X135144742Y-96759500D01*
D12*
%TO.C,J4*%
X189865901Y-71952150D02*
G75*
G03*
X189865901Y-71952150I-381000J0D01*
G01*
D13*
%TO.C,U8*%
X115722400Y-92417900D02*
X115722400Y-90462100D01*
X118973600Y-90462100D02*
X118973600Y-92417900D01*
D11*
%TO.C,R35*%
X110981258Y-120381500D02*
X110506742Y-120381500D01*
X110981258Y-121426500D02*
X110506742Y-121426500D01*
D13*
%TO.C,U9*%
X110337600Y-123194849D02*
X110337600Y-125150649D01*
X107086400Y-125150649D02*
X107086400Y-123194849D01*
D11*
%TO.C,L3*%
X107790000Y-128229497D02*
X107790000Y-128752001D01*
X105570000Y-128229497D02*
X105570000Y-128752001D01*
%TO.C,R34*%
X116569258Y-88660500D02*
X116094742Y-88660500D01*
X116569258Y-87615500D02*
X116094742Y-87615500D01*
%TO.C,R14*%
X117872742Y-108189500D02*
X118347258Y-108189500D01*
X117872742Y-109234500D02*
X118347258Y-109234500D01*
%TO.C,C27*%
X135522580Y-99316000D02*
X135241420Y-99316000D01*
X135522580Y-98296000D02*
X135241420Y-98296000D01*
%TO.C,C26*%
X126378580Y-125224000D02*
X126097420Y-125224000D01*
X126378580Y-124204000D02*
X126097420Y-124204000D01*
%TO.C,D11*%
X127472000Y-124460000D02*
X127472000Y-125110000D01*
X130592000Y-124460000D02*
X130592000Y-123810000D01*
X130592000Y-124460000D02*
X130592000Y-125110000D01*
X127472000Y-124460000D02*
X127472000Y-122785000D01*
%TO.C,C44*%
X118356748Y-99033000D02*
X118879252Y-99033000D01*
X118356748Y-97563000D02*
X118879252Y-97563000D01*
%TO.C,C39*%
X139332580Y-98296000D02*
X139051420Y-98296000D01*
X139332580Y-99316000D02*
X139051420Y-99316000D01*
%TO.C,C41*%
X112016000Y-124821329D02*
X112016000Y-124540169D01*
X110996000Y-124821329D02*
X110996000Y-124540169D01*
%TO.C,R13*%
X117872742Y-106157500D02*
X118347258Y-106157500D01*
X117872742Y-107202500D02*
X118347258Y-107202500D01*
%TO.C,R36*%
X107933258Y-121426500D02*
X107458742Y-121426500D01*
X107933258Y-120381500D02*
X107458742Y-120381500D01*
%TO.C,R33*%
X119617258Y-87615500D02*
X119142742Y-87615500D01*
X119617258Y-88660500D02*
X119142742Y-88660500D01*
%TO.C,L4*%
X114206000Y-100322748D02*
X114206000Y-100845252D01*
X116426000Y-100322748D02*
X116426000Y-100845252D01*
%TO.C,R16*%
X127522500Y-133587258D02*
X127522500Y-133112742D01*
X126477500Y-133587258D02*
X126477500Y-133112742D01*
%TO.C,C31*%
X129172580Y-120398000D02*
X128891420Y-120398000D01*
X129172580Y-119378000D02*
X128891420Y-119378000D01*
%TO.C,R15*%
X120887258Y-121143500D02*
X120412742Y-121143500D01*
X120887258Y-122188500D02*
X120412742Y-122188500D01*
%TO.C,C43*%
X109720748Y-131765749D02*
X110243252Y-131765749D01*
X109720748Y-130295749D02*
X110243252Y-130295749D01*
%TO.C,R46*%
X139429258Y-97804500D02*
X138954742Y-97804500D01*
X139429258Y-96759500D02*
X138954742Y-96759500D01*
%TO.C,D7*%
X124932000Y-129794000D02*
X124932000Y-130444000D01*
X124932000Y-129794000D02*
X124932000Y-128119000D01*
X128052000Y-129794000D02*
X128052000Y-129144000D01*
X128052000Y-129794000D02*
X128052000Y-130444000D01*
D12*
%TO.C,J2*%
X108966000Y-66230500D02*
G75*
G03*
X108966000Y-66230500I-381000J0D01*
G01*
D11*
%TO.C,C32*%
X131712580Y-99316000D02*
X131431420Y-99316000D01*
X131712580Y-98296000D02*
X131431420Y-98296000D01*
%TO.C,R17*%
X126475258Y-125715500D02*
X126000742Y-125715500D01*
X126475258Y-126760500D02*
X126000742Y-126760500D01*
%TO.C,Q1*%
X166950000Y-101404000D02*
X145760000Y-101404000D01*
X169510000Y-114554000D02*
X166950000Y-114554000D01*
X169510000Y-104394000D02*
X166950000Y-104394000D01*
X145760000Y-117544000D02*
X145760000Y-101404000D01*
X166950000Y-117544000D02*
X145760000Y-117544000D01*
X169510000Y-109474000D02*
X166950000Y-109474000D01*
X169510000Y-106934000D02*
X166950000Y-106934000D01*
X166950000Y-117544000D02*
X166950000Y-101404000D01*
D13*
%TO.C,R63*%
X179847450Y-72453500D02*
X180324550Y-72453500D01*
X180324550Y-77914500D02*
X179847450Y-77914500D01*
D11*
%TO.C,C11*%
X111508000Y-72784580D02*
X111508000Y-72503420D01*
X110488000Y-72784580D02*
X110488000Y-72503420D01*
%TO.C,Q5*%
X166950000Y-150564000D02*
X166950000Y-134424000D01*
X145760000Y-150564000D02*
X145760000Y-134424000D01*
X169510000Y-142494000D02*
X166950000Y-142494000D01*
X169510000Y-139954000D02*
X166950000Y-139954000D01*
X166950000Y-150564000D02*
X145760000Y-150564000D01*
X166950000Y-134424000D02*
X145760000Y-134424000D01*
X169510000Y-147574000D02*
X166950000Y-147574000D01*
X169510000Y-137414000D02*
X166950000Y-137414000D01*
%TO.C,Q2*%
X169510000Y-98044000D02*
X166950000Y-98044000D01*
X145760000Y-101034000D02*
X145760000Y-84894000D01*
X166950000Y-101034000D02*
X166950000Y-84894000D01*
X169510000Y-92964000D02*
X166950000Y-92964000D01*
X169510000Y-90424000D02*
X166950000Y-90424000D01*
X166950000Y-84894000D02*
X145760000Y-84894000D01*
X166950000Y-101034000D02*
X145760000Y-101034000D01*
X169510000Y-87884000D02*
X166950000Y-87884000D01*
D13*
%TO.C,U6*%
X106578400Y-73875900D02*
X106578400Y-71920100D01*
X109829600Y-71920100D02*
X109829600Y-73875900D01*
%TO.C,R61*%
X179847450Y-108775500D02*
X180324550Y-108775500D01*
X180324550Y-114236500D02*
X179847450Y-114236500D01*
D11*
%TO.C,Q4*%
X166950000Y-68014000D02*
X145760000Y-68014000D01*
X169510000Y-59944000D02*
X166950000Y-59944000D01*
X166950000Y-68014000D02*
X166950000Y-51874000D01*
X169510000Y-54864000D02*
X166950000Y-54864000D01*
X166950000Y-51874000D02*
X145760000Y-51874000D01*
X145760000Y-68014000D02*
X145760000Y-51874000D01*
X169510000Y-65024000D02*
X166950000Y-65024000D01*
X169510000Y-57404000D02*
X166950000Y-57404000D01*
%TO.C,C19*%
X106687252Y-68553000D02*
X106164748Y-68553000D01*
X106687252Y-67083000D02*
X106164748Y-67083000D01*
%TO.C,R1*%
X118124500Y-72373258D02*
X118124500Y-71898742D01*
X117079500Y-72373258D02*
X117079500Y-71898742D01*
D10*
%TO.C,U1*%
X117627999Y-79712000D02*
X117627999Y-76061999D01*
X114528001Y-77862001D02*
X114528001Y-76061999D01*
D11*
%TO.C,Q6*%
X145760000Y-134054000D02*
X145760000Y-117914000D01*
X169510000Y-123444000D02*
X166950000Y-123444000D01*
X166950000Y-134054000D02*
X166950000Y-117914000D01*
X166950000Y-134054000D02*
X145760000Y-134054000D01*
X169510000Y-131064000D02*
X166950000Y-131064000D01*
X169510000Y-120904000D02*
X166950000Y-120904000D01*
X166950000Y-117914000D02*
X145760000Y-117914000D01*
X169510000Y-125984000D02*
X166950000Y-125984000D01*
%TO.C,R4*%
X115076500Y-72373258D02*
X115076500Y-71898742D01*
X114031500Y-72373258D02*
X114031500Y-71898742D01*
D13*
%TO.C,R65*%
X179847450Y-144589500D02*
X180324550Y-144589500D01*
X180324550Y-150050500D02*
X179847450Y-150050500D01*
D11*
%TO.C,R5*%
X105934742Y-77201500D02*
X106409258Y-77201500D01*
X105934742Y-78246500D02*
X106409258Y-78246500D01*
%TO.C,C16*%
X106687252Y-66521000D02*
X106164748Y-66521000D01*
X106687252Y-65051000D02*
X106164748Y-65051000D01*
%TO.C,R2*%
X116600500Y-72373258D02*
X116600500Y-71898742D01*
X115555500Y-72373258D02*
X115555500Y-71898742D01*
%TO.C,R3*%
X112507500Y-72373258D02*
X112507500Y-71898742D01*
X113552500Y-72373258D02*
X113552500Y-71898742D01*
%TO.C,R6*%
X106409258Y-76468500D02*
X105934742Y-76468500D01*
X106409258Y-75423500D02*
X105934742Y-75423500D01*
%TO.C,C1*%
X119128000Y-76059420D02*
X119128000Y-76340580D01*
X118108000Y-76059420D02*
X118108000Y-76340580D01*
%TO.C,D2*%
X111978000Y-68580000D02*
X111978000Y-66905000D01*
X115098000Y-68580000D02*
X115098000Y-69230000D01*
X115098000Y-68580000D02*
X115098000Y-67930000D01*
X111978000Y-68580000D02*
X111978000Y-69230000D01*
%TO.C,L1*%
X108364000Y-69095252D02*
X108364000Y-68572748D01*
X110584000Y-69095252D02*
X110584000Y-68572748D01*
%TO.C,Q3*%
X166950000Y-68384000D02*
X145760000Y-68384000D01*
X166950000Y-84524000D02*
X145760000Y-84524000D01*
X169510000Y-76454000D02*
X166950000Y-76454000D01*
X169510000Y-81534000D02*
X166950000Y-81534000D01*
X166950000Y-84524000D02*
X166950000Y-68384000D01*
X169510000Y-71374000D02*
X166950000Y-71374000D01*
X145760000Y-84524000D02*
X145760000Y-68384000D01*
X169510000Y-73914000D02*
X166950000Y-73914000D01*
%TO.C,C13*%
X105920000Y-72249420D02*
X105920000Y-72530580D01*
X104900000Y-72249420D02*
X104900000Y-72530580D01*
%TO.C,D1*%
X118654000Y-68580000D02*
X118654000Y-67930000D01*
X118654000Y-68580000D02*
X118654000Y-69230000D01*
X115534000Y-68580000D02*
X115534000Y-66905000D01*
X115534000Y-68580000D02*
X115534000Y-69230000D01*
%TD*%
M02*
