%TF.GenerationSoftware,KiCad,Pcbnew,7.0.7*%
%TF.CreationDate,2023-10-22T18:31:29-04:00*%
%TF.ProjectId,HV servo drive v1,48562073-6572-4766-9f20-647269766520,rev?*%
%TF.SameCoordinates,Original*%
%TF.FileFunction,Copper,L4,Bot*%
%TF.FilePolarity,Positive*%
%FSLAX46Y46*%
G04 Gerber Fmt 4.6, Leading zero omitted, Abs format (unit mm)*
G04 Created by KiCad (PCBNEW 7.0.7) date 2023-10-22 18:31:29*
%MOMM*%
%LPD*%
G01*
G04 APERTURE LIST*
G04 Aperture macros list*
%AMRoundRect*
0 Rectangle with rounded corners*
0 $1 Rounding radius*
0 $2 $3 $4 $5 $6 $7 $8 $9 X,Y pos of 4 corners*
0 Add a 4 corners polygon primitive as box body*
4,1,4,$2,$3,$4,$5,$6,$7,$8,$9,$2,$3,0*
0 Add four circle primitives for the rounded corners*
1,1,$1+$1,$2,$3*
1,1,$1+$1,$4,$5*
1,1,$1+$1,$6,$7*
1,1,$1+$1,$8,$9*
0 Add four rect primitives between the rounded corners*
20,1,$1+$1,$2,$3,$4,$5,0*
20,1,$1+$1,$4,$5,$6,$7,0*
20,1,$1+$1,$6,$7,$8,$9,0*
20,1,$1+$1,$8,$9,$2,$3,0*%
G04 Aperture macros list end*
%TA.AperFunction,ComponentPad*%
%ADD10C,4.000000*%
%TD*%
%TA.AperFunction,ComponentPad*%
%ADD11C,2.000000*%
%TD*%
%TA.AperFunction,ComponentPad*%
%ADD12R,4.000000X4.000000*%
%TD*%
%TA.AperFunction,ComponentPad*%
%ADD13RoundRect,0.250002X-1.599998X1.599998X-1.599998X-1.599998X1.599998X-1.599998X1.599998X1.599998X0*%
%TD*%
%TA.AperFunction,ComponentPad*%
%ADD14C,3.700000*%
%TD*%
%TA.AperFunction,ComponentPad*%
%ADD15R,2.000000X2.000000*%
%TD*%
%TA.AperFunction,ComponentPad*%
%ADD16O,1.600000X1.600000*%
%TD*%
%TA.AperFunction,ComponentPad*%
%ADD17C,1.600000*%
%TD*%
%TA.AperFunction,ComponentPad*%
%ADD18O,1.700000X1.700000*%
%TD*%
%TA.AperFunction,ComponentPad*%
%ADD19R,1.700000X1.700000*%
%TD*%
%TA.AperFunction,ComponentPad*%
%ADD20O,3.700000X2.700000*%
%TD*%
%TA.AperFunction,ComponentPad*%
%ADD21RoundRect,0.250001X1.599999X-1.099999X1.599999X1.099999X-1.599999X1.099999X-1.599999X-1.099999X0*%
%TD*%
%TA.AperFunction,ConnectorPad*%
%ADD22C,5.600000*%
%TD*%
%TA.AperFunction,ComponentPad*%
%ADD23C,7.000000*%
%TD*%
%TA.AperFunction,ComponentPad*%
%ADD24RoundRect,0.250001X-1.599999X1.099999X-1.599999X-1.099999X1.599999X-1.099999X1.599999X1.099999X0*%
%TD*%
%TA.AperFunction,ComponentPad*%
%ADD25O,4.500000X1.905000*%
%TD*%
%TA.AperFunction,ComponentPad*%
%ADD26R,4.500000X1.905000*%
%TD*%
%TA.AperFunction,ComponentPad*%
%ADD27R,1.600000X1.600000*%
%TD*%
%TA.AperFunction,ComponentPad*%
%ADD28O,1.700000X1.850000*%
%TD*%
%TA.AperFunction,ComponentPad*%
%ADD29RoundRect,0.250000X-0.600000X-0.675000X0.600000X-0.675000X0.600000X0.675000X-0.600000X0.675000X0*%
%TD*%
%TA.AperFunction,ComponentPad*%
%ADD30C,1.500000*%
%TD*%
%TA.AperFunction,ComponentPad*%
%ADD31R,1.500000X1.500000*%
%TD*%
%TA.AperFunction,ViaPad*%
%ADD32C,0.800000*%
%TD*%
%TA.AperFunction,Conductor*%
%ADD33C,0.500000*%
%TD*%
%TA.AperFunction,Conductor*%
%ADD34C,1.000000*%
%TD*%
%TA.AperFunction,Conductor*%
%ADD35C,0.250000*%
%TD*%
G04 APERTURE END LIST*
D10*
%TO.P,C8,1*%
%TO.N,+VDC*%
X335800000Y-192796000D03*
X356100000Y-192796000D03*
%TO.P,C8,2*%
%TO.N,-VDC*%
X335800000Y-155296000D03*
X356100000Y-155296000D03*
%TD*%
%TO.P,C9,1*%
%TO.N,+VDC*%
X335800000Y-148296000D03*
X356100000Y-148296000D03*
%TO.P,C9,2*%
%TO.N,-VDC*%
X335800000Y-110796000D03*
X356100000Y-110796000D03*
%TD*%
D11*
%TO.P,C31,1*%
%TO.N,GND2*%
X396500000Y-63000000D03*
%TO.P,C31,2*%
%TO.N,GND1*%
X386500000Y-63000000D03*
%TD*%
D12*
%TO.P,C48,1*%
%TO.N,+VDC*%
X321482066Y-235500000D03*
D10*
%TO.P,C48,2*%
%TO.N,-VDC*%
X331482066Y-235500000D03*
%TD*%
D12*
%TO.P,C49,1*%
%TO.N,+VDC*%
X340982066Y-211500000D03*
D10*
%TO.P,C49,2*%
%TO.N,-VDC*%
X350982066Y-211500000D03*
%TD*%
D13*
%TO.P,J5,1,Pin_1*%
%TO.N,U*%
X322775000Y-163945000D03*
D14*
%TO.P,J5,2,Pin_2*%
%TO.N,V*%
X322775000Y-169645000D03*
%TO.P,J5,3,Pin_3*%
%TO.N,W*%
X322775000Y-175345000D03*
%TO.P,J5,4,Pin_4*%
%TO.N,GND*%
X322775000Y-181045000D03*
%TO.P,J5,5,Pin_5*%
%TO.N,U*%
X328275000Y-163945000D03*
%TO.P,J5,6,Pin_6*%
%TO.N,V*%
X328275000Y-169645000D03*
%TO.P,J5,7,Pin_7*%
%TO.N,W*%
X328275000Y-175345000D03*
%TO.P,J5,8,Pin_8*%
%TO.N,GND*%
X328275000Y-181045000D03*
%TD*%
D13*
%TO.P,J7,1,Pin_1*%
%TO.N,+VDC*%
X322775000Y-126150000D03*
D14*
%TO.P,J7,2,Pin_2*%
X322775000Y-131850000D03*
%TO.P,J7,3,Pin_3*%
%TO.N,-VDC*%
X328275000Y-126150000D03*
%TO.P,J7,4,Pin_4*%
X328275000Y-131850000D03*
%TD*%
D15*
%TO.P,U7,1,VIN*%
%TO.N,Net-(U7-VIN)*%
X386130000Y-59040000D03*
D11*
%TO.P,U7,2,GND*%
%TO.N,GND1*%
X388670000Y-59040000D03*
%TO.P,U7,5,-V*%
%TO.N,GND2*%
X396290000Y-59040000D03*
%TO.P,U7,7,+V*%
%TO.N,+5V*%
X401370000Y-59040000D03*
%TD*%
D15*
%TO.P,U20,1,VIN*%
%TO.N,Net-(U20-VIN)*%
X399710000Y-74930000D03*
D11*
%TO.P,U20,2,GND*%
%TO.N,GND2*%
X399710000Y-77470000D03*
%TO.P,U20,5,-V*%
%TO.N,GND3*%
X399710000Y-85090000D03*
%TO.P,U20,7,+V*%
%TO.N,+15V*%
X399710000Y-90170000D03*
%TD*%
D16*
%TO.P,R44,2*%
%TO.N,VBUS_ADC*%
X381350000Y-242989931D03*
D17*
%TO.P,R44,1*%
%TO.N,+VDC*%
X368650000Y-242989931D03*
%TD*%
D18*
%TO.P,TH2,2*%
%TO.N,HEATSINK_TEMP_2_ADC*%
X413000000Y-86530000D03*
D19*
%TO.P,TH2,1*%
%TO.N,+3.3V*%
X413000000Y-83990000D03*
%TD*%
D20*
%TO.P,J6,4,Pin_4*%
%TO.N,WM*%
X326275000Y-205900000D03*
%TO.P,J6,3,Pin_3*%
%TO.N,UM*%
X326275000Y-210100000D03*
%TO.P,J6,2,Pin_2*%
%TO.N,unconnected-(J6-Pin_2-Pad2)*%
X320775000Y-205900000D03*
D21*
%TO.P,J6,1,Pin_1*%
%TO.N,VM*%
X320775000Y-210100000D03*
%TD*%
D16*
%TO.P,R40,2*%
%TO.N,V_ADC*%
X381350000Y-217989931D03*
D17*
%TO.P,R40,1*%
%TO.N,V*%
X368650000Y-217989931D03*
%TD*%
D16*
%TO.P,R29,2*%
%TO.N,WM_ADC*%
X381350000Y-228000000D03*
D17*
%TO.P,R29,1*%
%TO.N,WM*%
X368650000Y-228000000D03*
%TD*%
D22*
%TO.P,H12,1,1*%
%TO.N,GND*%
X315000000Y-155000000D03*
D23*
X315000000Y-155000000D03*
%TD*%
%TO.P,H9,1,1*%
%TO.N,GND*%
X444000000Y-57000000D03*
D22*
X444000000Y-57000000D03*
%TD*%
D23*
%TO.P,H6,1,1*%
%TO.N,GND*%
X444000000Y-98000000D03*
D22*
X444000000Y-98000000D03*
%TD*%
D23*
%TO.P,H10,1,1*%
%TO.N,GND*%
X444000000Y-246000000D03*
D22*
X444000000Y-246000000D03*
%TD*%
%TO.P,H14,1,1*%
%TO.N,GND*%
X345000000Y-246000000D03*
D23*
X345000000Y-246000000D03*
%TD*%
D16*
%TO.P,R27,2*%
%TO.N,VM_ADC*%
X381350000Y-237989931D03*
D17*
%TO.P,R27,1*%
%TO.N,VM*%
X368650000Y-237989931D03*
%TD*%
D22*
%TO.P,H13,1,1*%
%TO.N,GND*%
X315000000Y-197000000D03*
D23*
X315000000Y-197000000D03*
%TD*%
D18*
%TO.P,TH1,2*%
%TO.N,HEATSINK_TEMP_1_ADC*%
X417000000Y-86515000D03*
D19*
%TO.P,TH1,1*%
%TO.N,+3.3V*%
X417000000Y-83975000D03*
%TD*%
D16*
%TO.P,R25,2*%
%TO.N,UM_ADC*%
X381350000Y-232989931D03*
D17*
%TO.P,R25,1*%
%TO.N,UM*%
X368650000Y-232989931D03*
%TD*%
D23*
%TO.P,H3,1*%
%TO.N,N/C*%
X373000000Y-140000000D03*
D22*
X373000000Y-140000000D03*
%TD*%
D23*
%TO.P,H4,1,1*%
%TO.N,GND*%
X444000000Y-157000000D03*
D22*
X444000000Y-157000000D03*
%TD*%
D23*
%TO.P,H7,1,1*%
%TO.N,GND*%
X444000000Y-214000000D03*
D22*
X444000000Y-214000000D03*
%TD*%
D23*
%TO.P,H8,1*%
%TO.N,N/C*%
X374000000Y-181000000D03*
D22*
X374000000Y-181000000D03*
%TD*%
D23*
%TO.P,H1,1,1*%
%TO.N,GND*%
X315000000Y-117000000D03*
D22*
X315000000Y-117000000D03*
%TD*%
D16*
%TO.P,R42,2*%
%TO.N,W_ADC*%
X381350000Y-222989931D03*
D17*
%TO.P,R42,1*%
%TO.N,W*%
X368650000Y-222989931D03*
%TD*%
D16*
%TO.P,R38,2*%
%TO.N,U_ADC*%
X381350000Y-212989931D03*
D17*
%TO.P,R38,1*%
%TO.N,U*%
X368650000Y-212989931D03*
%TD*%
D24*
%TO.P,J9,1,Pin_1*%
%TO.N,STO CH1 FIELD*%
X320775000Y-73800000D03*
D20*
%TO.P,J9,2,Pin_2*%
%TO.N,STO CH2 FIELD*%
X320775000Y-78000000D03*
%TO.P,J9,3,Pin_3*%
%TO.N,Net-(J9-Pin_3)*%
X320775000Y-82200000D03*
%TO.P,J9,4,Pin_4*%
%TO.N,Net-(J9-Pin_4)*%
X326275000Y-73800000D03*
%TO.P,J9,5,Pin_5*%
%TO.N,STO FBK OUT*%
X326275000Y-78000000D03*
%TO.P,J9,6,Pin_6*%
%TO.N,unconnected-(J9-Pin_6-Pad6)*%
X326275000Y-82200000D03*
%TD*%
D25*
%TO.P,Q4,4,G*%
%TO.N,Net-(Q4-G)*%
X393690000Y-112320000D03*
%TO.P,Q4,3,DS*%
%TO.N,Net-(Q4-DS)*%
X393690000Y-114860000D03*
%TO.P,Q4,2,S*%
%TO.N,-VDC*%
X393690000Y-117400000D03*
D26*
%TO.P,Q4,1,D*%
%TO.N,Net-(D20-A)*%
X393690000Y-122480000D03*
%TD*%
D16*
%TO.P,SW2,4*%
%TO.N,RX-*%
X339500000Y-59130000D03*
%TO.P,SW2,3*%
%TO.N,TX-*%
X336960000Y-59130000D03*
%TO.P,SW2,2*%
%TO.N,Net-(R91-Pad2)*%
X336960000Y-66750000D03*
D27*
%TO.P,SW2,1*%
%TO.N,Net-(R90-Pad2)*%
X339500000Y-66750000D03*
%TD*%
D13*
%TO.P,J10,1,Pin_1*%
%TO.N,+VDC*%
X322750000Y-140650000D03*
D14*
%TO.P,J10,2,Pin_2*%
X322750000Y-146350000D03*
%TO.P,J10,3,Pin_3*%
%TO.N,-VDC*%
X328250000Y-140650000D03*
%TO.P,J10,4,Pin_4*%
X328250000Y-146350000D03*
%TD*%
D25*
%TO.P,Q1,4,G*%
%TO.N,Net-(Q1-G)*%
X399660000Y-166230000D03*
%TO.P,Q1,3,DS*%
%TO.N,Net-(Q1-DS)*%
X399660000Y-163690000D03*
%TO.P,Q1,2,S*%
%TO.N,Net-(D19-A)*%
X399660000Y-161150000D03*
D26*
%TO.P,Q1,1,D*%
%TO.N,+VDC*%
X399660000Y-156070000D03*
%TD*%
D28*
%TO.P,M2,4,PWM*%
%TO.N,FAN_PWM_ISO*%
X362250000Y-54600000D03*
%TO.P,M2,3,Tacho*%
%TO.N,TACH_2_ISO*%
X359750000Y-54600000D03*
%TO.P,M2,2,+*%
%TO.N,24V_ISO*%
X357250000Y-54600000D03*
D29*
%TO.P,M2,1,-*%
%TO.N,GND1*%
X354750000Y-54600000D03*
%TD*%
D25*
%TO.P,Q6,4,G*%
%TO.N,Net-(Q6-G)*%
X393609786Y-189538628D03*
%TO.P,Q6,3,DS*%
%TO.N,Net-(Q6-DS)*%
X393609786Y-192078628D03*
%TO.P,Q6,2,S*%
%TO.N,-VDC*%
X393609786Y-194618628D03*
D26*
%TO.P,Q6,1,D*%
%TO.N,Net-(D24-A)*%
X393609786Y-199698628D03*
%TD*%
D30*
%TO.P,J8,1*%
%TO.N,Net-(J8-Pad1)*%
X322786000Y-65445000D03*
X329390000Y-65445000D03*
%TO.P,J8,2*%
%TO.N,Net-(J8-Pad14)*%
X325326000Y-64175000D03*
X331930000Y-64175000D03*
%TO.P,J8,3*%
%TO.N,RX+*%
X322786000Y-62905000D03*
X329390000Y-62905000D03*
%TO.P,J8,4*%
%TO.N,TX-*%
X325326000Y-61635000D03*
X331930000Y-61635000D03*
%TO.P,J8,5*%
%TO.N,TX+*%
X322786000Y-60365000D03*
X329390000Y-60365000D03*
%TO.P,J8,6*%
%TO.N,RX-*%
X325326000Y-59095000D03*
X331930000Y-59095000D03*
%TO.P,J8,7*%
%TO.N,Net-(J8-Pad1)*%
X322786000Y-57825000D03*
X329390000Y-57825000D03*
D31*
%TO.P,J8,8*%
%TO.N,Net-(J8-Pad14)*%
X325326000Y-56555000D03*
X331930000Y-56555000D03*
%TD*%
D16*
%TO.P,SW1,8*%
%TO.N,Net-(U1-P07)*%
X324570000Y-101550000D03*
%TO.P,SW1,7*%
%TO.N,Net-(U1-P06)*%
X324570000Y-99010000D03*
%TO.P,SW1,6*%
%TO.N,Net-(U1-P05)*%
X324570000Y-96470000D03*
%TO.P,SW1,5*%
%TO.N,Net-(U1-P04)*%
X324570000Y-93930000D03*
%TO.P,SW1,4*%
%TO.N,GND2*%
X316950000Y-93930000D03*
%TO.P,SW1,3*%
X316950000Y-96470000D03*
%TO.P,SW1,2*%
X316950000Y-99010000D03*
D27*
%TO.P,SW1,1*%
X316950000Y-101550000D03*
%TD*%
D25*
%TO.P,Q2,4,G*%
%TO.N,Net-(Q2-G)*%
X393690000Y-150820000D03*
%TO.P,Q2,3,DS*%
%TO.N,Net-(Q2-DS)*%
X393690000Y-153360000D03*
%TO.P,Q2,2,S*%
%TO.N,-VDC*%
X393690000Y-155900000D03*
D26*
%TO.P,Q2,1,D*%
%TO.N,Net-(D19-A)*%
X393690000Y-160980000D03*
%TD*%
D28*
%TO.P,M1,4,PWM*%
%TO.N,FAN_PWM_ISO*%
X362250000Y-61350000D03*
%TO.P,M1,3,Tacho*%
%TO.N,TACH_1_ISO*%
X359750000Y-61350000D03*
%TO.P,M1,2,+*%
%TO.N,24V_ISO*%
X357250000Y-61350000D03*
D29*
%TO.P,M1,1,-*%
%TO.N,GND1*%
X354750000Y-61350000D03*
%TD*%
D25*
%TO.P,Q5,4,G*%
%TO.N,Net-(Q5-G)*%
X399579786Y-204948628D03*
%TO.P,Q5,3,DS*%
%TO.N,Net-(Q5-DS)*%
X399579786Y-202408628D03*
%TO.P,Q5,2,S*%
%TO.N,Net-(D24-A)*%
X399579786Y-199868628D03*
D26*
%TO.P,Q5,1,D*%
%TO.N,+VDC*%
X399579786Y-194788628D03*
%TD*%
D25*
%TO.P,Q3,4,G*%
%TO.N,Net-(Q3-G)*%
X399660000Y-127730000D03*
%TO.P,Q3,3,DS*%
%TO.N,Net-(Q3-DS)*%
X399660000Y-125190000D03*
%TO.P,Q3,2,S*%
%TO.N,Net-(D20-A)*%
X399660000Y-122650000D03*
D26*
%TO.P,Q3,1,D*%
%TO.N,+VDC*%
X399660000Y-117570000D03*
%TD*%
D18*
%TO.P,J3,6,Pin_6*%
%TO.N,GND2*%
X423525000Y-53945000D03*
%TO.P,J3,5,Pin_5*%
%TO.N,SWO*%
X420985000Y-53945000D03*
%TO.P,J3,4,Pin_4*%
%TO.N,+3.3V*%
X423525000Y-56485000D03*
%TO.P,J3,3,Pin_3*%
%TO.N,SWCLK*%
X420985000Y-56485000D03*
%TO.P,J3,2,Pin_2*%
%TO.N,RESET*%
X423525000Y-59025000D03*
D19*
%TO.P,J3,1,Pin_1*%
%TO.N,SWDIO*%
X420985000Y-59025000D03*
%TD*%
D32*
%TO.N,+3.3V*%
X432500000Y-54250000D03*
%TO.N,GND2*%
X432500000Y-58000000D03*
%TO.N,+VDC*%
X400254810Y-174665063D03*
X384500000Y-116700000D03*
X380300000Y-155200000D03*
X382500000Y-115700000D03*
X384300000Y-194000000D03*
X384300000Y-155200000D03*
X381300000Y-194000000D03*
X381500000Y-116700000D03*
X384500000Y-115700000D03*
X383500000Y-115700000D03*
X381500000Y-115700000D03*
X382300000Y-154200000D03*
X400250000Y-136150000D03*
X400219786Y-213318628D03*
X384300000Y-154200000D03*
X381300000Y-155200000D03*
X380300000Y-194000000D03*
X382500000Y-116700000D03*
X382300000Y-194000000D03*
X382300000Y-193000000D03*
X380500000Y-116700000D03*
X382300000Y-155200000D03*
X381300000Y-154200000D03*
X383300000Y-154200000D03*
X384300000Y-193000000D03*
X383300000Y-193000000D03*
X383300000Y-155200000D03*
X341750000Y-108250000D03*
X380250000Y-96750000D03*
X383500000Y-116700000D03*
X380300000Y-154200000D03*
X380500000Y-115700000D03*
X381300000Y-193000000D03*
X380300000Y-193000000D03*
X383300000Y-194000000D03*
%TO.N,-VDC*%
X384500000Y-124600000D03*
X384300000Y-164100000D03*
X383500000Y-124600000D03*
X380500000Y-124600000D03*
X381300000Y-201900000D03*
X382500000Y-124600000D03*
X381300000Y-164100000D03*
X382300000Y-201900000D03*
X384300000Y-163100000D03*
X383500000Y-125600000D03*
X384300000Y-202900000D03*
X383300000Y-164100000D03*
X380300000Y-163100000D03*
X382300000Y-164100000D03*
X381500000Y-125600000D03*
X384300000Y-201900000D03*
X350250000Y-108250000D03*
X383300000Y-201900000D03*
X383300000Y-163100000D03*
X382300000Y-163100000D03*
X382500000Y-125600000D03*
X380300000Y-164100000D03*
X380500000Y-125600000D03*
X381300000Y-202900000D03*
X381300000Y-163100000D03*
X384500000Y-125600000D03*
X383300000Y-202900000D03*
X380300000Y-201900000D03*
X382300000Y-202900000D03*
X380300000Y-202900000D03*
X381500000Y-124600000D03*
%TO.N,GND1*%
X346250000Y-56500000D03*
X381500000Y-60750000D03*
X366000000Y-64750000D03*
X353500000Y-59000000D03*
X379750000Y-60750000D03*
X383250000Y-60750000D03*
X346250000Y-60250000D03*
X368250000Y-55500000D03*
X376250000Y-60750000D03*
X335562500Y-62000000D03*
X353500000Y-57000000D03*
X316000000Y-61000000D03*
X316000000Y-62000000D03*
X378000000Y-60750000D03*
X371750000Y-59500000D03*
X353500000Y-63750000D03*
X383500000Y-65250000D03*
X353500000Y-65750000D03*
X344750000Y-63250000D03*
X371000000Y-56750000D03*
X336500000Y-56250000D03*
X376500000Y-62250500D03*
X368250000Y-56500000D03*
X371500000Y-62250000D03*
%TO.N,+15V*%
X403592109Y-186536448D03*
X403622323Y-109367820D03*
X403627133Y-147882883D03*
X404614976Y-208616065D03*
X396500000Y-103500000D03*
X404650000Y-169962500D03*
X404500000Y-131500000D03*
%TO.N,GND2*%
X374250000Y-74250000D03*
X424000000Y-92500000D03*
X418454810Y-150065063D03*
X430750000Y-195700000D03*
X385500000Y-91500000D03*
X418119786Y-176418628D03*
X338250000Y-91500000D03*
X332750000Y-103250000D03*
X432250000Y-80750000D03*
X415000000Y-89250000D03*
X428000000Y-113000000D03*
X386668457Y-223839431D03*
X376750000Y-72250000D03*
X418419786Y-188718628D03*
X436750000Y-68750000D03*
X424500000Y-80750000D03*
X405500000Y-74050000D03*
X379500000Y-83500000D03*
X386668457Y-228849500D03*
X427750000Y-153000000D03*
X386668457Y-233839431D03*
X380000000Y-74250000D03*
X339750000Y-97750000D03*
X418450000Y-111550000D03*
X431750000Y-60250000D03*
X359250000Y-93000000D03*
X332750000Y-96750000D03*
X386684000Y-243839431D03*
X390750000Y-83500000D03*
X382250000Y-72250000D03*
X418154810Y-137765063D03*
X386684000Y-238839431D03*
X409750000Y-57500000D03*
X412500000Y-72250000D03*
X410000000Y-53750000D03*
X371000000Y-72250000D03*
X386684000Y-218839431D03*
X427750000Y-151500000D03*
X387750000Y-85000000D03*
X418150000Y-99250000D03*
X386684000Y-213839431D03*
X428000000Y-114500000D03*
X427750000Y-190250000D03*
X421500000Y-93250000D03*
X416500000Y-70250000D03*
X367500000Y-75500000D03*
X349000000Y-91500000D03*
X419250000Y-73500000D03*
X409500000Y-93000000D03*
X376500000Y-85000000D03*
X427750000Y-191750000D03*
X434500000Y-79250000D03*
X424750000Y-63250000D03*
%TO.N,+3.3V*%
X419250000Y-74750000D03*
X315500000Y-96500000D03*
X315250000Y-101250000D03*
X425750000Y-80750000D03*
X419054810Y-151265063D03*
X377750000Y-72750000D03*
X411500000Y-53750000D03*
X433250000Y-79250000D03*
X315500000Y-93000000D03*
X419619786Y-176418628D03*
X386684000Y-231105931D03*
X346250000Y-93500000D03*
X336250000Y-92750000D03*
X415000000Y-84000000D03*
X315500000Y-103912000D03*
X361750000Y-91250000D03*
X366250000Y-72750000D03*
X372000000Y-72750000D03*
X414050000Y-107950000D03*
X420250000Y-95750000D03*
X419650000Y-99250000D03*
X419654810Y-137765063D03*
X340000000Y-103000000D03*
X386684000Y-216211931D03*
X412500000Y-70500000D03*
X414054810Y-146465063D03*
X339750000Y-96250000D03*
X332750000Y-92750000D03*
X329500000Y-92000000D03*
X341500000Y-103250000D03*
X386684000Y-226476000D03*
X414019786Y-185118628D03*
X430750000Y-199700000D03*
X367500000Y-78000000D03*
X436750000Y-67500000D03*
X419250000Y-132000000D03*
X386684000Y-236211931D03*
X419050000Y-112750000D03*
X386684000Y-241211931D03*
X423500000Y-63250000D03*
X386684000Y-211211931D03*
X419019786Y-189918628D03*
X386684000Y-221211931D03*
%TO.N,U*%
X367000000Y-134000000D03*
%TO.N,UH*%
X428275500Y-102250000D03*
X432000500Y-101000000D03*
%TO.N,UL*%
X427500000Y-100500000D03*
X431224061Y-96775939D03*
%TO.N,U_DATA*%
X428227766Y-96115667D03*
X425250000Y-67750000D03*
X427500000Y-82863604D03*
X425750000Y-98750000D03*
%TO.N,W*%
X363000000Y-205000000D03*
%TO.N,V*%
X365000000Y-171000000D03*
%TO.N,W_DATA*%
X430250000Y-83250000D03*
X432250000Y-71750000D03*
%TO.N,VH*%
X433612701Y-99862701D03*
X428000000Y-138250000D03*
%TO.N,VL*%
X431250000Y-99000000D03*
X428000000Y-136750000D03*
%TO.N,V_DATA*%
X428250000Y-82000000D03*
X428250000Y-79500000D03*
X426750000Y-133750000D03*
X429000000Y-96750000D03*
%TO.N,5v_ISO*%
X367890500Y-64250000D03*
X380000000Y-56250000D03*
X372750000Y-62250000D03*
X378500000Y-62250000D03*
X379000000Y-56250000D03*
X382000000Y-55250000D03*
X381000000Y-56250000D03*
X341750000Y-64500000D03*
X382000000Y-56250000D03*
X367500000Y-59000000D03*
%TO.N,+5V*%
X400250000Y-65000000D03*
%TO.N,24V_ISO*%
X373500000Y-57500000D03*
X373500000Y-55500000D03*
X373500000Y-56500000D03*
X371500000Y-54000000D03*
%TO.N,HEATSINK_TEMP_1_ADC*%
X418500000Y-81250000D03*
%TO.N,UM_ADC*%
X425500000Y-76250000D03*
X437250000Y-104000000D03*
%TO.N,VM_ADC*%
X438000000Y-104750000D03*
X426500000Y-76250000D03*
%TO.N,WM_ADC*%
X436262299Y-103262299D03*
X424500000Y-76250000D03*
%TO.N,HEATSINK_TEMP_2_ADC*%
X415250000Y-79750000D03*
%TO.N,U_ADC*%
X423500000Y-74750000D03*
X435250000Y-100500000D03*
%TO.N,V_ADC*%
X423500000Y-75749503D03*
X435262299Y-101512299D03*
%TO.N,W_ADC*%
X423500000Y-76749006D03*
X436250000Y-102250000D03*
%TO.N,VBUS_ADC*%
X438750000Y-105500000D03*
X426775970Y-78902289D03*
%TO.N,BOARD_TEMP_1_ADC*%
X423000000Y-134000000D03*
X418500000Y-80250000D03*
%TO.N,GND3*%
X385500000Y-95500000D03*
X393750000Y-99500000D03*
X400350000Y-131250000D03*
X400319786Y-208418628D03*
X405054810Y-156465063D03*
X405050000Y-117950000D03*
X400354810Y-169765063D03*
X408000000Y-98500000D03*
X405019786Y-195118628D03*
%TO.N,VBUS -5V*%
X404614976Y-213503565D03*
X380000000Y-103000000D03*
X404500000Y-136250000D03*
X404650000Y-174850000D03*
%TO.N,RX-*%
X335000000Y-60000000D03*
%TO.N,TX+*%
X335750000Y-65000000D03*
X338000000Y-56250000D03*
%TO.N,TX_EN_ISO*%
X349737701Y-59012299D03*
X375750000Y-63750000D03*
%TO.N,Net-(D17-K)*%
X412650000Y-120350000D03*
%TO.N,RX*%
X425250000Y-70749503D03*
X369000000Y-75250000D03*
%TO.N,TX*%
X370250000Y-74500000D03*
X425250000Y-69750000D03*
%TO.N,TACH_1*%
X374500000Y-76750000D03*
X425234699Y-73783021D03*
%TO.N,TX_EN*%
X425250000Y-71750000D03*
X375481000Y-76224500D03*
%TO.N,TACH_2*%
X425237701Y-72762299D03*
X380725000Y-76724500D03*
%TO.N,FAN_PWM*%
X427250000Y-61076000D03*
X402500000Y-61500000D03*
%TO.N,FAN_PWM_ISO*%
X364500000Y-58250000D03*
X381750000Y-63250000D03*
%TO.N,TACH_2_ISO*%
X380500000Y-63250000D03*
%TO.N,Net-(D20-K)*%
X407550000Y-108850000D03*
X412450000Y-124650000D03*
%TO.N,Net-(D20-A)*%
X406350000Y-106250000D03*
X405201305Y-104601305D03*
%TO.N,SWCLK*%
X426000000Y-55000000D03*
%TO.N,-5V*%
X403753120Y-146891352D03*
X390500000Y-101000000D03*
X403748310Y-108376289D03*
X403718096Y-185544917D03*
%TO.N,BOOT*%
X429000000Y-63250000D03*
X428000000Y-67500000D03*
%TO.N,Net-(U11-OUTA)*%
X411150000Y-118750000D03*
X406850000Y-124050000D03*
X406850000Y-125050000D03*
%TO.N,Net-(U11-OUTB)*%
X407950000Y-113250000D03*
X401950000Y-111950000D03*
X401950000Y-112850000D03*
%TO.N,STO CH1*%
X425000000Y-156250000D03*
X425500000Y-109500000D03*
X425750000Y-132250000D03*
X334250000Y-94750000D03*
X344500000Y-94750000D03*
X425750000Y-117500000D03*
X427500000Y-171250000D03*
X427500000Y-179250000D03*
X425500000Y-136250000D03*
X424762299Y-100762299D03*
X368250000Y-82000000D03*
X425000000Y-147750000D03*
X406750000Y-78724500D03*
%TO.N,STO EN*%
X367500000Y-76750000D03*
X430750000Y-62750000D03*
X350000000Y-95250000D03*
X354750000Y-95250000D03*
X414250000Y-62525000D03*
X414250000Y-78500000D03*
%TO.N,STO CH2*%
X435025500Y-76250000D03*
X369000000Y-82750000D03*
X408500000Y-80000000D03*
X438750000Y-72750000D03*
%TO.N,Net-(D16-K)*%
X412654810Y-158865063D03*
%TO.N,Net-(D19-K)*%
X407554810Y-147365063D03*
X412454810Y-163165063D03*
%TO.N,Net-(D19-A)*%
X406354810Y-144765063D03*
X405206115Y-143116368D03*
%TO.N,Net-(D21-K)*%
X412619786Y-197518628D03*
%TO.N,Net-(D24-K)*%
X412419786Y-201818628D03*
X407519786Y-186018628D03*
%TO.N,Net-(D24-A)*%
X406319786Y-183418628D03*
X405171091Y-181769933D03*
%TO.N,Net-(U10-OUTA)*%
X406864810Y-163565063D03*
X411154810Y-157265063D03*
X406854810Y-162565063D03*
%TO.N,Net-(U10-OUTB)*%
X401954810Y-151365063D03*
X407954810Y-151765063D03*
X401954810Y-150465063D03*
%TO.N,Net-(U13-OUTA)*%
X406819786Y-201218628D03*
X406829786Y-202218628D03*
X411119786Y-195918628D03*
%TO.N,Net-(U13-OUTB)*%
X401919786Y-190018628D03*
X401919786Y-189118628D03*
X407919786Y-190418628D03*
%TO.N,STO CH1 MCU FBK*%
X408250000Y-62000000D03*
X430000000Y-61800500D03*
%TO.N,SAFE GND*%
X332250000Y-77750000D03*
X316750000Y-79000000D03*
X338750000Y-78250000D03*
X356250000Y-72250000D03*
X347000000Y-72250000D03*
%TO.N,STO FBK OUT*%
X338500000Y-74000000D03*
X331250000Y-75750000D03*
%TO.N,Net-(U22-IN)*%
X427250000Y-94000000D03*
X429500000Y-82000000D03*
X429525500Y-75750000D03*
X429750000Y-95750000D03*
%TO.N,STO CH1 FIELD*%
X354250000Y-75500000D03*
%TO.N,STO CH2 FIELD*%
X343000000Y-75500000D03*
%TO.N,Net-(J8-Pad14)*%
X318000000Y-61250000D03*
X318000000Y-62250000D03*
%TO.N,Net-(U1-P07)*%
X329250000Y-103000000D03*
%TO.N,Net-(U1-P06)*%
X329524278Y-102024279D03*
%TO.N,Net-(U1-P05)*%
X332560395Y-101390921D03*
%TO.N,Net-(U1-P04)*%
X332750000Y-100250000D03*
%TO.N,SDA*%
X402500000Y-63250000D03*
X335250000Y-96500000D03*
X341500000Y-99500000D03*
X426500000Y-63250000D03*
%TO.N,SDL*%
X335250000Y-98000000D03*
X403250000Y-64000000D03*
X426025500Y-64654612D03*
X341500000Y-101000000D03*
%TD*%
D33*
%TO.N,+15V*%
X404750000Y-208481041D02*
X404750000Y-196050924D01*
X402868096Y-182870846D02*
X402868096Y-185896999D01*
X406000000Y-131500000D02*
X406000000Y-140750000D01*
X402903120Y-147243434D02*
X403542569Y-147882883D01*
X406000000Y-179738942D02*
X402868096Y-182870846D01*
X406000000Y-131500000D02*
X404500000Y-131500000D01*
X404000000Y-195300924D02*
X404000000Y-186944339D01*
X403627133Y-147882883D02*
X404730603Y-148986353D01*
X402903120Y-143846880D02*
X402903120Y-147243434D01*
X406000000Y-169962500D02*
X404650000Y-169962500D01*
X406000000Y-111745497D02*
X406000000Y-131500000D01*
X403622323Y-109367820D02*
X406000000Y-111745497D01*
X403507545Y-186536448D02*
X403592109Y-186536448D01*
X403537759Y-109367820D02*
X397669939Y-103500000D01*
X404614976Y-208616065D02*
X404750000Y-208481041D01*
X403622323Y-109367820D02*
X403537759Y-109367820D01*
X406000000Y-169962500D02*
X406000000Y-179738942D01*
X406000000Y-158612335D02*
X406000000Y-169962500D01*
X404204810Y-156817145D02*
X406000000Y-158612335D01*
X397669939Y-103500000D02*
X396500000Y-103500000D01*
X402868096Y-185896999D02*
X403507545Y-186536448D01*
X404730603Y-148986353D02*
X404204810Y-149512146D01*
X403542569Y-147882883D02*
X403627133Y-147882883D01*
X404750000Y-196050924D02*
X404000000Y-195300924D01*
X404204810Y-149512146D02*
X404204810Y-156817145D01*
X406000000Y-140750000D02*
X402903120Y-143846880D01*
X404000000Y-186944339D02*
X403592109Y-186536448D01*
D34*
%TO.N,U*%
X368650000Y-212989931D02*
X367000000Y-211339931D01*
X367000000Y-211339931D02*
X367000000Y-134000000D01*
D35*
%TO.N,UH*%
X428275500Y-101974500D02*
X429250000Y-101000000D01*
X428275500Y-102250000D02*
X428275500Y-101974500D01*
X429250000Y-101000000D02*
X432000500Y-101000000D01*
%TO.N,UL*%
X431224061Y-96775939D02*
X427500000Y-100500000D01*
%TO.N,U_DATA*%
X427500000Y-70000000D02*
X427500000Y-82863604D01*
X428227766Y-96272234D02*
X428227766Y-96115667D01*
X427050000Y-97450000D02*
X425750000Y-98750000D01*
X427050000Y-97450000D02*
X428227766Y-96272234D01*
X425250000Y-67750000D02*
X427500000Y-70000000D01*
D34*
%TO.N,W*%
X363000000Y-217339931D02*
X363000000Y-205000000D01*
X368650000Y-222989931D02*
X363000000Y-217339931D01*
%TO.N,V*%
X365000000Y-214339931D02*
X365000000Y-171000000D01*
X368650000Y-217989931D02*
X365000000Y-214339931D01*
D35*
%TO.N,W_DATA*%
X432250000Y-71750000D02*
X430250000Y-73750000D01*
X430250000Y-73750000D02*
X430250000Y-83250000D01*
%TO.N,VH*%
X433500000Y-132750000D02*
X428000000Y-138250000D01*
X433500000Y-99975402D02*
X433500000Y-132750000D01*
X433612701Y-99862701D02*
X433500000Y-99975402D01*
%TO.N,VL*%
X432725500Y-100475500D02*
X432725500Y-132024500D01*
X431250000Y-99000000D02*
X432725500Y-100475500D01*
X432725500Y-132024500D02*
X428000000Y-136750000D01*
%TO.N,V_DATA*%
X426775000Y-98975000D02*
X429000000Y-96750000D01*
X428250000Y-82000000D02*
X428250000Y-79500000D01*
X426775000Y-133725000D02*
X426775000Y-98975000D01*
X426750000Y-133750000D02*
X426775000Y-133725000D01*
D34*
%TO.N,+5V*%
X400250000Y-60160000D02*
X401370000Y-59040000D01*
X400250000Y-65000000D02*
X400250000Y-60160000D01*
%TO.N,24V_ISO*%
X371500000Y-54000000D02*
X372000000Y-54000000D01*
X373500000Y-57500000D02*
X373500000Y-56500000D01*
X373500000Y-56500000D02*
X373500000Y-55500000D01*
X372000000Y-54000000D02*
X373500000Y-55500000D01*
D35*
%TO.N,HEATSINK_TEMP_1_ADC*%
X418500000Y-85015000D02*
X417000000Y-86515000D01*
X418500000Y-81250000D02*
X418500000Y-85015000D01*
%TO.N,UM_ADC*%
X438250000Y-103000000D02*
X437250000Y-104000000D01*
X425500000Y-76250000D02*
X425500000Y-76750000D01*
X425500000Y-76750000D02*
X423000000Y-79250000D01*
X423000000Y-79250000D02*
X423000000Y-82750000D01*
X438250000Y-98000000D02*
X438250000Y-103000000D01*
X423000000Y-82750000D02*
X438250000Y-98000000D01*
%TO.N,VM_ADC*%
X426500000Y-76250000D02*
X426500000Y-76750000D01*
X423750000Y-79500000D02*
X423750000Y-82500000D01*
X426500000Y-76750000D02*
X423750000Y-79500000D01*
X439000000Y-97750000D02*
X439000000Y-103750000D01*
X423750000Y-82500000D02*
X439000000Y-97750000D01*
X439000000Y-103750000D02*
X438000000Y-104750000D01*
%TO.N,WM_ADC*%
X437500000Y-102024598D02*
X437500000Y-98250000D01*
X437500000Y-98250000D02*
X422250000Y-83000000D01*
X422250000Y-83000000D02*
X422250000Y-79024311D01*
X422250000Y-79024311D02*
X424500000Y-76774311D01*
X436262299Y-103262299D02*
X437500000Y-102024598D01*
X424500000Y-76774311D02*
X424500000Y-76250000D01*
%TO.N,HEATSINK_TEMP_2_ADC*%
X415250000Y-79750000D02*
X414250000Y-79750000D01*
X411000000Y-83000000D02*
X411000000Y-84530000D01*
X414250000Y-79750000D02*
X411000000Y-83000000D01*
X411000000Y-84530000D02*
X413000000Y-86530000D01*
%TO.N,U_ADC*%
X422775000Y-75449198D02*
X423199695Y-75024503D01*
X435250000Y-100500000D02*
X435250000Y-99000000D01*
X423199695Y-75024503D02*
X423225497Y-75024503D01*
X420000000Y-78250000D02*
X422775000Y-75475000D01*
X422775000Y-75475000D02*
X422775000Y-75449198D01*
X420000000Y-83750000D02*
X420000000Y-78250000D01*
X435250000Y-99000000D02*
X420000000Y-83750000D01*
X423225497Y-75024503D02*
X423500000Y-74750000D01*
%TO.N,V_ADC*%
X422775000Y-76448701D02*
X423474198Y-75749503D01*
X435262299Y-101512299D02*
X435975000Y-100799598D01*
X420750000Y-83500000D02*
X420750000Y-78500000D01*
X422775000Y-76475000D02*
X422775000Y-76448701D01*
X423474198Y-75749503D02*
X423500000Y-75749503D01*
X435975000Y-98725000D02*
X420750000Y-83500000D01*
X435975000Y-100799598D02*
X435975000Y-98725000D01*
X420750000Y-78500000D02*
X422775000Y-76475000D01*
%TO.N,W_ADC*%
X436750000Y-98500000D02*
X421500000Y-83250000D01*
X421500000Y-78750000D02*
X423500000Y-76750000D01*
X436250000Y-102250000D02*
X436750000Y-101750000D01*
X436750000Y-101750000D02*
X436750000Y-98500000D01*
X423500000Y-76750000D02*
X423500000Y-76749006D01*
X421500000Y-83250000D02*
X421500000Y-78750000D01*
%TO.N,VBUS_ADC*%
X438750000Y-105500000D02*
X439750000Y-104500000D01*
X439750000Y-97500000D02*
X438750000Y-96500000D01*
X439750000Y-103500000D02*
X439750000Y-97500000D01*
X438750000Y-96500000D02*
X426775970Y-84525970D01*
X439750000Y-104500000D02*
X439750000Y-103500000D01*
X426775970Y-84525970D02*
X426775970Y-78902289D01*
%TO.N,BOARD_TEMP_1_ADC*%
X419250000Y-84000000D02*
X420250000Y-85000000D01*
X427550500Y-103050500D02*
X428725000Y-104225000D01*
X428725000Y-104225000D02*
X428725000Y-134275000D01*
X418500000Y-80250000D02*
X418525305Y-80250000D01*
X431949061Y-97126244D02*
X427550500Y-101524805D01*
X423000000Y-135000000D02*
X423000000Y-134000000D01*
X431949061Y-96475634D02*
X431949061Y-97126244D01*
X419250000Y-80974695D02*
X419250000Y-84000000D01*
X418525305Y-80250000D02*
X419250000Y-80974695D01*
X420473427Y-85000000D02*
X431949061Y-96475634D01*
X427550500Y-101524805D02*
X427550500Y-103050500D01*
X426000000Y-137000000D02*
X425000000Y-137000000D01*
X425000000Y-137000000D02*
X423000000Y-135000000D01*
X420250000Y-85000000D02*
X420473427Y-85000000D01*
X428725000Y-134275000D02*
X426000000Y-137000000D01*
D33*
%TO.N,VBUS -5V*%
X403750000Y-120500000D02*
X403000000Y-119750000D01*
X403000000Y-116250000D02*
X391250000Y-104500000D01*
X404000000Y-158750000D02*
X402750000Y-157500000D01*
X399404810Y-189904810D02*
X399404810Y-178095190D01*
X400000000Y-151750000D02*
X400000000Y-140750000D01*
X404614976Y-213503565D02*
X402750000Y-211638589D01*
X403000000Y-119750000D02*
X403000000Y-116250000D01*
X403750000Y-128750000D02*
X403750000Y-120500000D01*
X402750000Y-174850000D02*
X402750000Y-169000000D01*
X402750000Y-157500000D02*
X402750000Y-154500000D01*
X404500000Y-136250000D02*
X402500000Y-134250000D01*
X400000000Y-140750000D02*
X404500000Y-136250000D01*
X402500000Y-134250000D02*
X402500000Y-130000000D01*
X404000000Y-167750000D02*
X404000000Y-158750000D01*
X402650000Y-174850000D02*
X404650000Y-174850000D01*
X404650000Y-174850000D02*
X402750000Y-174850000D01*
X402750000Y-193250000D02*
X399404810Y-189904810D01*
X381500000Y-104500000D02*
X380000000Y-103000000D01*
X399404810Y-178095190D02*
X402650000Y-174850000D01*
X402750000Y-154500000D02*
X400000000Y-151750000D01*
X402750000Y-211638589D02*
X402750000Y-193250000D01*
X402500000Y-130000000D02*
X403750000Y-128750000D01*
X391250000Y-104500000D02*
X381500000Y-104500000D01*
X402750000Y-169000000D02*
X404000000Y-167750000D01*
D35*
%TO.N,RX-*%
X335000000Y-60000000D02*
X332835000Y-60000000D01*
X332835000Y-60000000D02*
X331930000Y-59095000D01*
%TO.N,TX+*%
X338000000Y-56250000D02*
X338085000Y-56335000D01*
X338085000Y-56335000D02*
X338085000Y-62665000D01*
X338085000Y-62665000D02*
X335750000Y-65000000D01*
%TO.N,TX_EN_ISO*%
X349737701Y-59012299D02*
X349737701Y-59737701D01*
X349737701Y-59737701D02*
X353000000Y-63000000D01*
X362836701Y-63500000D02*
X375500000Y-63500000D01*
X362336701Y-63000000D02*
X362836701Y-63500000D01*
X353000000Y-63000000D02*
X362336701Y-63000000D01*
X375500000Y-63500000D02*
X375750000Y-63750000D01*
%TO.N,RX*%
X386750000Y-75500000D02*
X395500000Y-66750000D01*
X424999503Y-70749503D02*
X425250000Y-70749503D01*
X369250000Y-75500000D02*
X386750000Y-75500000D01*
X395500000Y-66750000D02*
X421000000Y-66750000D01*
X421000000Y-66750000D02*
X424999503Y-70749503D01*
X369000000Y-75250000D02*
X369250000Y-75500000D01*
%TO.N,TX*%
X386000000Y-75000000D02*
X395175000Y-65825000D01*
X370750000Y-75000000D02*
X386000000Y-75000000D01*
X421325000Y-65825000D02*
X425250000Y-69750000D01*
X395175000Y-65825000D02*
X421325000Y-65825000D01*
X370250000Y-74500000D02*
X370750000Y-75000000D01*
%TO.N,TACH_1*%
X420250000Y-69250000D02*
X396250000Y-69250000D01*
X395500000Y-70000000D02*
X388500000Y-77000000D01*
X385050500Y-77449500D02*
X375199500Y-77449500D01*
X425234699Y-73783021D02*
X424783021Y-73783021D01*
X375199500Y-77449500D02*
X374500000Y-76750000D01*
X396250000Y-69250000D02*
X395500000Y-70000000D01*
X388500000Y-77000000D02*
X385500000Y-77000000D01*
X385500000Y-77000000D02*
X385050500Y-77449500D01*
X424783021Y-73783021D02*
X420250000Y-69250000D01*
%TO.N,TX_EN*%
X375705500Y-76000000D02*
X387500000Y-76000000D01*
X395750000Y-67750000D02*
X420750000Y-67750000D01*
X420750000Y-67750000D02*
X424750000Y-71750000D01*
X387500000Y-76000000D02*
X395750000Y-67750000D01*
X424750000Y-71750000D02*
X425250000Y-71750000D01*
X375481000Y-76224500D02*
X375705500Y-76000000D01*
%TO.N,TACH_2*%
X380949500Y-76500000D02*
X388000000Y-76500000D01*
X388000000Y-76500000D02*
X396000000Y-68500000D01*
X380725000Y-76724500D02*
X380949500Y-76500000D01*
X396000000Y-68500000D02*
X420500000Y-68500000D01*
X424762299Y-72762299D02*
X425237701Y-72762299D01*
X420500000Y-68500000D02*
X424762299Y-72762299D01*
%TO.N,FAN_PWM*%
X402924000Y-61076000D02*
X402500000Y-61500000D01*
X427250000Y-61076000D02*
X402924000Y-61076000D01*
%TO.N,FAN_PWM_ISO*%
X368000000Y-61500000D02*
X364750000Y-58250000D01*
X380000000Y-61500000D02*
X368000000Y-61500000D01*
X381750000Y-63250000D02*
X380000000Y-61500000D01*
X364750000Y-58250000D02*
X364500000Y-58250000D01*
%TO.N,TACH_2_ISO*%
X380500000Y-63250000D02*
X380225000Y-62975000D01*
X368125000Y-62975000D02*
X359750000Y-54600000D01*
X380225000Y-62975000D02*
X368125000Y-62975000D01*
%TO.N,Net-(D20-K)*%
X411750000Y-115450000D02*
X407550000Y-111250000D01*
X407550000Y-111250000D02*
X407550000Y-108850000D01*
X412450000Y-124550000D02*
X413950000Y-123050000D01*
X412450000Y-124650000D02*
X412450000Y-124550000D01*
X413950000Y-117650000D02*
X411750000Y-115450000D01*
X413950000Y-123050000D02*
X413950000Y-117650000D01*
%TO.N,Net-(D20-A)*%
X406350000Y-106250000D02*
X406350000Y-105750000D01*
X406350000Y-105750000D02*
X405201305Y-104601305D01*
%TO.N,SWCLK*%
X426000000Y-55000000D02*
X425880000Y-55120000D01*
X422350000Y-55120000D02*
X420985000Y-56485000D01*
X425880000Y-55120000D02*
X422350000Y-55120000D01*
D33*
%TO.N,-5V*%
X405430603Y-146891352D02*
X405430603Y-155430603D01*
X403748310Y-108376289D02*
X403832874Y-108376289D01*
X403832874Y-108376289D02*
X407100000Y-111643415D01*
X405395579Y-185544917D02*
X403718096Y-185544917D01*
X405430603Y-146891352D02*
X403753120Y-146891352D01*
X407714810Y-183225686D02*
X405395579Y-185544917D01*
X407750000Y-123747918D02*
X407750000Y-144571955D01*
X407100000Y-123097918D02*
X407750000Y-123747918D01*
X397622021Y-102250000D02*
X391750000Y-102250000D01*
X405430603Y-155430603D02*
X407714810Y-157714810D01*
X407714810Y-157714810D02*
X407714810Y-183225686D01*
X407750000Y-144571955D02*
X405430603Y-146891352D01*
X391750000Y-102250000D02*
X390500000Y-101000000D01*
X403748310Y-108376289D02*
X397622021Y-102250000D01*
X407100000Y-111643415D02*
X407100000Y-123097918D01*
D35*
%TO.N,BOOT*%
X428000000Y-67500000D02*
X428000000Y-64250000D01*
X428000000Y-64250000D02*
X429000000Y-63250000D01*
%TO.N,STO CH1*%
X425000000Y-156250000D02*
X425000000Y-147750000D01*
X406224500Y-79250000D02*
X371000000Y-79250000D01*
X425500000Y-136250000D02*
X425500000Y-132500000D01*
X406750000Y-78724500D02*
X406224500Y-79250000D01*
X427500000Y-179250000D02*
X427500000Y-171250000D01*
X371000000Y-79250000D02*
X368250000Y-82000000D01*
X408474500Y-78724500D02*
X409500000Y-79750000D01*
X409500000Y-86025305D02*
X424236994Y-100762299D01*
X425500000Y-117250000D02*
X425750000Y-117500000D01*
X344500000Y-94750000D02*
X334250000Y-94750000D01*
X406750000Y-78724500D02*
X408474500Y-78724500D01*
X425500000Y-109500000D02*
X425500000Y-117250000D01*
X425500000Y-132500000D02*
X425750000Y-132250000D01*
X409500000Y-79750000D02*
X409500000Y-86025305D01*
X424236994Y-100762299D02*
X424762299Y-100762299D01*
%TO.N,STO EN*%
X414250000Y-62525000D02*
X430525000Y-62525000D01*
X367500000Y-76750000D02*
X369545000Y-78795000D01*
X430525000Y-62525000D02*
X430750000Y-62750000D01*
X401053833Y-78000000D02*
X413750000Y-78000000D01*
X350000000Y-95250000D02*
X354750000Y-95250000D01*
X400258833Y-78795000D02*
X401053833Y-78000000D01*
X369545000Y-78795000D02*
X400258833Y-78795000D01*
X413750000Y-78000000D02*
X414250000Y-78500000D01*
%TO.N,STO CH2*%
X408500000Y-80000000D02*
X408250000Y-79750000D01*
X372000000Y-79750000D02*
X369000000Y-82750000D01*
X438525500Y-72750000D02*
X438750000Y-72750000D01*
X435025500Y-76250000D02*
X438525500Y-72750000D01*
X408250000Y-79750000D02*
X372000000Y-79750000D01*
%TO.N,Net-(D19-K)*%
X412454810Y-163065063D02*
X413954810Y-161565063D01*
X407554810Y-149765063D02*
X407554810Y-147365063D01*
X413954810Y-161565063D02*
X413954810Y-156165063D01*
X411754810Y-153965063D02*
X407554810Y-149765063D01*
X412454810Y-163165063D02*
X412454810Y-163065063D01*
X413954810Y-156165063D02*
X411754810Y-153965063D01*
%TO.N,Net-(D19-A)*%
X406354810Y-144765063D02*
X406354810Y-144265063D01*
X406354810Y-144265063D02*
X405206115Y-143116368D01*
%TO.N,Net-(D24-K)*%
X407519786Y-188418628D02*
X407519786Y-186018628D01*
X413919786Y-194818628D02*
X411719786Y-192618628D01*
X412419786Y-201718628D02*
X413919786Y-200218628D01*
X412419786Y-201818628D02*
X412419786Y-201718628D01*
X413919786Y-200218628D02*
X413919786Y-194818628D01*
X411719786Y-192618628D02*
X407519786Y-188418628D01*
%TO.N,Net-(D24-A)*%
X406319786Y-182918628D02*
X405171091Y-181769933D01*
X406319786Y-183418628D02*
X406319786Y-182918628D01*
%TO.N,STO CH1 MCU FBK*%
X408449500Y-61800500D02*
X430000000Y-61800500D01*
X408250000Y-62000000D02*
X408449500Y-61800500D01*
D33*
%TO.N,STO FBK OUT*%
X331250000Y-75750000D02*
X333000000Y-74000000D01*
X329000000Y-78000000D02*
X326275000Y-78000000D01*
X333000000Y-74000000D02*
X338500000Y-74000000D01*
X331250000Y-75750000D02*
X329000000Y-78000000D01*
D34*
%TO.N,UM*%
X341000000Y-226000000D02*
X358000000Y-226000000D01*
X365010069Y-232989931D02*
X368650000Y-232989931D01*
X341000000Y-226000000D02*
X326275000Y-211275000D01*
X326275000Y-211275000D02*
X326275000Y-210100000D01*
X358000000Y-226000000D02*
X365000000Y-233000000D01*
X365000000Y-233000000D02*
X365010069Y-232989931D01*
%TO.N,VM*%
X368650000Y-237989931D02*
X363989931Y-237989931D01*
X320775000Y-212275000D02*
X320775000Y-210100000D01*
X356000000Y-230000000D02*
X338500000Y-230000000D01*
X363989931Y-237989931D02*
X356000000Y-230000000D01*
X320775000Y-210100000D02*
X320775000Y-210775000D01*
X338500000Y-230000000D02*
X320775000Y-212275000D01*
%TO.N,WM*%
X360000000Y-222000000D02*
X342375000Y-222000000D01*
X368650000Y-228000000D02*
X366000000Y-228000000D01*
X342375000Y-222000000D02*
X326275000Y-205900000D01*
X366000000Y-228000000D02*
X360000000Y-222000000D01*
D35*
%TO.N,Net-(U22-IN)*%
X429500000Y-82000000D02*
X429500000Y-75775500D01*
X429750000Y-95750000D02*
X428000000Y-94000000D01*
X428000000Y-94000000D02*
X427250000Y-94000000D01*
X429500000Y-75775500D02*
X429525500Y-75750000D01*
D33*
%TO.N,STO CH1 FIELD*%
X320775000Y-73225000D02*
X322500000Y-71500000D01*
X343750000Y-71500000D02*
X344500000Y-72250000D01*
X347750000Y-75500000D02*
X354250000Y-75500000D01*
X320775000Y-73800000D02*
X320775000Y-73225000D01*
X344500000Y-72250000D02*
X347750000Y-75500000D01*
X322500000Y-71500000D02*
X343750000Y-71500000D01*
%TO.N,STO CH2 FIELD*%
X333250000Y-80000000D02*
X337750000Y-75500000D01*
X320775000Y-78000000D02*
X322775000Y-80000000D01*
X329000000Y-80000000D02*
X333250000Y-80000000D01*
X322775000Y-80000000D02*
X329000000Y-80000000D01*
X337750000Y-75500000D02*
X343000000Y-75500000D01*
D34*
%TO.N,Net-(J8-Pad14)*%
X323666660Y-66895000D02*
X322145000Y-66895000D01*
X318000000Y-62750000D02*
X318000000Y-62250000D01*
X325555000Y-56555000D02*
X327250000Y-58250000D01*
X325326000Y-65235660D02*
X323666660Y-66895000D01*
X325326000Y-56555000D02*
X325555000Y-56555000D01*
X322145000Y-66895000D02*
X318000000Y-62750000D01*
X327250000Y-58250000D02*
X327250000Y-62251000D01*
X318000000Y-62250000D02*
X318000000Y-61250000D01*
X327250000Y-62251000D02*
X325326000Y-64175000D01*
X325326000Y-64175000D02*
X325326000Y-65235660D01*
D35*
%TO.N,Net-(U1-P07)*%
X326020000Y-103000000D02*
X329250000Y-103000000D01*
X324570000Y-101550000D02*
X326020000Y-103000000D01*
%TO.N,Net-(U1-P06)*%
X324570000Y-99010000D02*
X327584279Y-102024279D01*
X327584279Y-102024279D02*
X329524278Y-102024279D01*
%TO.N,Net-(U1-P05)*%
X332560395Y-101390921D02*
X332419474Y-101250000D01*
X329350000Y-101250000D02*
X324570000Y-96470000D01*
X332419474Y-101250000D02*
X329350000Y-101250000D01*
%TO.N,Net-(U1-P04)*%
X326430000Y-93930000D02*
X332750000Y-100250000D01*
X324570000Y-93930000D02*
X326430000Y-93930000D01*
%TO.N,SDA*%
X426500000Y-63250000D02*
X425775000Y-63975000D01*
X425775000Y-63975000D02*
X422725000Y-63975000D01*
X341500000Y-99500000D02*
X338250000Y-99500000D01*
X422000000Y-63250000D02*
X420750000Y-63250000D01*
X338250000Y-99500000D02*
X335250000Y-96500000D01*
X420750000Y-63250000D02*
X402500000Y-63250000D01*
X422725000Y-63975000D02*
X422000000Y-63250000D01*
%TO.N,SDL*%
X341500000Y-101000000D02*
X338250000Y-101000000D01*
X421750000Y-64000000D02*
X403250000Y-64000000D01*
X426025500Y-64654612D02*
X422404612Y-64654612D01*
X422404612Y-64654612D02*
X421750000Y-64000000D01*
X338250000Y-101000000D02*
X335250000Y-98000000D01*
%TD*%
%TA.AperFunction,Conductor*%
%TO.N,GND*%
G36*
X448564539Y-51675813D02*
G01*
X448610294Y-51728617D01*
X448621500Y-51780128D01*
X448621500Y-251145128D01*
X448601815Y-251212167D01*
X448549011Y-251257922D01*
X448497500Y-251269128D01*
X310374500Y-251269128D01*
X310307461Y-251249443D01*
X310261706Y-251196639D01*
X310250500Y-251145128D01*
X310250500Y-208131187D01*
X311724500Y-208131187D01*
X311739451Y-208230372D01*
X311763604Y-208390615D01*
X311763605Y-208390617D01*
X311763606Y-208390623D01*
X311840938Y-208641326D01*
X311954767Y-208877696D01*
X311954768Y-208877697D01*
X311954770Y-208877700D01*
X311954772Y-208877704D01*
X312100547Y-209091516D01*
X312102567Y-209094479D01*
X312281014Y-209286801D01*
X312281018Y-209286804D01*
X312281019Y-209286805D01*
X312486143Y-209450386D01*
X312713357Y-209581568D01*
X312957584Y-209677420D01*
X313213370Y-209735802D01*
X313213376Y-209735802D01*
X313213379Y-209735803D01*
X313409500Y-209750500D01*
X313409506Y-209750500D01*
X313540500Y-209750500D01*
X313736620Y-209735803D01*
X313736622Y-209735802D01*
X313736630Y-209735802D01*
X313992416Y-209677420D01*
X314236643Y-209581568D01*
X314463857Y-209450386D01*
X314668981Y-209286805D01*
X314847433Y-209094479D01*
X314995228Y-208877704D01*
X315009917Y-208847203D01*
X315090116Y-208680666D01*
X315109063Y-208641323D01*
X315186396Y-208390615D01*
X315225500Y-208131182D01*
X315225500Y-207868818D01*
X315186396Y-207609385D01*
X315109063Y-207358677D01*
X315097121Y-207333880D01*
X314995232Y-207122303D01*
X314995231Y-207122302D01*
X314995230Y-207122301D01*
X314995228Y-207122296D01*
X314847433Y-206905521D01*
X314811300Y-206866579D01*
X314668985Y-206713198D01*
X314559234Y-206625675D01*
X314463857Y-206549614D01*
X314236643Y-206418432D01*
X313992416Y-206322580D01*
X313992411Y-206322578D01*
X313992402Y-206322576D01*
X313774818Y-206272914D01*
X313736630Y-206264198D01*
X313736629Y-206264197D01*
X313736625Y-206264197D01*
X313736620Y-206264196D01*
X313540500Y-206249500D01*
X313540494Y-206249500D01*
X313409506Y-206249500D01*
X313409500Y-206249500D01*
X313213379Y-206264196D01*
X313213374Y-206264197D01*
X312957597Y-206322576D01*
X312957578Y-206322582D01*
X312713356Y-206418432D01*
X312486143Y-206549614D01*
X312281014Y-206713198D01*
X312102567Y-206905520D01*
X311954768Y-207122302D01*
X311954767Y-207122303D01*
X311840938Y-207358673D01*
X311763606Y-207609376D01*
X311763605Y-207609381D01*
X311763604Y-207609385D01*
X311760042Y-207633020D01*
X311724500Y-207868812D01*
X311724500Y-208131187D01*
X310250500Y-208131187D01*
X310250500Y-181176187D01*
X313724500Y-181176187D01*
X313733775Y-181237717D01*
X313763604Y-181435615D01*
X313763605Y-181435617D01*
X313763606Y-181435623D01*
X313840938Y-181686326D01*
X313954767Y-181922696D01*
X313954768Y-181922697D01*
X313954770Y-181922700D01*
X313954772Y-181922704D01*
X314102567Y-182139478D01*
X314102567Y-182139479D01*
X314281014Y-182331801D01*
X314281018Y-182331804D01*
X314281019Y-182331805D01*
X314486143Y-182495386D01*
X314713357Y-182626568D01*
X314957584Y-182722420D01*
X315213370Y-182780802D01*
X315213376Y-182780802D01*
X315213379Y-182780803D01*
X315409500Y-182795500D01*
X315409506Y-182795500D01*
X315540500Y-182795500D01*
X315736620Y-182780803D01*
X315736622Y-182780802D01*
X315736630Y-182780802D01*
X315992416Y-182722420D01*
X316236643Y-182626568D01*
X316463857Y-182495386D01*
X316668981Y-182331805D01*
X316847433Y-182139479D01*
X316995228Y-181922704D01*
X317109063Y-181686323D01*
X317186396Y-181435615D01*
X317225500Y-181176182D01*
X317225500Y-180913818D01*
X317186396Y-180654385D01*
X317109063Y-180403677D01*
X317053622Y-180288552D01*
X316995232Y-180167303D01*
X316995231Y-180167302D01*
X316995230Y-180167301D01*
X316995228Y-180167296D01*
X316847433Y-179950521D01*
X316837441Y-179939753D01*
X316668985Y-179758198D01*
X316629533Y-179726736D01*
X316463857Y-179594614D01*
X316236643Y-179463432D01*
X315992416Y-179367580D01*
X315992411Y-179367578D01*
X315992402Y-179367576D01*
X315774818Y-179317914D01*
X315736630Y-179309198D01*
X315736629Y-179309197D01*
X315736625Y-179309197D01*
X315736620Y-179309196D01*
X315540500Y-179294500D01*
X315540494Y-179294500D01*
X315409506Y-179294500D01*
X315409500Y-179294500D01*
X315213379Y-179309196D01*
X315213374Y-179309197D01*
X314957597Y-179367576D01*
X314957578Y-179367582D01*
X314713356Y-179463432D01*
X314486143Y-179594614D01*
X314281014Y-179758198D01*
X314102567Y-179950520D01*
X313954768Y-180167302D01*
X313954767Y-180167303D01*
X313840938Y-180403673D01*
X313763606Y-180654376D01*
X313763605Y-180654381D01*
X313763604Y-180654385D01*
X313748853Y-180752247D01*
X313724500Y-180913812D01*
X313724500Y-181176187D01*
X310250500Y-181176187D01*
X310250500Y-164076187D01*
X313724500Y-164076187D01*
X313744794Y-164210823D01*
X313763604Y-164335615D01*
X313763605Y-164335617D01*
X313763606Y-164335623D01*
X313840938Y-164586326D01*
X313954767Y-164822696D01*
X313954768Y-164822697D01*
X313954770Y-164822700D01*
X313954772Y-164822704D01*
X313973251Y-164849807D01*
X314102567Y-165039479D01*
X314281014Y-165231801D01*
X314281018Y-165231804D01*
X314281019Y-165231805D01*
X314486143Y-165395386D01*
X314713357Y-165526568D01*
X314957584Y-165622420D01*
X315213370Y-165680802D01*
X315213376Y-165680802D01*
X315213379Y-165680803D01*
X315409500Y-165695500D01*
X315409506Y-165695500D01*
X315540500Y-165695500D01*
X315736620Y-165680803D01*
X315736622Y-165680802D01*
X315736630Y-165680802D01*
X315992416Y-165622420D01*
X316236643Y-165526568D01*
X316463857Y-165395386D01*
X316668981Y-165231805D01*
X316847433Y-165039479D01*
X316995228Y-164822704D01*
X317109063Y-164586323D01*
X317186396Y-164335615D01*
X317225500Y-164076182D01*
X317225500Y-163813818D01*
X317186396Y-163554385D01*
X317109063Y-163303677D01*
X317013066Y-163104336D01*
X316995232Y-163067303D01*
X316995231Y-163067302D01*
X316995230Y-163067301D01*
X316995228Y-163067296D01*
X316847433Y-162850521D01*
X316770150Y-162767229D01*
X316668985Y-162658198D01*
X316520078Y-162539449D01*
X316463857Y-162494614D01*
X316236643Y-162363432D01*
X315992416Y-162267580D01*
X315992411Y-162267578D01*
X315992402Y-162267576D01*
X315774818Y-162217914D01*
X315736630Y-162209198D01*
X315736629Y-162209197D01*
X315736625Y-162209197D01*
X315736620Y-162209196D01*
X315540500Y-162194500D01*
X315540494Y-162194500D01*
X315409506Y-162194500D01*
X315409500Y-162194500D01*
X315213379Y-162209196D01*
X315213374Y-162209197D01*
X314957597Y-162267576D01*
X314957578Y-162267582D01*
X314713356Y-162363432D01*
X314486143Y-162494614D01*
X314281014Y-162658198D01*
X314102567Y-162850520D01*
X313954768Y-163067302D01*
X313954767Y-163067303D01*
X313840938Y-163303673D01*
X313763606Y-163554376D01*
X313763605Y-163554381D01*
X313763604Y-163554385D01*
X313761311Y-163569601D01*
X313724500Y-163813812D01*
X313724500Y-164076187D01*
X310250500Y-164076187D01*
X310250500Y-143631187D01*
X313699500Y-143631187D01*
X313707528Y-143684445D01*
X313738604Y-143890615D01*
X313738605Y-143890617D01*
X313738606Y-143890623D01*
X313815938Y-144141326D01*
X313929767Y-144377696D01*
X313929768Y-144377697D01*
X313929770Y-144377700D01*
X313929772Y-144377704D01*
X314054767Y-144561037D01*
X314077567Y-144594479D01*
X314256014Y-144786801D01*
X314256018Y-144786804D01*
X314256019Y-144786805D01*
X314461143Y-144950386D01*
X314688357Y-145081568D01*
X314932584Y-145177420D01*
X315188370Y-145235802D01*
X315188376Y-145235802D01*
X315188379Y-145235803D01*
X315384500Y-145250500D01*
X315384506Y-145250500D01*
X315515500Y-145250500D01*
X315711620Y-145235803D01*
X315711622Y-145235802D01*
X315711630Y-145235802D01*
X315967416Y-145177420D01*
X316211643Y-145081568D01*
X316438857Y-144950386D01*
X316643981Y-144786805D01*
X316822433Y-144594479D01*
X316970228Y-144377704D01*
X317084063Y-144141323D01*
X317161396Y-143890615D01*
X317200500Y-143631182D01*
X317200500Y-143368818D01*
X317161396Y-143109385D01*
X317084063Y-142858677D01*
X317068441Y-142826238D01*
X316970232Y-142622303D01*
X316970231Y-142622302D01*
X316970230Y-142622301D01*
X316970228Y-142622296D01*
X316822433Y-142405521D01*
X316754417Y-142332217D01*
X316643985Y-142213198D01*
X316604533Y-142181736D01*
X316438857Y-142049614D01*
X316211643Y-141918432D01*
X315967416Y-141822580D01*
X315967411Y-141822578D01*
X315967402Y-141822576D01*
X315749818Y-141772914D01*
X315711630Y-141764198D01*
X315711629Y-141764197D01*
X315711625Y-141764197D01*
X315711620Y-141764196D01*
X315515500Y-141749500D01*
X315515494Y-141749500D01*
X315384506Y-141749500D01*
X315384500Y-141749500D01*
X315188379Y-141764196D01*
X315188374Y-141764197D01*
X314932597Y-141822576D01*
X314932578Y-141822582D01*
X314688356Y-141918432D01*
X314461143Y-142049614D01*
X314256014Y-142213198D01*
X314077567Y-142405520D01*
X313929768Y-142622302D01*
X313929767Y-142622303D01*
X313815938Y-142858673D01*
X313738606Y-143109376D01*
X313738605Y-143109381D01*
X313738604Y-143109385D01*
X313723853Y-143207247D01*
X313699500Y-143368812D01*
X313699500Y-143631187D01*
X310250500Y-143631187D01*
X310250500Y-129131187D01*
X313724500Y-129131187D01*
X313732310Y-129183000D01*
X313763604Y-129390615D01*
X313763605Y-129390617D01*
X313763606Y-129390623D01*
X313840938Y-129641326D01*
X313954767Y-129877696D01*
X313954768Y-129877697D01*
X313954770Y-129877700D01*
X313954772Y-129877704D01*
X314025350Y-129981222D01*
X314102567Y-130094479D01*
X314281014Y-130286801D01*
X314281018Y-130286804D01*
X314281019Y-130286805D01*
X314486143Y-130450386D01*
X314713357Y-130581568D01*
X314957584Y-130677420D01*
X315213370Y-130735802D01*
X315213376Y-130735802D01*
X315213379Y-130735803D01*
X315409500Y-130750500D01*
X315409506Y-130750500D01*
X315540500Y-130750500D01*
X315736620Y-130735803D01*
X315736622Y-130735802D01*
X315736630Y-130735802D01*
X315992416Y-130677420D01*
X316236643Y-130581568D01*
X316463857Y-130450386D01*
X316668981Y-130286805D01*
X316847433Y-130094479D01*
X316995228Y-129877704D01*
X317109063Y-129641323D01*
X317186396Y-129390615D01*
X317225500Y-129131182D01*
X317225500Y-128868818D01*
X317186396Y-128609385D01*
X317109063Y-128358677D01*
X317041632Y-128218655D01*
X316995232Y-128122303D01*
X316995231Y-128122302D01*
X316995230Y-128122301D01*
X316995228Y-128122296D01*
X316847433Y-127905521D01*
X316837441Y-127894753D01*
X316668985Y-127713198D01*
X316598354Y-127656872D01*
X316463857Y-127549614D01*
X316236643Y-127418432D01*
X315992416Y-127322580D01*
X315992411Y-127322578D01*
X315992402Y-127322576D01*
X315774818Y-127272914D01*
X315736630Y-127264198D01*
X315736629Y-127264197D01*
X315736625Y-127264197D01*
X315736620Y-127264196D01*
X315540500Y-127249500D01*
X315540494Y-127249500D01*
X315409506Y-127249500D01*
X315409500Y-127249500D01*
X315213379Y-127264196D01*
X315213374Y-127264197D01*
X314957597Y-127322576D01*
X314957578Y-127322582D01*
X314713356Y-127418432D01*
X314486143Y-127549614D01*
X314281014Y-127713198D01*
X314102567Y-127905520D01*
X313954768Y-128122302D01*
X313954767Y-128122303D01*
X313840938Y-128358673D01*
X313763606Y-128609376D01*
X313763605Y-128609381D01*
X313763604Y-128609385D01*
X313748853Y-128707247D01*
X313724500Y-128868812D01*
X313724500Y-129131187D01*
X310250500Y-129131187D01*
X310250500Y-113624000D01*
X310270185Y-113556961D01*
X310322989Y-113511206D01*
X310374500Y-113500000D01*
X318376000Y-113500000D01*
X318443039Y-113519685D01*
X318488794Y-113572489D01*
X318500000Y-113623999D01*
X318500000Y-178500000D01*
X330376000Y-178500000D01*
X330443039Y-178519685D01*
X330488794Y-178572489D01*
X330500000Y-178624000D01*
X330500000Y-184376000D01*
X330480315Y-184443039D01*
X330427511Y-184488794D01*
X330376000Y-184500000D01*
X318500000Y-184500000D01*
X318500000Y-205351153D01*
X318493359Y-205391189D01*
X318479883Y-205430688D01*
X318479881Y-205430699D01*
X318430681Y-205697068D01*
X318430680Y-205697075D01*
X318420787Y-205967763D01*
X318449739Y-206230883D01*
X318450414Y-206237018D01*
X318489552Y-206386723D01*
X318495968Y-206411264D01*
X318500000Y-206442628D01*
X318500000Y-208632130D01*
X318490877Y-208673287D01*
X318492458Y-208673811D01*
X318490187Y-208680664D01*
X318490186Y-208680666D01*
X318435001Y-208847203D01*
X318435001Y-208847204D01*
X318435000Y-208847204D01*
X318424500Y-208949984D01*
X318424500Y-211250015D01*
X318435000Y-211352795D01*
X318435001Y-211352797D01*
X318490186Y-211519334D01*
X318492458Y-211526190D01*
X318490875Y-211526714D01*
X318500000Y-211567870D01*
X318500000Y-240500000D01*
X321000000Y-242500000D01*
X362948638Y-242500000D01*
X363015677Y-242519685D01*
X363036319Y-242536319D01*
X366000000Y-245500000D01*
X366655750Y-245500000D01*
X366722789Y-245519685D01*
X366757541Y-245559791D01*
X366779750Y-245582000D01*
X385463749Y-245582000D01*
X385463750Y-245582000D01*
X385463749Y-245581998D01*
X385481214Y-245564530D01*
X385483429Y-245556983D01*
X385536223Y-245511217D01*
X385587759Y-245500000D01*
X389500000Y-245500000D01*
X392463681Y-242536319D01*
X392525004Y-242502834D01*
X392551362Y-242500000D01*
X438500000Y-242500000D01*
X440500000Y-240500000D01*
X440500000Y-51780128D01*
X440519685Y-51713089D01*
X440572489Y-51667334D01*
X440624000Y-51656128D01*
X448497500Y-51656128D01*
X448564539Y-51675813D01*
G37*
%TD.AperFunction*%
%TD*%
M02*
