%TF.GenerationSoftware,KiCad,Pcbnew,7.0.7*%
%TF.CreationDate,2023-10-22T18:31:29-04:00*%
%TF.ProjectId,HV servo drive v1,48562073-6572-4766-9f20-647269766520,rev?*%
%TF.SameCoordinates,Original*%
%TF.FileFunction,Soldermask,Top*%
%TF.FilePolarity,Negative*%
%FSLAX46Y46*%
G04 Gerber Fmt 4.6, Leading zero omitted, Abs format (unit mm)*
G04 Created by KiCad (PCBNEW 7.0.7) date 2023-10-22 18:31:29*
%MOMM*%
%LPD*%
G01*
G04 APERTURE LIST*
G04 Aperture macros list*
%AMRoundRect*
0 Rectangle with rounded corners*
0 $1 Rounding radius*
0 $2 $3 $4 $5 $6 $7 $8 $9 X,Y pos of 4 corners*
0 Add a 4 corners polygon primitive as box body*
4,1,4,$2,$3,$4,$5,$6,$7,$8,$9,$2,$3,0*
0 Add four circle primitives for the rounded corners*
1,1,$1+$1,$2,$3*
1,1,$1+$1,$4,$5*
1,1,$1+$1,$6,$7*
1,1,$1+$1,$8,$9*
0 Add four rect primitives between the rounded corners*
20,1,$1+$1,$2,$3,$4,$5,0*
20,1,$1+$1,$4,$5,$6,$7,0*
20,1,$1+$1,$6,$7,$8,$9,0*
20,1,$1+$1,$8,$9,$2,$3,0*%
%AMRotRect*
0 Rectangle, with rotation*
0 The origin of the aperture is its center*
0 $1 length*
0 $2 width*
0 $3 Rotation angle, in degrees counterclockwise*
0 Add horizontal line*
21,1,$1,$2,0,0,$3*%
G04 Aperture macros list end*
%ADD10R,3.200000X1.600000*%
%ADD11RoundRect,0.225000X-0.225000X-0.250000X0.225000X-0.250000X0.225000X0.250000X-0.225000X0.250000X0*%
%ADD12RoundRect,0.225000X0.225000X0.250000X-0.225000X0.250000X-0.225000X-0.250000X0.225000X-0.250000X0*%
%ADD13RoundRect,0.225000X-0.250000X0.225000X-0.250000X-0.225000X0.250000X-0.225000X0.250000X0.225000X0*%
%ADD14C,4.000000*%
%ADD15RoundRect,0.250000X0.536362X0.020994X0.286362X0.454006X-0.536362X-0.020994X-0.286362X-0.454006X0*%
%ADD16RoundRect,0.250000X-0.475000X0.250000X-0.475000X-0.250000X0.475000X-0.250000X0.475000X0.250000X0*%
%ADD17RoundRect,0.250000X0.475000X-0.250000X0.475000X0.250000X-0.475000X0.250000X-0.475000X-0.250000X0*%
%ADD18RoundRect,0.225000X0.250000X-0.225000X0.250000X0.225000X-0.250000X0.225000X-0.250000X-0.225000X0*%
%ADD19C,2.000000*%
%ADD20RoundRect,0.250000X0.250000X0.475000X-0.250000X0.475000X-0.250000X-0.475000X0.250000X-0.475000X0*%
%ADD21RoundRect,0.250000X-0.250000X-0.475000X0.250000X-0.475000X0.250000X0.475000X-0.250000X0.475000X0*%
%ADD22RoundRect,0.225000X0.329006X-0.069856X0.104006X0.319856X-0.329006X0.069856X-0.104006X-0.319856X0*%
%ADD23R,4.000000X4.000000*%
%ADD24RoundRect,0.225000X0.225000X0.375000X-0.225000X0.375000X-0.225000X-0.375000X0.225000X-0.375000X0*%
%ADD25RoundRect,0.250000X-1.000000X-0.900000X1.000000X-0.900000X1.000000X0.900000X-1.000000X0.900000X0*%
%ADD26RoundRect,0.225000X0.375000X-0.225000X0.375000X0.225000X-0.375000X0.225000X-0.375000X-0.225000X0*%
%ADD27RoundRect,0.150000X-0.150000X0.587500X-0.150000X-0.587500X0.150000X-0.587500X0.150000X0.587500X0*%
%ADD28C,3.000000*%
%ADD29RoundRect,0.250002X-1.599998X1.599998X-1.599998X-1.599998X1.599998X-1.599998X1.599998X1.599998X0*%
%ADD30C,3.700000*%
%ADD31RoundRect,0.250000X-0.041867X0.697516X-0.583133X0.385016X0.041867X-0.697516X0.583133X-0.385016X0*%
%ADD32RoundRect,0.250000X0.312500X0.625000X-0.312500X0.625000X-0.312500X-0.625000X0.312500X-0.625000X0*%
%ADD33RoundRect,0.200000X-0.200000X-0.275000X0.200000X-0.275000X0.200000X0.275000X-0.200000X0.275000X0*%
%ADD34R,3.352800X5.207000*%
%ADD35RoundRect,0.250000X0.450000X-0.262500X0.450000X0.262500X-0.450000X0.262500X-0.450000X-0.262500X0*%
%ADD36RoundRect,0.250000X-0.262500X-0.450000X0.262500X-0.450000X0.262500X0.450000X-0.262500X0.450000X0*%
%ADD37R,0.558800X1.460500*%
%ADD38R,1.193800X0.304800*%
%ADD39R,0.304800X1.193800*%
%ADD40R,0.904700X0.508000*%
%ADD41R,2.000000X2.000000*%
%ADD42R,1.244600X0.609600*%
%ADD43RoundRect,0.150000X-0.512500X-0.150000X0.512500X-0.150000X0.512500X0.150000X-0.512500X0.150000X0*%
%ADD44R,1.799999X0.599999*%
%ADD45RotRect,1.358900X0.533400X210.000000*%
%ADD46RoundRect,0.150000X-0.150000X0.512500X-0.150000X-0.512500X0.150000X-0.512500X0.150000X0.512500X0*%
%ADD47RoundRect,0.150000X0.825000X0.150000X-0.825000X0.150000X-0.825000X-0.150000X0.825000X-0.150000X0*%
%ADD48O,1.600000X1.600000*%
%ADD49C,1.600000*%
%ADD50RoundRect,0.250000X0.375000X0.850000X-0.375000X0.850000X-0.375000X-0.850000X0.375000X-0.850000X0*%
%ADD51O,1.700000X1.700000*%
%ADD52R,1.700000X1.700000*%
%ADD53RoundRect,0.200000X-0.275000X0.200000X-0.275000X-0.200000X0.275000X-0.200000X0.275000X0.200000X0*%
%ADD54O,3.700000X2.700000*%
%ADD55RoundRect,0.250001X1.599999X-1.099999X1.599999X1.099999X-1.599999X1.099999X-1.599999X-1.099999X0*%
%ADD56RoundRect,0.150000X0.587500X0.150000X-0.587500X0.150000X-0.587500X-0.150000X0.587500X-0.150000X0*%
%ADD57RoundRect,0.150000X0.150000X-0.662500X0.150000X0.662500X-0.150000X0.662500X-0.150000X-0.662500X0*%
%ADD58RoundRect,0.218750X-0.218750X-0.256250X0.218750X-0.256250X0.218750X0.256250X-0.218750X0.256250X0*%
%ADD59RoundRect,0.200000X0.275000X-0.200000X0.275000X0.200000X-0.275000X0.200000X-0.275000X-0.200000X0*%
%ADD60C,5.600000*%
%ADD61C,7.000000*%
%ADD62RoundRect,0.100000X-0.637500X-0.100000X0.637500X-0.100000X0.637500X0.100000X-0.637500X0.100000X0*%
%ADD63R,1.600000X3.200000*%
%ADD64RoundRect,0.250000X-0.625000X0.375000X-0.625000X-0.375000X0.625000X-0.375000X0.625000X0.375000X0*%
%ADD65R,1.346200X1.955800*%
%ADD66RoundRect,0.218750X0.256250X-0.218750X0.256250X0.218750X-0.256250X0.218750X-0.256250X-0.218750X0*%
%ADD67RoundRect,0.200000X0.200000X0.275000X-0.200000X0.275000X-0.200000X-0.275000X0.200000X-0.275000X0*%
%ADD68RoundRect,0.250000X1.000000X0.900000X-1.000000X0.900000X-1.000000X-0.900000X1.000000X-0.900000X0*%
%ADD69RoundRect,0.250000X-0.375000X-0.850000X0.375000X-0.850000X0.375000X0.850000X-0.375000X0.850000X0*%
%ADD70RoundRect,0.250000X2.450000X-0.650000X2.450000X0.650000X-2.450000X0.650000X-2.450000X-0.650000X0*%
%ADD71RoundRect,0.150000X-0.825000X-0.150000X0.825000X-0.150000X0.825000X0.150000X-0.825000X0.150000X0*%
%ADD72RoundRect,0.250000X-0.850000X0.375000X-0.850000X-0.375000X0.850000X-0.375000X0.850000X0.375000X0*%
%ADD73RoundRect,0.150000X0.150000X-0.587500X0.150000X0.587500X-0.150000X0.587500X-0.150000X-0.587500X0*%
%ADD74RoundRect,0.150000X-0.587500X-0.150000X0.587500X-0.150000X0.587500X0.150000X-0.587500X0.150000X0*%
%ADD75RoundRect,0.250001X-1.599999X1.099999X-1.599999X-1.099999X1.599999X-1.099999X1.599999X1.099999X0*%
%ADD76O,4.500000X1.905000*%
%ADD77R,4.500000X1.905000*%
%ADD78C,3.600000*%
%ADD79R,1.600000X1.600000*%
%ADD80O,1.700000X1.850000*%
%ADD81RoundRect,0.250000X-0.600000X-0.675000X0.600000X-0.675000X0.600000X0.675000X-0.600000X0.675000X0*%
%ADD82C,3.200000*%
%ADD83C,1.500000*%
%ADD84R,1.500000X1.500000*%
G04 APERTURE END LIST*
D10*
%TO.C,TP22*%
X434750000Y-54250000D03*
%TD*%
%TO.C,TP21*%
X434750000Y-58000000D03*
%TD*%
D11*
%TO.C,C1*%
X343225000Y-64500000D03*
X344775000Y-64500000D03*
%TD*%
D12*
%TO.C,C3*%
X373525000Y-63250000D03*
X371975000Y-63250000D03*
%TD*%
D13*
%TO.C,C5*%
X367500000Y-72809000D03*
X367500000Y-74359000D03*
%TD*%
%TO.C,C6*%
X373068000Y-72809000D03*
X373068000Y-74359000D03*
%TD*%
%TO.C,C7*%
X378750000Y-72809000D03*
X378750000Y-74359000D03*
%TD*%
D14*
%TO.C,C8*%
X335800000Y-192796000D03*
X356100000Y-192796000D03*
X335800000Y-155296000D03*
X356100000Y-155296000D03*
%TD*%
%TO.C,C9*%
X335800000Y-148296000D03*
X356100000Y-148296000D03*
X335800000Y-110796000D03*
X356100000Y-110796000D03*
%TD*%
D15*
%TO.C,C10*%
X408829810Y-120787787D03*
X407879810Y-119142339D03*
%TD*%
D11*
%TO.C,C11*%
X372931000Y-53956000D03*
X374481000Y-53956000D03*
%TD*%
D12*
%TO.C,C13*%
X374275000Y-59544000D03*
X372725000Y-59544000D03*
%TD*%
D16*
%TO.C,C16*%
X378750000Y-57656000D03*
X378750000Y-59556000D03*
%TD*%
%TO.C,C22*%
X411000000Y-70550000D03*
X411000000Y-72450000D03*
%TD*%
D17*
%TO.C,C24*%
X430750000Y-198650000D03*
X430750000Y-196750000D03*
%TD*%
D18*
%TO.C,C26*%
X385500000Y-94275000D03*
X385500000Y-92725000D03*
%TD*%
D19*
%TO.C,C31*%
X396500000Y-63000000D03*
X386500000Y-63000000D03*
%TD*%
D20*
%TO.C,C37*%
X403600000Y-131250000D03*
X401700000Y-131250000D03*
%TD*%
D21*
%TO.C,C40*%
X401700000Y-136150000D03*
X403600000Y-136150000D03*
%TD*%
D12*
%TO.C,C41*%
X411473750Y-55000000D03*
X409923750Y-55000000D03*
%TD*%
D22*
%TO.C,C45*%
X418237500Y-151971170D03*
X417462500Y-150628830D03*
%TD*%
D23*
%TO.C,C48*%
X321482066Y-235500000D03*
D14*
X331482066Y-235500000D03*
%TD*%
D23*
%TO.C,C49*%
X340982066Y-211500000D03*
D14*
X350982066Y-211500000D03*
%TD*%
D12*
%TO.C,C50*%
X419725000Y-138850000D03*
X418175000Y-138850000D03*
%TD*%
%TO.C,C51*%
X419725000Y-100350000D03*
X418175000Y-100350000D03*
%TD*%
D15*
%TO.C,C53*%
X408829810Y-159287787D03*
X407879810Y-157642339D03*
%TD*%
%TO.C,C54*%
X410579810Y-123818876D03*
X409629810Y-122173428D03*
%TD*%
D22*
%TO.C,C56*%
X411763441Y-160629776D03*
X410988441Y-159287436D03*
%TD*%
%TO.C,C57*%
X410237500Y-157971170D03*
X409462500Y-156628830D03*
%TD*%
%TO.C,C60*%
X407632854Y-153714600D03*
X406857854Y-152372260D03*
%TD*%
%TO.C,C61*%
X411763441Y-122129776D03*
X410988441Y-120787436D03*
%TD*%
D15*
%TO.C,C62*%
X405825000Y-115622724D03*
X404875000Y-113977276D03*
%TD*%
D13*
%TO.C,C64*%
X403450000Y-140675000D03*
X403450000Y-142225000D03*
%TD*%
%TO.C,C65*%
X405150000Y-140675000D03*
X405150000Y-142225000D03*
%TD*%
D22*
%TO.C,C68*%
X418157286Y-190689798D03*
X417382286Y-189347458D03*
%TD*%
D13*
%TO.C,C69*%
X405150000Y-102175000D03*
X405150000Y-103725000D03*
%TD*%
D20*
%TO.C,C70*%
X403569786Y-208418628D03*
X401669786Y-208418628D03*
%TD*%
D21*
%TO.C,C71*%
X401619786Y-213368628D03*
X403519786Y-213368628D03*
%TD*%
D18*
%TO.C,C72*%
X402662500Y-107037500D03*
X402662500Y-105487500D03*
%TD*%
D12*
%TO.C,C73*%
X419644786Y-177568628D03*
X418094786Y-177568628D03*
%TD*%
D15*
%TO.C,C74*%
X404075000Y-112622724D03*
X403125000Y-110977276D03*
%TD*%
%TO.C,C77*%
X410499596Y-201037504D03*
X409549596Y-199392056D03*
%TD*%
%TO.C,C78*%
X408749596Y-198006415D03*
X407799596Y-196360967D03*
%TD*%
%TO.C,C82*%
X405744786Y-192841352D03*
X404794786Y-191195904D03*
%TD*%
%TO.C,C83*%
X403994786Y-189841352D03*
X403044786Y-188195904D03*
%TD*%
D18*
%TO.C,C89*%
X421500000Y-95775000D03*
X421500000Y-94225000D03*
%TD*%
D20*
%TO.C,C90*%
X356700000Y-59000000D03*
X354800000Y-59000000D03*
%TD*%
%TO.C,C91*%
X356700000Y-65750000D03*
X354800000Y-65750000D03*
%TD*%
D16*
%TO.C,C92*%
X369750000Y-54050000D03*
X369750000Y-55950000D03*
%TD*%
%TO.C,C93*%
X380750000Y-57656000D03*
X380750000Y-59556000D03*
%TD*%
D20*
%TO.C,C94*%
X356700000Y-57000000D03*
X354800000Y-57000000D03*
%TD*%
%TO.C,C95*%
X356700000Y-63750000D03*
X354800000Y-63750000D03*
%TD*%
D13*
%TO.C,C96*%
X360580000Y-91445200D03*
X360580000Y-92995200D03*
%TD*%
D17*
%TO.C,C98*%
X347020000Y-75420200D03*
X347020000Y-73520200D03*
%TD*%
%TO.C,C103*%
X402750000Y-88500000D03*
X402750000Y-86600000D03*
%TD*%
D24*
%TO.C,D19*%
X401600000Y-141550000D03*
X398300000Y-141550000D03*
%TD*%
%TO.C,D20*%
X401600000Y-103050000D03*
X398300000Y-103050000D03*
%TD*%
D25*
%TO.C,D22*%
X408700000Y-134950000D03*
X413000000Y-134950000D03*
%TD*%
%TO.C,D23*%
X408619786Y-212168628D03*
X412919786Y-212168628D03*
%TD*%
D26*
%TO.C,D25*%
X358770000Y-75870200D03*
X358770000Y-72570200D03*
%TD*%
D27*
%TO.C,D26*%
X354220000Y-73532700D03*
X352320000Y-73532700D03*
X353270000Y-75407700D03*
%TD*%
%TO.C,D27*%
X344970000Y-73532700D03*
X343070000Y-73532700D03*
X344020000Y-75407700D03*
%TD*%
D28*
%TO.C,J5*%
X315475000Y-163945000D03*
X315475000Y-181045000D03*
D29*
X322775000Y-163945000D03*
D30*
X322775000Y-169645000D03*
X322775000Y-175345000D03*
X322775000Y-181045000D03*
X328275000Y-163945000D03*
X328275000Y-169645000D03*
X328275000Y-175345000D03*
X328275000Y-181045000D03*
%TD*%
D28*
%TO.C,J7*%
X315475000Y-129000000D03*
D29*
X322775000Y-126150000D03*
D30*
X322775000Y-131850000D03*
X328275000Y-126150000D03*
X328275000Y-131850000D03*
%TD*%
D31*
%TO.C,R36*%
X405416562Y-163818750D03*
X402883438Y-165281250D03*
%TD*%
D32*
%TO.C,R47*%
X400762500Y-150900000D03*
X397837500Y-150900000D03*
%TD*%
D33*
%TO.C,R49*%
X398437500Y-145550000D03*
X400087500Y-145550000D03*
%TD*%
D34*
%TO.C,R50*%
X388272500Y-150150000D03*
X383827500Y-150150000D03*
%TD*%
D33*
%TO.C,R52*%
X398425000Y-143950000D03*
X400075000Y-143950000D03*
%TD*%
D35*
%TO.C,R53*%
X405819786Y-208631128D03*
X405819786Y-206806128D03*
%TD*%
%TO.C,R56*%
X405769786Y-213581128D03*
X405769786Y-211756128D03*
%TD*%
D36*
%TO.C,R57*%
X410457286Y-203368628D03*
X412282286Y-203368628D03*
%TD*%
D31*
%TO.C,R58*%
X405336348Y-202537378D03*
X402803224Y-203999878D03*
%TD*%
D32*
%TO.C,R59*%
X400682286Y-189618628D03*
X397757286Y-189618628D03*
%TD*%
D33*
%TO.C,R61*%
X398357286Y-184268628D03*
X400007286Y-184268628D03*
%TD*%
D35*
%TO.C,R68*%
X405850000Y-136362500D03*
X405850000Y-134537500D03*
%TD*%
D37*
%TO.C,U2*%
X367345000Y-70974150D03*
X368615000Y-70974150D03*
X369885000Y-70974150D03*
X371155000Y-70974150D03*
X371155000Y-65525850D03*
X369885000Y-65525850D03*
X368615000Y-65525850D03*
X367345000Y-65525850D03*
%TD*%
%TO.C,U3*%
X372941000Y-70974150D03*
X374211000Y-70974150D03*
X375481000Y-70974150D03*
X376751000Y-70974150D03*
X376751000Y-65525850D03*
X375481000Y-65525850D03*
X374211000Y-65525850D03*
X372941000Y-65525850D03*
%TD*%
%TO.C,U4*%
X378595000Y-70974150D03*
X379865000Y-70974150D03*
X381135000Y-70974150D03*
X382405000Y-70974150D03*
X382405000Y-65525850D03*
X381135000Y-65525850D03*
X379865000Y-65525850D03*
X378595000Y-65525850D03*
%TD*%
D38*
%TO.C,U9*%
X422250001Y-68250000D03*
X422250001Y-68749999D03*
X422250001Y-69250000D03*
X422250001Y-69749999D03*
X422250001Y-70250001D03*
X422250001Y-70750000D03*
X422250001Y-71249999D03*
X422250001Y-71750000D03*
X422250001Y-72250000D03*
X422250001Y-72750001D03*
X422250001Y-73250000D03*
X422250001Y-73749999D03*
X422250001Y-74250001D03*
X422250001Y-74750000D03*
X422250001Y-75250001D03*
X422250001Y-75750000D03*
D39*
X424250000Y-77749999D03*
X424749999Y-77749999D03*
X425250000Y-77749999D03*
X425749999Y-77749999D03*
X426250001Y-77749999D03*
X426750000Y-77749999D03*
X427249999Y-77749999D03*
X427750000Y-77749999D03*
X428250000Y-77749999D03*
X428750001Y-77749999D03*
X429250000Y-77749999D03*
X429749999Y-77749999D03*
X430250001Y-77749999D03*
X430750000Y-77749999D03*
X431250001Y-77749999D03*
X431750000Y-77749999D03*
D38*
X433749999Y-75750000D03*
X433749999Y-75250001D03*
X433749999Y-74750000D03*
X433749999Y-74250001D03*
X433749999Y-73749999D03*
X433749999Y-73250000D03*
X433749999Y-72750001D03*
X433749999Y-72250000D03*
X433749999Y-71750000D03*
X433749999Y-71249999D03*
X433749999Y-70750000D03*
X433749999Y-70250001D03*
X433749999Y-69749999D03*
X433749999Y-69250000D03*
X433749999Y-68749999D03*
X433749999Y-68250000D03*
D39*
X431750000Y-66250001D03*
X431250001Y-66250001D03*
X430750000Y-66250001D03*
X430250001Y-66250001D03*
X429749999Y-66250001D03*
X429250000Y-66250001D03*
X428750001Y-66250001D03*
X428250000Y-66250001D03*
X427750000Y-66250001D03*
X427249999Y-66250001D03*
X426750000Y-66250001D03*
X426250001Y-66250001D03*
X425749999Y-66250001D03*
X425250000Y-66250001D03*
X424749999Y-66250001D03*
X424250000Y-66250001D03*
%TD*%
D40*
%TO.C,U6*%
X372148749Y-55799999D03*
X372148749Y-56750000D03*
X372148749Y-57700001D03*
X374755251Y-57700001D03*
X374755251Y-56750000D03*
X374755251Y-55799999D03*
%TD*%
D41*
%TO.C,U7*%
X386130000Y-59040000D03*
D19*
X388670000Y-59040000D03*
X396290000Y-59040000D03*
X401370000Y-59040000D03*
%TD*%
D42*
%TO.C,U8*%
X387917900Y-89190000D03*
X387917900Y-90460000D03*
X387917900Y-95540000D03*
X387917900Y-96810000D03*
X393582100Y-96810000D03*
X393582100Y-90460000D03*
X393582100Y-89190000D03*
%TD*%
D43*
%TO.C,U9*%
X410871250Y-56620000D03*
X410871250Y-57570000D03*
X410871250Y-58520000D03*
X413146250Y-58520000D03*
X413146250Y-56620000D03*
%TD*%
D44*
%TO.C,U12*%
X407800001Y-140945000D03*
X407800001Y-142215000D03*
X407800001Y-143485000D03*
X407800001Y-144755000D03*
X418699999Y-144755000D03*
X418699999Y-143485000D03*
X418699999Y-142215000D03*
X418699999Y-140945000D03*
%TD*%
D45*
%TO.C,U13*%
X417395463Y-193730636D03*
X416760463Y-192630784D03*
X416125463Y-191530931D03*
X415490463Y-190431079D03*
X414855463Y-189331227D03*
X414220463Y-188231375D03*
X413585463Y-187131522D03*
X412950463Y-186031670D03*
X408144109Y-188806620D03*
X408779109Y-189906472D03*
X409414109Y-191006325D03*
X410049109Y-192106177D03*
X410684109Y-193206029D03*
X411319109Y-194305881D03*
X411954109Y-195405734D03*
X412589109Y-196505586D03*
%TD*%
D41*
%TO.C,U20*%
X399710000Y-74930000D03*
D19*
X399710000Y-77470000D03*
X399710000Y-85090000D03*
X399710000Y-90170000D03*
%TD*%
D46*
%TO.C,U22*%
X424950000Y-93862500D03*
X424000000Y-93862500D03*
X423050000Y-93862500D03*
X423050000Y-96137500D03*
X424000000Y-96137500D03*
X424950000Y-96137500D03*
%TD*%
D47*
%TO.C,U23*%
X347975000Y-62810000D03*
X347975000Y-61540000D03*
X347975000Y-60270000D03*
X347975000Y-59000000D03*
X347975000Y-57730000D03*
X347975000Y-56460000D03*
X347975000Y-55190000D03*
X343025000Y-55190000D03*
X343025000Y-56460000D03*
X343025000Y-57730000D03*
X343025000Y-59000000D03*
X343025000Y-60270000D03*
X343025000Y-61540000D03*
X343025000Y-62810000D03*
%TD*%
D48*
%TO.C,R44*%
X381350000Y-242989931D03*
D49*
X368650000Y-242989931D03*
%TD*%
D13*
%TO.C,C28*%
X389224000Y-233764931D03*
X389224000Y-232214931D03*
%TD*%
D50*
%TO.C,L17*%
X315925000Y-59250000D03*
X318075000Y-59250000D03*
%TD*%
D33*
%TO.C,R20*%
X427825000Y-193000000D03*
X426175000Y-193000000D03*
%TD*%
D34*
%TO.C,R63*%
X383827500Y-111650000D03*
X388272500Y-111650000D03*
%TD*%
D51*
%TO.C,TH2*%
X413000000Y-86530000D03*
D52*
X413000000Y-83990000D03*
%TD*%
D50*
%TO.C,L16*%
X320175000Y-54500000D03*
X322325000Y-54500000D03*
%TD*%
D42*
%TO.C,U21*%
X381973150Y-89190000D03*
X381973150Y-90460000D03*
X381973150Y-96810000D03*
X376308950Y-96810000D03*
X376308950Y-95540000D03*
X376308950Y-90460000D03*
X376308950Y-89190000D03*
%TD*%
D44*
%TO.C,U15*%
X418619785Y-179663628D03*
X418619785Y-180933628D03*
X418619785Y-182203628D03*
X418619785Y-183473628D03*
X407719787Y-183473628D03*
X407719787Y-182203628D03*
X407719787Y-180933628D03*
X407719787Y-179663628D03*
%TD*%
D53*
%TO.C,R79*%
X349270000Y-79295200D03*
X349270000Y-77645200D03*
%TD*%
%TO.C,R69*%
X335020000Y-81435100D03*
X335020000Y-79785100D03*
%TD*%
%TO.C,R76*%
X408000000Y-75325000D03*
X408000000Y-73675000D03*
%TD*%
D20*
%TO.C,C46*%
X401700000Y-169750000D03*
X403600000Y-169750000D03*
%TD*%
D13*
%TO.C,C66*%
X403450000Y-103725000D03*
X403450000Y-102175000D03*
%TD*%
D25*
%TO.C,D18*%
X413000000Y-173450000D03*
X408700000Y-173450000D03*
%TD*%
D54*
%TO.C,J6*%
X326275000Y-205900000D03*
X326275000Y-210100000D03*
X320775000Y-205900000D03*
D55*
X320775000Y-210100000D03*
D28*
X313475000Y-208000000D03*
%TD*%
D53*
%TO.C,R65*%
X331520000Y-81435100D03*
X331520000Y-79785100D03*
%TD*%
%TO.C,R41*%
X387700000Y-218814931D03*
X387700000Y-217164931D03*
%TD*%
D15*
%TO.C,C52*%
X409629810Y-160673428D03*
X410579810Y-162318876D03*
%TD*%
D56*
%TO.C,D15*%
X383714500Y-242989931D03*
X385589500Y-242039931D03*
X385589500Y-243939931D03*
%TD*%
D57*
%TO.C,U19*%
X335135000Y-83422600D03*
X336405000Y-83422600D03*
X336405000Y-89797600D03*
X335135000Y-89797600D03*
%TD*%
D58*
%TO.C,L3*%
X406337500Y-107750000D03*
X404762500Y-107750000D03*
%TD*%
D11*
%TO.C,C17*%
X434487000Y-78064000D03*
X432937000Y-78064000D03*
%TD*%
D48*
%TO.C,R40*%
X381350000Y-217989931D03*
D49*
X368650000Y-217989931D03*
%TD*%
D59*
%TO.C,R78*%
X345520000Y-77645200D03*
X345520000Y-79295200D03*
%TD*%
D10*
%TO.C,TP9*%
X423000000Y-143500000D03*
%TD*%
D48*
%TO.C,R29*%
X381350000Y-228000000D03*
D49*
X368650000Y-228000000D03*
%TD*%
D20*
%TO.C,C106*%
X390550000Y-99500000D03*
X392450000Y-99500000D03*
%TD*%
D33*
%TO.C,R37*%
X413825000Y-91015000D03*
X412175000Y-91015000D03*
%TD*%
D60*
%TO.C,H12*%
X315000000Y-155000000D03*
D61*
X315000000Y-155000000D03*
%TD*%
D62*
%TO.C,U1*%
X336862500Y-96175000D03*
X336862500Y-96825000D03*
X336862500Y-97475000D03*
X336862500Y-98125000D03*
X336862500Y-98775000D03*
X336862500Y-99425000D03*
X336862500Y-100075000D03*
X336862500Y-100725000D03*
X336862500Y-101375000D03*
X336862500Y-102025000D03*
X336862500Y-102675000D03*
X336862500Y-103325000D03*
X331137500Y-103325000D03*
X331137500Y-102675000D03*
X331137500Y-102025000D03*
X331137500Y-101375000D03*
X331137500Y-100725000D03*
X331137500Y-100075000D03*
X331137500Y-99425000D03*
X331137500Y-98775000D03*
X331137500Y-98125000D03*
X331137500Y-97475000D03*
X331137500Y-96825000D03*
X331137500Y-96175000D03*
%TD*%
D32*
%TO.C,R55*%
X397837500Y-112400000D03*
X400762500Y-112400000D03*
%TD*%
D56*
%TO.C,D12*%
X383714500Y-212989931D03*
X385589500Y-212039931D03*
X385589500Y-213939931D03*
%TD*%
D20*
%TO.C,C42*%
X380550000Y-83500000D03*
X382450000Y-83500000D03*
%TD*%
D53*
%TO.C,R67*%
X336770000Y-81435100D03*
X336770000Y-79785100D03*
%TD*%
%TO.C,R77*%
X343770000Y-79295200D03*
X343770000Y-77645200D03*
%TD*%
D44*
%TO.C,U14*%
X418699999Y-102445000D03*
X418699999Y-103715000D03*
X418699999Y-104985000D03*
X418699999Y-106255000D03*
X407800001Y-106255000D03*
X407800001Y-104985000D03*
X407800001Y-103715000D03*
X407800001Y-102445000D03*
%TD*%
D18*
%TO.C,C67*%
X402662500Y-143987500D03*
X402662500Y-145537500D03*
%TD*%
D63*
%TO.C,TP6*%
X388500000Y-102500000D03*
%TD*%
D22*
%TO.C,C76*%
X405357854Y-111274184D03*
X406132854Y-112616524D03*
%TD*%
D64*
%TO.C,F2*%
X317000000Y-75400000D03*
X317000000Y-72600000D03*
%TD*%
D65*
%TO.C,U16*%
X358580000Y-91220200D03*
X356040000Y-91220200D03*
X353500000Y-91220200D03*
X350960000Y-91220200D03*
X350960000Y-82000000D03*
X353500000Y-82000000D03*
X356040000Y-82000000D03*
X358580000Y-82000000D03*
%TD*%
D56*
%TO.C,D8*%
X383714500Y-232989931D03*
X385589500Y-232039931D03*
X385589500Y-233939931D03*
%TD*%
D61*
%TO.C,H9*%
X444000000Y-57000000D03*
D60*
X444000000Y-57000000D03*
%TD*%
D12*
%TO.C,C4*%
X377475000Y-63250000D03*
X379025000Y-63250000D03*
%TD*%
D33*
%TO.C,R60*%
X400087500Y-107050000D03*
X398437500Y-107050000D03*
%TD*%
D35*
%TO.C,R34*%
X405850000Y-173037500D03*
X405850000Y-174862500D03*
%TD*%
D53*
%TO.C,R45*%
X387700000Y-243814931D03*
X387700000Y-242164931D03*
%TD*%
D63*
%TO.C,TP2*%
X404000000Y-55750000D03*
%TD*%
D66*
%TO.C,D4*%
X312750000Y-95462500D03*
X312750000Y-97037500D03*
%TD*%
D61*
%TO.C,H6*%
X444000000Y-98000000D03*
D60*
X444000000Y-98000000D03*
%TD*%
D50*
%TO.C,L7*%
X391675000Y-86250000D03*
X393825000Y-86250000D03*
%TD*%
D67*
%TO.C,R24*%
X416175000Y-91015000D03*
X417825000Y-91015000D03*
%TD*%
D61*
%TO.C,H10*%
X444000000Y-246000000D03*
D60*
X444000000Y-246000000D03*
%TD*%
D59*
%TO.C,R72*%
X354770000Y-77645200D03*
X354770000Y-79295200D03*
%TD*%
D60*
%TO.C,H14*%
X345000000Y-246000000D03*
D61*
X345000000Y-246000000D03*
%TD*%
D22*
%TO.C,C85*%
X405277640Y-188492812D03*
X406052640Y-189835152D03*
%TD*%
D53*
%TO.C,R86*%
X331520000Y-91785100D03*
X331520000Y-93435100D03*
%TD*%
D66*
%TO.C,D5*%
X312750000Y-98962500D03*
X312750000Y-100537500D03*
%TD*%
D26*
%TO.C,D28*%
X349520000Y-72570200D03*
X349520000Y-75870200D03*
%TD*%
D31*
%TO.C,R54*%
X402883438Y-126781250D03*
X405416562Y-125318750D03*
%TD*%
D20*
%TO.C,C105*%
X387800000Y-86500000D03*
X389700000Y-86500000D03*
%TD*%
D13*
%TO.C,C86*%
X403369786Y-180943628D03*
X403369786Y-179393628D03*
%TD*%
D16*
%TO.C,C19*%
X376750000Y-59556000D03*
X376750000Y-57656000D03*
%TD*%
D53*
%TO.C,R91*%
X334500000Y-65175000D03*
X334500000Y-66825000D03*
%TD*%
D68*
%TO.C,D16*%
X408700000Y-168750000D03*
X413000000Y-168750000D03*
%TD*%
D16*
%TO.C,C18*%
X382750000Y-59556000D03*
X382750000Y-57656000D03*
%TD*%
D20*
%TO.C,C43*%
X376550000Y-86500000D03*
X378450000Y-86500000D03*
%TD*%
D53*
%TO.C,R71*%
X356770000Y-79295200D03*
X356770000Y-77645200D03*
%TD*%
%TO.C,R83*%
X347520000Y-79295200D03*
X347520000Y-77645200D03*
%TD*%
D63*
%TO.C,TP5*%
X402750000Y-92050000D03*
%TD*%
D69*
%TO.C,L5*%
X385575000Y-55250000D03*
X383425000Y-55250000D03*
%TD*%
D48*
%TO.C,R27*%
X381350000Y-237989931D03*
D49*
X368650000Y-237989931D03*
%TD*%
D66*
%TO.C,L9*%
X403950000Y-154862500D03*
X403950000Y-156437500D03*
%TD*%
D36*
%TO.C,R51*%
X412362500Y-126150000D03*
X410537500Y-126150000D03*
%TD*%
D33*
%TO.C,R82*%
X438825000Y-66020000D03*
X437175000Y-66020000D03*
%TD*%
D13*
%TO.C,C36*%
X389224000Y-243764931D03*
X389224000Y-242214931D03*
%TD*%
D45*
%TO.C,U11*%
X412669323Y-119286958D03*
X412034323Y-118187106D03*
X411399323Y-117087253D03*
X410764323Y-115987401D03*
X410129323Y-114887549D03*
X409494323Y-113787697D03*
X408859323Y-112687844D03*
X408224323Y-111587992D03*
X413030677Y-108813042D03*
X413665677Y-109912894D03*
X414300677Y-111012747D03*
X414935677Y-112112599D03*
X415570677Y-113212451D03*
X416205677Y-114312303D03*
X416840677Y-115412156D03*
X417475677Y-116512008D03*
%TD*%
D53*
%TO.C,R28*%
X387700000Y-238814931D03*
X387700000Y-237164931D03*
%TD*%
D70*
%TO.C,C110*%
X382400000Y-195450000D03*
X382400000Y-200550000D03*
%TD*%
D22*
%TO.C,C63*%
X405357854Y-149774184D03*
X406132854Y-151116524D03*
%TD*%
D12*
%TO.C,C14*%
X424301000Y-79588000D03*
X425851000Y-79588000D03*
%TD*%
D56*
%TO.C,D14*%
X383714500Y-222989931D03*
X385589500Y-222039931D03*
X385589500Y-223939931D03*
%TD*%
D33*
%TO.C,R21*%
X428075000Y-111750000D03*
X426425000Y-111750000D03*
%TD*%
D68*
%TO.C,D17*%
X408700000Y-130250000D03*
X413000000Y-130250000D03*
%TD*%
D53*
%TO.C,R74*%
X367500000Y-80825000D03*
X367500000Y-79175000D03*
%TD*%
%TO.C,R12*%
X314500000Y-97075000D03*
X314500000Y-95425000D03*
%TD*%
D22*
%TO.C,C81*%
X409382286Y-195347458D03*
X410157286Y-196689798D03*
%TD*%
D50*
%TO.C,L10*%
X380425000Y-86250000D03*
X382575000Y-86250000D03*
%TD*%
D24*
%TO.C,D24*%
X398219786Y-180268628D03*
X401519786Y-180268628D03*
%TD*%
D59*
%TO.C,R89*%
X329500000Y-94575000D03*
X329500000Y-92925000D03*
%TD*%
D67*
%TO.C,R80*%
X437175000Y-63000000D03*
X438825000Y-63000000D03*
%TD*%
D63*
%TO.C,TP4*%
X378250000Y-103000000D03*
%TD*%
D18*
%TO.C,C88*%
X402582286Y-182706128D03*
X402582286Y-184256128D03*
%TD*%
%TO.C,C38*%
X408698750Y-57225000D03*
X408698750Y-58775000D03*
%TD*%
D68*
%TO.C,D21*%
X408619786Y-207468628D03*
X412919786Y-207468628D03*
%TD*%
D63*
%TO.C,TP24*%
X342500000Y-95750000D03*
%TD*%
D66*
%TO.C,L13*%
X403869786Y-193581128D03*
X403869786Y-195156128D03*
%TD*%
D36*
%TO.C,R35*%
X412362500Y-164650000D03*
X410537500Y-164650000D03*
%TD*%
D58*
%TO.C,L14*%
X406257286Y-184968628D03*
X404682286Y-184968628D03*
%TD*%
D33*
%TO.C,R22*%
X427825000Y-150250000D03*
X426175000Y-150250000D03*
%TD*%
D17*
%TO.C,C97*%
X356270000Y-73520200D03*
X356270000Y-75420200D03*
%TD*%
D10*
%TO.C,TP10*%
X423000000Y-182250000D03*
%TD*%
D33*
%TO.C,R18*%
X428075000Y-115750000D03*
X426425000Y-115750000D03*
%TD*%
D53*
%TO.C,R87*%
X340000000Y-100175000D03*
X340000000Y-101825000D03*
%TD*%
D66*
%TO.C,L4*%
X403950000Y-116362500D03*
X403950000Y-117937500D03*
%TD*%
D59*
%TO.C,R5*%
X368626000Y-57957000D03*
X368626000Y-59607000D03*
%TD*%
D34*
%TO.C,R62*%
X383747286Y-188868628D03*
X388192286Y-188868628D03*
%TD*%
D67*
%TO.C,R3*%
X338925000Y-57000000D03*
X340575000Y-57000000D03*
%TD*%
D35*
%TO.C,R48*%
X405850000Y-129637500D03*
X405850000Y-131462500D03*
%TD*%
D63*
%TO.C,TP8*%
X350250000Y-110750000D03*
%TD*%
D58*
%TO.C,L2*%
X406337500Y-109350000D03*
X404762500Y-109350000D03*
%TD*%
D71*
%TO.C,Q8*%
X335795000Y-73955100D03*
X335795000Y-75225100D03*
X335795000Y-76495100D03*
X335795000Y-77765100D03*
X340745000Y-77765100D03*
X340745000Y-76495100D03*
X340745000Y-75225100D03*
X340745000Y-73955100D03*
%TD*%
D16*
%TO.C,C102*%
X402750000Y-77250000D03*
X402750000Y-75350000D03*
%TD*%
D53*
%TO.C,R13*%
X314500000Y-100575000D03*
X314500000Y-98925000D03*
%TD*%
%TO.C,R11*%
X314500000Y-93575000D03*
X314500000Y-91925000D03*
%TD*%
D58*
%TO.C,L11*%
X406337500Y-146250000D03*
X404762500Y-146250000D03*
%TD*%
D10*
%TO.C,TP13*%
X422500000Y-154250000D03*
%TD*%
D53*
%TO.C,R73*%
X353020000Y-79295200D03*
X353020000Y-77645200D03*
%TD*%
D58*
%TO.C,L8*%
X406337500Y-147850000D03*
X404762500Y-147850000D03*
%TD*%
D67*
%TO.C,R2*%
X338987500Y-61250000D03*
X340637500Y-61250000D03*
%TD*%
D16*
%TO.C,C101*%
X405500000Y-73000000D03*
X405500000Y-71100000D03*
%TD*%
D66*
%TO.C,D6*%
X312750000Y-102425000D03*
X312750000Y-104000000D03*
%TD*%
D57*
%TO.C,U18*%
X331635000Y-83422600D03*
X332905000Y-83422600D03*
X332905000Y-89797600D03*
X331635000Y-89797600D03*
%TD*%
D20*
%TO.C,C104*%
X391800000Y-83500000D03*
X393700000Y-83500000D03*
%TD*%
D10*
%TO.C,TP16*%
X422500000Y-193000000D03*
%TD*%
D53*
%TO.C,R26*%
X387700000Y-233814931D03*
X387700000Y-232164931D03*
%TD*%
D10*
%TO.C,TP12*%
X422750000Y-111750000D03*
%TD*%
D11*
%TO.C,C32*%
X413775000Y-89265000D03*
X412225000Y-89265000D03*
%TD*%
D13*
%TO.C,C33*%
X389224000Y-213764931D03*
X389224000Y-212214931D03*
%TD*%
D53*
%TO.C,R85*%
X335020000Y-91785100D03*
X335020000Y-93435100D03*
%TD*%
D13*
%TO.C,C21*%
X435490000Y-68933000D03*
X435490000Y-67383000D03*
%TD*%
D12*
%TO.C,C39*%
X420225000Y-136000000D03*
X421775000Y-136000000D03*
%TD*%
D53*
%TO.C,R84*%
X358520000Y-77645200D03*
X358520000Y-79295200D03*
%TD*%
D64*
%TO.C,F1*%
X317000000Y-83400000D03*
X317000000Y-80600000D03*
%TD*%
D53*
%TO.C,R6*%
X370404000Y-59607000D03*
X370404000Y-57957000D03*
%TD*%
D12*
%TO.C,C2*%
X366225000Y-63250000D03*
X367775000Y-63250000D03*
%TD*%
D60*
%TO.C,H13*%
X315000000Y-197000000D03*
D61*
X315000000Y-197000000D03*
%TD*%
D10*
%TO.C,TP1*%
X421250000Y-90750000D03*
%TD*%
D70*
%TO.C,C108*%
X382400000Y-118050000D03*
X382400000Y-123150000D03*
%TD*%
D67*
%TO.C,R1*%
X338987500Y-62750000D03*
X340637500Y-62750000D03*
%TD*%
D13*
%TO.C,C87*%
X405069786Y-180943628D03*
X405069786Y-179393628D03*
%TD*%
D67*
%TO.C,R4*%
X338925000Y-55500000D03*
X340575000Y-55500000D03*
%TD*%
D53*
%TO.C,R43*%
X387700000Y-223814931D03*
X387700000Y-222164931D03*
%TD*%
D20*
%TO.C,C44*%
X378300000Y-99500000D03*
X380200000Y-99500000D03*
%TD*%
D33*
%TO.C,R70*%
X340595000Y-79610100D03*
X338945000Y-79610100D03*
%TD*%
D12*
%TO.C,C27*%
X416225000Y-89265000D03*
X417775000Y-89265000D03*
%TD*%
D51*
%TO.C,TH1*%
X417000000Y-86515000D03*
D52*
X417000000Y-83975000D03*
%TD*%
D63*
%TO.C,TP7*%
X341750000Y-110750000D03*
%TD*%
D21*
%TO.C,C23*%
X389200000Y-56750000D03*
X387300000Y-56750000D03*
%TD*%
D22*
%TO.C,C75*%
X406857854Y-113872260D03*
X407632854Y-115214600D03*
%TD*%
D18*
%TO.C,C20*%
X420250000Y-73225000D03*
X420250000Y-74775000D03*
%TD*%
D72*
%TO.C,L6*%
X402750000Y-73125000D03*
X402750000Y-70975000D03*
%TD*%
D33*
%TO.C,R23*%
X427825000Y-189000000D03*
X426175000Y-189000000D03*
%TD*%
%TO.C,R10*%
X430575000Y-60250000D03*
X428925000Y-60250000D03*
%TD*%
D13*
%TO.C,C34*%
X389224000Y-218764931D03*
X389224000Y-217214931D03*
%TD*%
D48*
%TO.C,R25*%
X381350000Y-232989931D03*
D49*
X368650000Y-232989931D03*
%TD*%
D61*
%TO.C,H3*%
X373000000Y-140000000D03*
D60*
X373000000Y-140000000D03*
%TD*%
D13*
%TO.C,C29*%
X389224000Y-238764931D03*
X389224000Y-237214931D03*
%TD*%
D33*
%TO.C,R64*%
X399994786Y-182668628D03*
X398344786Y-182668628D03*
%TD*%
D21*
%TO.C,C47*%
X403600000Y-174650000D03*
X401700000Y-174650000D03*
%TD*%
D33*
%TO.C,R19*%
X427825000Y-154250000D03*
X426175000Y-154250000D03*
%TD*%
%TO.C,TH3*%
X421825000Y-132000000D03*
X420175000Y-132000000D03*
%TD*%
D61*
%TO.C,H4*%
X444000000Y-157000000D03*
D60*
X444000000Y-157000000D03*
%TD*%
D56*
%TO.C,D10*%
X383714500Y-228000000D03*
X385589500Y-227050000D03*
X385589500Y-228950000D03*
%TD*%
D63*
%TO.C,TP23*%
X352500000Y-95750000D03*
%TD*%
D11*
%TO.C,C99*%
X349025000Y-93500000D03*
X347475000Y-93500000D03*
%TD*%
D61*
%TO.C,H7*%
X444000000Y-214000000D03*
D60*
X444000000Y-214000000D03*
%TD*%
D45*
%TO.C,U10*%
X412669323Y-157786958D03*
X412034323Y-156687106D03*
X411399323Y-155587253D03*
X410764323Y-154487401D03*
X410129323Y-153387549D03*
X409494323Y-152287697D03*
X408859323Y-151187844D03*
X408224323Y-150087992D03*
X413030677Y-147313042D03*
X413665677Y-148412894D03*
X414300677Y-149512747D03*
X414935677Y-150612599D03*
X415570677Y-151712451D03*
X416205677Y-152812303D03*
X416840677Y-153912156D03*
X417475677Y-155012008D03*
%TD*%
D22*
%TO.C,C55*%
X409462500Y-118128830D03*
X410237500Y-119471170D03*
%TD*%
D56*
%TO.C,D2*%
X335062500Y-56250000D03*
X336937500Y-55300000D03*
X336937500Y-57200000D03*
%TD*%
D53*
%TO.C,R88*%
X342750000Y-101675000D03*
X342750000Y-103325000D03*
%TD*%
D72*
%TO.C,L1*%
X377000000Y-55931000D03*
X377000000Y-53781000D03*
%TD*%
D70*
%TO.C,C109*%
X382400000Y-156650000D03*
X382400000Y-161750000D03*
%TD*%
D10*
%TO.C,TP17*%
X422500000Y-189000000D03*
%TD*%
%TO.C,TP11*%
X422750000Y-115750000D03*
%TD*%
D61*
%TO.C,H8*%
X374000000Y-181000000D03*
D60*
X374000000Y-181000000D03*
%TD*%
D13*
%TO.C,C107*%
X338750000Y-97775000D03*
X338750000Y-96225000D03*
%TD*%
D20*
%TO.C,C100*%
X397800000Y-56000000D03*
X399700000Y-56000000D03*
%TD*%
D53*
%TO.C,R30*%
X387700000Y-228825000D03*
X387700000Y-227175000D03*
%TD*%
D33*
%TO.C,R81*%
X438825000Y-64500000D03*
X437175000Y-64500000D03*
%TD*%
D61*
%TO.C,H1*%
X315000000Y-117000000D03*
D60*
X315000000Y-117000000D03*
%TD*%
D13*
%TO.C,C35*%
X389224000Y-223764931D03*
X389224000Y-222214931D03*
%TD*%
D48*
%TO.C,R42*%
X381350000Y-222989931D03*
D49*
X368650000Y-222989931D03*
%TD*%
D53*
%TO.C,R39*%
X387700000Y-213814931D03*
X387700000Y-212164931D03*
%TD*%
D10*
%TO.C,TP14*%
X422500000Y-150250000D03*
%TD*%
D67*
%TO.C,R46*%
X420175000Y-134000000D03*
X421825000Y-134000000D03*
%TD*%
D33*
%TO.C,R90*%
X337675000Y-64500000D03*
X339325000Y-64500000D03*
%TD*%
D73*
%TO.C,D29*%
X331320000Y-77797600D03*
X333220000Y-77797600D03*
X332270000Y-75922600D03*
%TD*%
D15*
%TO.C,C59*%
X403125000Y-149477276D03*
X404075000Y-151122724D03*
%TD*%
D10*
%TO.C,TP15*%
X423250000Y-105000000D03*
%TD*%
D56*
%TO.C,D9*%
X383714500Y-237989931D03*
X385589500Y-237039931D03*
X385589500Y-238939931D03*
%TD*%
D63*
%TO.C,TP3*%
X393250000Y-102500000D03*
%TD*%
D11*
%TO.C,C15*%
X424835000Y-64348000D03*
X423285000Y-64348000D03*
%TD*%
D35*
%TO.C,R33*%
X405850000Y-168137500D03*
X405850000Y-169962500D03*
%TD*%
D15*
%TO.C,C58*%
X404875000Y-152477276D03*
X405825000Y-154122724D03*
%TD*%
D66*
%TO.C,D3*%
X312750000Y-91962500D03*
X312750000Y-93537500D03*
%TD*%
D11*
%TO.C,C12*%
X432201000Y-79588000D03*
X430651000Y-79588000D03*
%TD*%
D12*
%TO.C,C25*%
X417725000Y-70250000D03*
X419275000Y-70250000D03*
%TD*%
D58*
%TO.C,L12*%
X406257286Y-186568628D03*
X404682286Y-186568628D03*
%TD*%
D22*
%TO.C,C80*%
X417462500Y-112128830D03*
X418237500Y-113471170D03*
%TD*%
D63*
%TO.C,TP22*%
X357250000Y-95750000D03*
%TD*%
D65*
%TO.C,U17*%
X347330000Y-91220200D03*
X344790000Y-91220200D03*
X342250000Y-91220200D03*
X339710000Y-91220200D03*
X339710000Y-82000000D03*
X342250000Y-82000000D03*
X344790000Y-82000000D03*
X347330000Y-82000000D03*
%TD*%
D72*
%TO.C,L15*%
X408750000Y-96825000D03*
X408750000Y-94675000D03*
%TD*%
D56*
%TO.C,D13*%
X383714500Y-217989931D03*
X385589500Y-217039931D03*
X385589500Y-218939931D03*
%TD*%
D24*
%TO.C,D30*%
X333670000Y-73610100D03*
X330370000Y-73610100D03*
%TD*%
D74*
%TO.C,D1*%
X337000000Y-62000000D03*
X335125000Y-62950000D03*
X335125000Y-61050000D03*
%TD*%
D53*
%TO.C,R14*%
X314500000Y-104075000D03*
X314500000Y-102425000D03*
%TD*%
D48*
%TO.C,R38*%
X381350000Y-212989931D03*
D49*
X368650000Y-212989931D03*
%TD*%
D33*
%TO.C,R66*%
X400075000Y-105450000D03*
X398425000Y-105450000D03*
%TD*%
D13*
%TO.C,C30*%
X389224000Y-228775000D03*
X389224000Y-227225000D03*
%TD*%
D22*
%TO.C,C84*%
X406777640Y-191090888D03*
X407552640Y-192433228D03*
%TD*%
D53*
%TO.C,R75*%
X408000000Y-78575000D03*
X408000000Y-76925000D03*
%TD*%
D22*
%TO.C,C79*%
X410908227Y-198006064D03*
X411683227Y-199348404D03*
%TD*%
D28*
%TO.C,J9*%
X313475000Y-73800000D03*
X313475000Y-82200000D03*
D75*
X320775000Y-73800000D03*
D54*
X320775000Y-78000000D03*
X320775000Y-82200000D03*
X326275000Y-73800000D03*
X326275000Y-78000000D03*
X326275000Y-82200000D03*
%TD*%
D76*
%TO.C,Q4*%
X393690000Y-112320000D03*
X393690000Y-114860000D03*
X393690000Y-117400000D03*
D77*
X393690000Y-122480000D03*
D78*
X373769786Y-117393628D03*
%TD*%
D48*
%TO.C,SW2*%
X339500000Y-59130000D03*
X336960000Y-59130000D03*
X336960000Y-66750000D03*
D79*
X339500000Y-66750000D03*
%TD*%
D28*
%TO.C,J10*%
X315450000Y-143500000D03*
D29*
X322750000Y-140650000D03*
D30*
X322750000Y-146350000D03*
X328250000Y-140650000D03*
X328250000Y-146350000D03*
%TD*%
D76*
%TO.C,Q1*%
X399660000Y-166230000D03*
X399660000Y-163690000D03*
X399660000Y-161150000D03*
D77*
X399660000Y-156070000D03*
D78*
X419580214Y-161156372D03*
%TD*%
D80*
%TO.C,M2*%
X362250000Y-54600000D03*
X359750000Y-54600000D03*
X357250000Y-54600000D03*
D81*
X354750000Y-54600000D03*
%TD*%
D76*
%TO.C,Q6*%
X393609786Y-189538628D03*
X393609786Y-192078628D03*
X393609786Y-194618628D03*
D77*
X393609786Y-199698628D03*
D78*
X373689572Y-194612256D03*
%TD*%
D82*
%TO.C,J8*%
X316436000Y-66715000D03*
X316436000Y-55285000D03*
D83*
X322786000Y-65445000D03*
X329390000Y-65445000D03*
X325326000Y-64175000D03*
X331930000Y-64175000D03*
X322786000Y-62905000D03*
X329390000Y-62905000D03*
X325326000Y-61635000D03*
X331930000Y-61635000D03*
X322786000Y-60365000D03*
X329390000Y-60365000D03*
X325326000Y-59095000D03*
X331930000Y-59095000D03*
X322786000Y-57825000D03*
X329390000Y-57825000D03*
D84*
X325326000Y-56555000D03*
X331930000Y-56555000D03*
%TD*%
D48*
%TO.C,SW1*%
X324570000Y-101550000D03*
X324570000Y-99010000D03*
X324570000Y-96470000D03*
X324570000Y-93930000D03*
X316950000Y-93930000D03*
X316950000Y-96470000D03*
X316950000Y-99010000D03*
D79*
X316950000Y-101550000D03*
%TD*%
D76*
%TO.C,Q2*%
X393690000Y-150820000D03*
X393690000Y-153360000D03*
X393690000Y-155900000D03*
D77*
X393690000Y-160980000D03*
D78*
X373769786Y-155893628D03*
%TD*%
D80*
%TO.C,M1*%
X362250000Y-61350000D03*
X359750000Y-61350000D03*
X357250000Y-61350000D03*
D81*
X354750000Y-61350000D03*
%TD*%
D76*
%TO.C,Q5*%
X399579786Y-204948628D03*
X399579786Y-202408628D03*
X399579786Y-199868628D03*
D77*
X399579786Y-194788628D03*
D78*
X419500000Y-199875000D03*
%TD*%
D76*
%TO.C,Q3*%
X399660000Y-127730000D03*
X399660000Y-125190000D03*
X399660000Y-122650000D03*
D77*
X399660000Y-117570000D03*
D78*
X419580214Y-122656372D03*
%TD*%
D51*
%TO.C,J3*%
X423525000Y-53945000D03*
X420985000Y-53945000D03*
X423525000Y-56485000D03*
X420985000Y-56485000D03*
X423525000Y-59025000D03*
D52*
X420985000Y-59025000D03*
%TD*%
M02*
