M48
; DRILL file {KiCad 7.0.7} date Sun Oct 22 18:31:34 2023
; FORMAT={-:-/ absolute / inch / decimal}
; #@! TF.CreationDate,2023-10-22T18:31:34-04:00
; #@! TF.GenerationSoftware,Kicad,Pcbnew,7.0.7
; #@! TF.FileFunction,Plated,1,4,PTH
FMAT,2
INCH
; #@! TA.AperFunction,Plated,PTH,ViaDrill
T1C0.0157
; #@! TA.AperFunction,Plated,PTH,ComponentDrill
T2C0.0315
; #@! TA.AperFunction,Plated,PTH,ComponentDrill
T3C0.0335
; #@! TA.AperFunction,Plated,PTH,ComponentDrill
T4C0.0350
; #@! TA.AperFunction,Plated,PTH,ComponentDrill
T5C0.0390
; #@! TA.AperFunction,Plated,PTH,ComponentDrill
T6C0.0394
; #@! TA.AperFunction,Plated,PTH,ComponentDrill
T7C0.0591
; #@! TA.AperFunction,Plated,PTH,ComponentDrill
T8C0.0709
; #@! TA.AperFunction,Plated,PTH,ComponentDrill
T9C0.0787
; #@! TA.AperFunction,Plated,PTH,ComponentDrill
T10C0.1260
%
G90
G05
T1
X12.4114Y-3.9862
X12.4213Y-3.6614
X12.4213Y-3.7992
X12.4213Y-4.091
X12.4409Y-2.4016
X12.4409Y-2.4409
X12.4705Y-3.1102
X12.5197Y-2.4114
X12.5197Y-2.4508
X12.9626Y-4.0551
X12.9724Y-3.622
X12.9734Y-4.0167
X13.0413Y-2.9823
X13.0807Y-3.061
X13.0929Y-3.9918
X13.1004Y-3.6516
X13.1004Y-3.8091
X13.1004Y-3.9469
X13.1004Y-4.065
X13.1594Y-3.7303
X13.189Y-2.3622
X13.1988Y-3.7992
X13.1988Y-3.8583
X13.2111Y-2.4409
X13.2185Y-2.5591
X13.2382Y-3.6516
X13.248Y-2.2146
X13.3071Y-2.2146
X13.3169Y-3.6024
X13.3268Y-2.9134
X13.3366Y-3.0807
X13.376Y-3.7894
X13.376Y-3.8484
X13.3858Y-4.0551
X13.4449Y-3.9173
X13.4449Y-3.9764
X13.4449Y-4.065
X13.4547Y-2.5394
X13.4547Y-4.2618
X13.5039Y-2.9724
X13.563Y-3.7303
X13.5728Y-2.4902
X13.6319Y-2.2244
X13.6319Y-2.372
X13.6319Y-3.6811
X13.6614Y-2.8445
X13.7402Y-3.6024
X13.7692Y-2.3233
X13.7795Y-3.75
X13.7894Y-4.2618
X13.9173Y-2.2441
X13.9173Y-2.3228
X13.9173Y-2.5098
X13.9173Y-2.5886
X13.9469Y-2.9724
X13.9665Y-3.75
X14.0256Y-2.8445
X14.1437Y-3.6614
X14.2421Y-3.5925
X14.2913Y-8.0709
X14.3504Y-2.2933
X14.3701Y-6.7323
X14.4094Y-2.5492
X14.4193Y-2.8642
X14.4488Y-5.2756
X14.4685Y-2.3228
X14.4685Y-2.9724
X14.4685Y-3.0217
X14.4685Y-3.0709
X14.4839Y-2.5295
X14.498Y-2.185
X14.498Y-2.2244
X14.498Y-3.2283
X14.5276Y-2.9626
X14.5276Y-3.2579
X14.5768Y-2.9331
X14.6063Y-2.2343
X14.6063Y-2.8445
X14.626Y-2.126
X14.626Y-2.4508
X14.6358Y-2.3425
X14.6457Y-2.8642
X14.6752Y-2.4508
X14.7047Y-2.185
X14.7047Y-2.2244
X14.7047Y-2.2638
X14.7343Y-2.9232
X14.7441Y-3.0217
X14.7827Y-3.001
X14.7933Y-2.5098
X14.813Y-2.3917
X14.8228Y-2.4508
X14.8228Y-3.3465
X14.8327Y-2.8445
X14.872Y-2.8642
X14.8819Y-2.3917
X14.9016Y-2.4508
X14.9213Y-2.2146
X14.9409Y-3.2874
X14.9508Y-2.3917
X14.9606Y-2.2146
X14.9606Y-2.9232
X14.9606Y-4.0551
X14.9705Y-3.8091
X14.9724Y-6.0709
X14.9724Y-6.1102
X14.9724Y-6.4213
X14.9724Y-6.4606
X14.9724Y-7.5984
X14.9724Y-7.6378
X14.9724Y-7.9488
X14.9724Y-7.9882
X14.9803Y-2.4902
X14.9803Y-4.5551
X14.9803Y-4.5945
X14.9803Y-4.9055
X14.9803Y-4.9449
X14.9892Y-3.0206
X15.0Y-2.2146
X15.0118Y-6.0709
X15.0118Y-6.1102
X15.0118Y-6.4213
X15.0118Y-6.4606
X15.0118Y-7.5984
X15.0118Y-7.6378
X15.0118Y-7.9488
X15.0118Y-7.9882
X15.0197Y-2.3917
X15.0197Y-4.5551
X15.0197Y-4.5945
X15.0197Y-4.9055
X15.0197Y-4.9449
X15.0295Y-2.4902
X15.0394Y-2.1752
X15.0394Y-2.2146
X15.0492Y-2.8445
X15.0512Y-6.0709
X15.0512Y-6.1102
X15.0512Y-6.4213
X15.0512Y-6.4606
X15.0512Y-7.5984
X15.0512Y-7.6378
X15.0512Y-7.9488
X15.0512Y-7.9882
X15.0591Y-4.5551
X15.0591Y-4.5945
X15.0591Y-4.9055
X15.0591Y-4.9449
X15.0886Y-2.3917
X15.0906Y-6.0709
X15.0906Y-6.1102
X15.0906Y-6.4213
X15.0906Y-6.4606
X15.0906Y-7.5984
X15.0906Y-7.6378
X15.0906Y-7.9488
X15.0906Y-7.9882
X15.0984Y-2.5689
X15.0984Y-4.5551
X15.0984Y-4.5945
X15.0984Y-4.9055
X15.0984Y-4.9449
X15.1299Y-6.0709
X15.1299Y-6.1102
X15.1299Y-6.4213
X15.1299Y-6.4606
X15.1299Y-7.5984
X15.1299Y-7.6378
X15.1299Y-7.9488
X15.1299Y-7.9882
X15.1378Y-4.5551
X15.1378Y-4.5945
X15.1378Y-4.9055
X15.1378Y-4.9449
X15.1772Y-3.6024
X15.1772Y-3.7598
X15.2232Y-8.8126
X15.2232Y-9.0098
X15.2232Y-9.2063
X15.2238Y-8.3154
X15.2238Y-8.4189
X15.2238Y-8.5123
X15.2238Y-8.6157
X15.2238Y-8.7091
X15.2238Y-8.9164
X15.2238Y-9.0987
X15.2238Y-9.2997
X15.2238Y-9.4031
X15.2238Y-9.4965
X15.2238Y-9.6
X15.2657Y-3.3465
X15.374Y-3.9764
X15.3839Y-3.2874
X15.502Y-3.9173
X15.6102Y-4.0748
X15.7567Y-8.3984
X15.7579Y-2.5591
X15.7579Y-5.3602
X15.7581Y-6.8766
X15.7606Y-8.2055
X15.7618Y-5.1673
X15.762Y-6.6837
X15.8236Y-7.4456
X15.8236Y-7.481
X15.8248Y-4.4075
X15.8248Y-4.4429
X15.825Y-5.9238
X15.825Y-5.9593
X15.8465Y-2.4213
X15.8465Y-2.4902
X15.876Y-2.5197
X15.8895Y-7.344
X15.8906Y-4.3058
X15.8908Y-5.8222
X15.8944Y-7.3049
X15.8956Y-4.2668
X15.8958Y-5.7831
X15.9252Y-5.1772
X15.9252Y-5.3642
X15.9297Y-8.2132
X15.9297Y-8.4057
X15.9311Y-6.6914
X15.9311Y-6.8839
X15.9457Y-7.6818
X15.9469Y-4.6437
X15.947Y-6.16
X15.9516Y-7.1563
X15.9528Y-4.1182
X15.953Y-5.6345
X15.9646Y-2.9154
X15.9968Y-7.2212
X15.998Y-4.1831
X15.9982Y-5.6994
X16.0138Y-3.0994
X16.0165Y-7.922
X16.0169Y-7.9614
X16.0177Y-4.8839
X16.0177Y-4.9232
X16.0179Y-6.4002
X16.0183Y-6.4396
X16.0441Y-7.3236
X16.0453Y-4.2854
X16.0455Y-5.8018
X16.0598Y-7.4968
X16.061Y-4.4587
X16.0612Y-5.975
X16.063Y-3.878
X16.0728Y-2.4409
X16.0827Y-3.1496
X16.122Y-3.6614
X16.1319Y-2.2638
X16.1417Y-2.1161
X16.1858Y-7.7133
X16.187Y-4.6752
X16.1872Y-6.1915
X16.2008Y-2.1161
X16.237Y-7.9456
X16.2382Y-4.9075
X16.2384Y-6.4238
X16.2402Y-2.7756
X16.2402Y-2.8445
X16.2449Y-7.7763
X16.2461Y-4.7382
X16.2463Y-6.2545
X16.3Y-7.2881
X16.3012Y-4.25
X16.3014Y-5.7663
X16.3091Y-2.4616
X16.3091Y-3.0906
X16.3386Y-3.3071
X16.3386Y-3.5138
X16.3484Y-3.1398
X16.3976Y-2.7657
X16.4614Y-6.9456
X16.4626Y-3.9075
X16.4628Y-5.4238
X16.4732Y-7.4299
X16.4744Y-4.3917
X16.4746Y-5.9081
X16.4764Y-3.1594
X16.4764Y-3.1988
X16.4968Y-7.4771
X16.498Y-4.439
X16.4982Y-5.9553
X16.5059Y-2.8937
X16.5059Y-2.9429
X16.5059Y-5.1969
X16.5205Y-6.9456
X16.5217Y-3.9075
X16.5218Y-5.4238
X16.5453Y-3.7697
X16.5945Y-3.6713
X16.6535Y-5.2756
X16.6732Y-2.4902
X16.6732Y-2.9429
X16.6732Y-2.9823
X16.6732Y-3.0216
X16.6929Y-3.6417
X16.7126Y-3.002
X16.7126Y-3.1791
X16.7224Y-2.4902
X16.7229Y-3.967
X16.7323Y-5.8169
X16.7323Y-6.1516
X16.7415Y-2.9048
X16.7416Y-2.8647
X16.7421Y-2.6673
X16.7421Y-2.7461
X16.7421Y-2.7854
X16.7421Y-2.8248
X16.752Y-3.002
X16.752Y-4.311
X16.752Y-5.3642
X16.7618Y-3.1791
X16.7618Y-3.8878
X16.7618Y-4.626
X16.7618Y-5.2067
X16.7717Y-2.1654
X16.7727Y-2.5455
X16.7913Y-2.4902
X16.7913Y-3.002
X16.8012Y-5.2657
X16.8022Y-3.1064
X16.8209Y-2.4046
X16.8209Y-3.7008
X16.8307Y-3.2623
X16.8307Y-3.9567
X16.8307Y-6.7421
X16.8307Y-7.0571
X16.8406Y-5.9646
X16.8406Y-6.0236
X16.8406Y-7.4902
X16.8406Y-7.5492
X16.8504Y-2.6575
X16.8504Y-4.4488
X16.8504Y-4.5079
X16.8504Y-5.3839
X16.8504Y-5.4429
X16.8594Y-3.7841
X16.8602Y-3.1299
X16.8602Y-3.2283
X16.8612Y-4.0256
X16.8898Y-2.4902
X16.8898Y-3.8091
X16.9094Y-3.2283
X16.9105Y-2.9823
X16.9193Y-3.7697
X16.9291Y-2.4331
X16.939Y-3.2776
X16.9587Y-2.4705
X16.9587Y-7.7047
X16.9587Y-7.8622
X16.9773Y-3.8101
X16.9783Y-3.8976
X16.998Y-2.372
X17.0079Y-3.9764
X17.0177Y-2.8248
X17.0177Y-3.1791
X17.0276Y-2.1358
X17.0276Y-2.2835
X17.0571Y-3.1201
X17.0714Y-3.9316
X17.1063Y-3.1201
X17.127Y-3.002
X17.1358Y-3.9567
X17.1363Y-3.9965
X17.1752Y-4.0256
X17.1757Y-4.0654
X17.1949Y-2.6575
X17.1949Y-2.7067
X17.2146Y-4.0945
X17.2441Y-4.124
X17.2736Y-2.8642
X17.2736Y-4.1535
T2
X12.4783Y-3.698
X12.4783Y-3.798
X12.4783Y-3.898
X12.4783Y-3.998
X12.7783Y-3.698
X12.7783Y-3.798
X12.7783Y-3.898
X12.7783Y-3.998
X13.2661Y-2.328
X13.2661Y-2.628
X13.3661Y-2.328
X13.3661Y-2.628
X14.5138Y-8.3854
X14.5138Y-8.5823
X14.5138Y-8.7791
X14.5138Y-8.9764
X14.5138Y-9.1728
X14.5138Y-9.3697
X14.5138Y-9.5665
X15.0138Y-8.3854
X15.0138Y-8.5823
X15.0138Y-8.7791
X15.0138Y-8.9764
X15.0138Y-9.1728
X15.0138Y-9.3697
X15.0138Y-9.5665
T3
X13.9665Y-2.1496
X13.9665Y-2.4154
X14.065Y-2.1496
X14.065Y-2.4154
X14.1634Y-2.1496
X14.1634Y-2.4154
X14.2618Y-2.1496
X14.2618Y-2.4154
T4
X12.7081Y-2.2766
X12.7081Y-2.3766
X12.7081Y-2.4766
X12.7081Y-2.5766
X12.8081Y-2.2266
X12.8081Y-2.3266
X12.8081Y-2.4266
X12.8081Y-2.5266
X12.9681Y-2.2766
X12.9681Y-2.3766
X12.9681Y-2.4766
X12.9681Y-2.5766
X13.0681Y-2.2266
X13.0681Y-2.3266
X13.0681Y-2.4266
X13.0681Y-2.5266
T5
X15.602Y-2.3244
X15.7366Y-3.35
X15.7366Y-3.55
X15.802Y-2.3244
T6
X15.202Y-2.3244
X15.2165Y-2.4803
X15.302Y-2.3244
X15.6102Y-2.4803
X15.7366Y-2.95
X15.7366Y-3.05
X16.2598Y-3.3067
X16.2598Y-3.4067
X16.4173Y-3.3061
X16.4173Y-3.4061
X16.5742Y-2.1238
X16.5742Y-2.2238
X16.5742Y-2.3238
X16.6742Y-2.1238
X16.6742Y-2.2238
X16.6742Y-2.3238
T7
X15.4964Y-7.4622
X15.4964Y-7.5622
X15.4964Y-7.6622
X15.4964Y-7.8622
X15.4996Y-4.422
X15.4996Y-4.522
X15.4996Y-4.622
X15.4996Y-4.822
X15.4996Y-5.9378
X15.4996Y-6.0378
X15.4996Y-6.1378
X15.4996Y-6.3378
X15.7315Y-7.6688
X15.7315Y-7.8688
X15.7315Y-7.9688
X15.7315Y-8.0688
X15.7346Y-4.6287
X15.7346Y-4.8287
X15.7346Y-4.9287
X15.7346Y-5.0287
X15.7346Y-6.1445
X15.7346Y-6.3445
X15.7346Y-6.4445
X15.7346Y-6.5445
T8
X12.6289Y-2.9055
X12.6289Y-3.0709
X12.6289Y-3.2362
X12.6289Y-8.1063
X12.6289Y-8.2717
X12.7067Y-5.5374
X12.7067Y-5.7618
X12.7077Y-4.9665
X12.7077Y-5.1909
X12.7077Y-6.4545
X12.7077Y-6.6789
X12.7077Y-6.9033
X12.7077Y-7.1278
X12.8455Y-2.9055
X12.8455Y-3.0709
X12.8455Y-3.2362
X12.8455Y-8.1063
X12.8455Y-8.2717
X12.9232Y-5.5374
X12.9232Y-5.7618
X12.9242Y-4.9665
X12.9242Y-5.1909
X12.9242Y-6.4545
X12.9242Y-6.6789
X12.9242Y-6.9033
X12.9242Y-7.1278
T9
X12.6568Y-9.2717
X13.0505Y-9.2717
X13.2205Y-4.362
X13.2205Y-5.8384
X13.2205Y-6.114
X13.2205Y-7.5904
X13.4245Y-8.3268
X13.8182Y-8.3268
X14.0197Y-4.362
X14.0197Y-5.8384
X14.0197Y-6.114
X14.0197Y-7.5904
T10
X12.4016Y-4.6063
X12.4016Y-6.1024
X12.4016Y-7.7559
X13.5827Y-9.685
X14.685Y-5.5118
X14.7244Y-7.126
X17.4803Y-2.2441
X17.4803Y-3.8583
X17.4803Y-6.1811
X17.4803Y-8.4252
X17.4803Y-9.685
T0
M30
