%TF.GenerationSoftware,KiCad,Pcbnew,(6.0.9)*%
%TF.CreationDate,2023-06-11T12:51:52-04:00*%
%TF.ProjectId,HV servo drive v1,48562073-6572-4766-9f20-647269766520,rev?*%
%TF.SameCoordinates,Original*%
%TF.FileFunction,Soldermask,Bot*%
%TF.FilePolarity,Negative*%
%FSLAX46Y46*%
G04 Gerber Fmt 4.6, Leading zero omitted, Abs format (unit mm)*
G04 Created by KiCad (PCBNEW (6.0.9)) date 2023-06-11 12:51:52*
%MOMM*%
%LPD*%
G01*
G04 APERTURE LIST*
G04 Aperture macros list*
%AMRoundRect*
0 Rectangle with rounded corners*
0 $1 Rounding radius*
0 $2 $3 $4 $5 $6 $7 $8 $9 X,Y pos of 4 corners*
0 Add a 4 corners polygon primitive as box body*
4,1,4,$2,$3,$4,$5,$6,$7,$8,$9,$2,$3,0*
0 Add four circle primitives for the rounded corners*
1,1,$1+$1,$2,$3*
1,1,$1+$1,$4,$5*
1,1,$1+$1,$6,$7*
1,1,$1+$1,$8,$9*
0 Add four rect primitives between the rounded corners*
20,1,$1+$1,$2,$3,$4,$5,0*
20,1,$1+$1,$4,$5,$6,$7,0*
20,1,$1+$1,$6,$7,$8,$9,0*
20,1,$1+$1,$8,$9,$2,$3,0*%
G04 Aperture macros list end*
%ADD10C,5.600000*%
%ADD11C,3.600000*%
%ADD12C,4.000000*%
%ADD13R,1.700000X1.700000*%
%ADD14O,1.700000X1.700000*%
%ADD15RoundRect,0.250000X-0.250000X-0.475000X0.250000X-0.475000X0.250000X0.475000X-0.250000X0.475000X0*%
%ADD16C,1.600000*%
%ADD17O,1.600000X1.600000*%
%ADD18RoundRect,0.200000X0.200000X0.275000X-0.200000X0.275000X-0.200000X-0.275000X0.200000X-0.275000X0*%
%ADD19RoundRect,0.250001X0.799999X0.799999X-0.799999X0.799999X-0.799999X-0.799999X0.799999X-0.799999X0*%
%ADD20C,2.100000*%
%ADD21RoundRect,0.225000X0.225000X0.250000X-0.225000X0.250000X-0.225000X-0.250000X0.225000X-0.250000X0*%
%ADD22RoundRect,0.225000X-0.250000X0.225000X-0.250000X-0.225000X0.250000X-0.225000X0.250000X0.225000X0*%
%ADD23RoundRect,0.200000X0.275000X-0.200000X0.275000X0.200000X-0.275000X0.200000X-0.275000X-0.200000X0*%
%ADD24RoundRect,0.250000X-0.850000X0.375000X-0.850000X-0.375000X0.850000X-0.375000X0.850000X0.375000X0*%
%ADD25RoundRect,0.225000X0.250000X-0.225000X0.250000X0.225000X-0.250000X0.225000X-0.250000X-0.225000X0*%
%ADD26R,1.600000X1.600000*%
%ADD27C,1.524000*%
%ADD28C,2.159000*%
%ADD29C,3.683000*%
%ADD30C,1.905000*%
%ADD31R,0.508000X0.904700*%
%ADD32RoundRect,0.200000X-0.200000X-0.275000X0.200000X-0.275000X0.200000X0.275000X-0.200000X0.275000X0*%
%ADD33RoundRect,0.150000X-0.150000X0.587500X-0.150000X-0.587500X0.150000X-0.587500X0.150000X0.587500X0*%
%ADD34C,2.000000*%
%ADD35O,3.600000X3.600000*%
%ADD36R,4.500000X1.905000*%
%ADD37O,4.500000X1.905000*%
%ADD38R,3.352800X5.207000*%
%ADD39RoundRect,0.250000X0.250000X0.475000X-0.250000X0.475000X-0.250000X-0.475000X0.250000X-0.475000X0*%
%ADD40O,0.299999X1.350000*%
%ADD41RoundRect,0.250000X0.850000X-0.375000X0.850000X0.375000X-0.850000X0.375000X-0.850000X-0.375000X0*%
G04 APERTURE END LIST*
D10*
%TO.C,H4*%
X108458000Y-99822000D03*
D11*
X108458000Y-99822000D03*
%TD*%
D10*
%TO.C,H3*%
X108458000Y-146050000D03*
D11*
X108458000Y-146050000D03*
%TD*%
D12*
%TO.C,C9*%
X199638000Y-98552000D03*
X179338000Y-98552000D03*
X199638000Y-61052000D03*
X179338000Y-61052000D03*
%TD*%
%TO.C,C8*%
X179330000Y-104140000D03*
X199630000Y-104140000D03*
X179330000Y-141640000D03*
X199630000Y-141640000D03*
%TD*%
D10*
%TO.C,H2*%
X194310000Y-55118000D03*
D11*
X194310000Y-55118000D03*
%TD*%
%TO.C,H1*%
X194310000Y-147574000D03*
D10*
X194310000Y-147574000D03*
%TD*%
D13*
%TO.C,J3*%
X127254000Y-96774000D03*
D14*
X124714000Y-96774000D03*
X127254000Y-94234000D03*
X124714000Y-94234000D03*
X127254000Y-91694000D03*
X124714000Y-91694000D03*
%TD*%
D13*
%TO.C,TH3*%
X139192000Y-92451000D03*
D14*
X139192000Y-94991000D03*
%TD*%
D13*
%TO.C,TH2*%
X131572000Y-92451000D03*
D14*
X131572000Y-94991000D03*
%TD*%
D13*
%TO.C,TH1*%
X135382000Y-92451000D03*
D14*
X135382000Y-94991000D03*
%TD*%
D15*
%TO.C,C42*%
X117668000Y-96266000D03*
X119568000Y-96266000D03*
%TD*%
D16*
%TO.C,R44*%
X143002000Y-145542000D03*
D17*
X143002000Y-132842000D03*
%TD*%
D18*
%TO.C,R9*%
X121475000Y-119126000D03*
X119825000Y-119126000D03*
%TD*%
D19*
%TO.C,J6*%
X194592000Y-135382000D03*
D20*
X189992000Y-135382000D03*
X185392000Y-135382000D03*
%TD*%
D18*
%TO.C,R32*%
X129857000Y-121412000D03*
X128207000Y-121412000D03*
%TD*%
D21*
%TO.C,C22*%
X131839000Y-107188000D03*
X130289000Y-107188000D03*
%TD*%
D22*
%TO.C,C38*%
X105918000Y-124947749D03*
X105918000Y-123397749D03*
%TD*%
D16*
%TO.C,R40*%
X133858000Y-145542000D03*
D17*
X133858000Y-132842000D03*
%TD*%
D18*
%TO.C,R8*%
X121475000Y-116586000D03*
X119825000Y-116586000D03*
%TD*%
D16*
%TO.C,R29*%
X115570000Y-145542000D03*
D17*
X115570000Y-132842000D03*
%TD*%
D18*
%TO.C,R37*%
X132397000Y-97282000D03*
X130747000Y-97282000D03*
%TD*%
D22*
%TO.C,C37*%
X114554000Y-90665000D03*
X114554000Y-92215000D03*
%TD*%
D23*
%TO.C,R31*%
X129032000Y-130111000D03*
X129032000Y-128461000D03*
%TD*%
D24*
%TO.C,L2*%
X115316000Y-94683000D03*
X115316000Y-96833000D03*
%TD*%
D15*
%TO.C,C46*%
X117668000Y-101600000D03*
X119568000Y-101600000D03*
%TD*%
D18*
%TO.C,R7*%
X121475000Y-114046000D03*
X119825000Y-114046000D03*
%TD*%
D25*
%TO.C,C40*%
X120142000Y-92723000D03*
X120142000Y-91173000D03*
%TD*%
D26*
%TO.C,SW1*%
X116088000Y-114056000D03*
D17*
X116088000Y-116596000D03*
X116088000Y-119136000D03*
X116088000Y-121676000D03*
X123708000Y-121676000D03*
X123708000Y-119136000D03*
X123708000Y-116596000D03*
X123708000Y-114056000D03*
%TD*%
D15*
%TO.C,C45*%
X110932000Y-128998749D03*
X109032000Y-128998749D03*
%TD*%
D27*
%TO.C,J1*%
X127127000Y-64325500D03*
X128397000Y-63055500D03*
X129667000Y-64325500D03*
X130937000Y-63055500D03*
X132207000Y-64325500D03*
X133477000Y-63055500D03*
X134747000Y-64325500D03*
X136017000Y-63055500D03*
D28*
X123698000Y-53657500D03*
X139446000Y-53657500D03*
D29*
X125857000Y-56705500D03*
X137287000Y-56705500D03*
%TD*%
D18*
%TO.C,R24*%
X136207000Y-97282000D03*
X134557000Y-97282000D03*
%TD*%
D30*
%TO.C,J4*%
X189484901Y-78466651D03*
X189484901Y-87966649D03*
X189484901Y-97466648D03*
X189484901Y-106966647D03*
X189484901Y-116466646D03*
X189484901Y-125966645D03*
%TD*%
D19*
%TO.C,J5*%
X124770000Y-148844000D03*
D20*
X120170000Y-148844000D03*
X115570000Y-148844000D03*
%TD*%
D31*
%TO.C,U8*%
X116397999Y-90136749D03*
X117348000Y-90136749D03*
X118298001Y-90136749D03*
X118298001Y-92743251D03*
X117348000Y-92743251D03*
X116397999Y-92743251D03*
%TD*%
D18*
%TO.C,R35*%
X109919000Y-120904000D03*
X111569000Y-120904000D03*
%TD*%
D16*
%TO.C,R27*%
X120142000Y-145542000D03*
D17*
X120142000Y-132842000D03*
%TD*%
D31*
%TO.C,U9*%
X107761999Y-125476000D03*
X108712000Y-125476000D03*
X109662001Y-125476000D03*
X109662001Y-122869498D03*
X108712000Y-122869498D03*
X107761999Y-122869498D03*
%TD*%
D24*
%TO.C,L3*%
X106680000Y-129565749D03*
X106680000Y-127415749D03*
%TD*%
D18*
%TO.C,R34*%
X117157000Y-88138000D03*
X115507000Y-88138000D03*
%TD*%
D19*
%TO.C,J7*%
X138458000Y-148844000D03*
D20*
X133858000Y-148844000D03*
X129258000Y-148844000D03*
%TD*%
D32*
%TO.C,R14*%
X117285000Y-108712000D03*
X118935000Y-108712000D03*
%TD*%
D21*
%TO.C,C27*%
X136157000Y-98806000D03*
X134607000Y-98806000D03*
%TD*%
%TO.C,C26*%
X127013000Y-124714000D03*
X125463000Y-124714000D03*
%TD*%
D33*
%TO.C,D11*%
X128082000Y-123522500D03*
X129982000Y-123522500D03*
X129032000Y-125397500D03*
%TD*%
D15*
%TO.C,C44*%
X117668000Y-98298000D03*
X119568000Y-98298000D03*
%TD*%
D13*
%TO.C,M2*%
X131328000Y-72898000D03*
D14*
X133868000Y-72898000D03*
X136408000Y-72898000D03*
X138948000Y-72898000D03*
%TD*%
D21*
%TO.C,C39*%
X139967000Y-98806000D03*
X138417000Y-98806000D03*
%TD*%
D25*
%TO.C,C41*%
X111506000Y-123905749D03*
X111506000Y-125455749D03*
%TD*%
D32*
%TO.C,R13*%
X117285000Y-106680000D03*
X118935000Y-106680000D03*
%TD*%
D18*
%TO.C,R36*%
X106871000Y-120904000D03*
X108521000Y-120904000D03*
%TD*%
%TO.C,R33*%
X120205000Y-88138000D03*
X118555000Y-88138000D03*
%TD*%
D24*
%TO.C,L4*%
X115316000Y-99509000D03*
X115316000Y-101659000D03*
%TD*%
D23*
%TO.C,R16*%
X127000000Y-134175000D03*
X127000000Y-132525000D03*
%TD*%
D16*
%TO.C,R25*%
X124714000Y-145542000D03*
D17*
X124714000Y-132842000D03*
%TD*%
D21*
%TO.C,C31*%
X129807000Y-119888000D03*
X128257000Y-119888000D03*
%TD*%
D34*
%TO.C,U7*%
X110007825Y-79435425D03*
X110007825Y-76895425D03*
X110007825Y-87055425D03*
X110007825Y-92135425D03*
%TD*%
D13*
%TO.C,M1*%
X119644000Y-72898000D03*
D14*
X122184000Y-72898000D03*
X124724000Y-72898000D03*
X127264000Y-72898000D03*
%TD*%
D18*
%TO.C,R15*%
X121475000Y-121666000D03*
X119825000Y-121666000D03*
%TD*%
D15*
%TO.C,C43*%
X110932000Y-131030749D03*
X109032000Y-131030749D03*
%TD*%
D16*
%TO.C,R42*%
X129286000Y-145542000D03*
D17*
X129286000Y-132842000D03*
%TD*%
D18*
%TO.C,R46*%
X140017000Y-97282000D03*
X138367000Y-97282000D03*
%TD*%
D33*
%TO.C,D7*%
X125542000Y-128856500D03*
X127442000Y-128856500D03*
X126492000Y-130731500D03*
%TD*%
D27*
%TO.C,J2*%
X108585000Y-64325500D03*
X109855000Y-63055500D03*
X111125000Y-64325500D03*
X112395000Y-63055500D03*
X113665000Y-64325500D03*
X114935000Y-63055500D03*
X116205000Y-64325500D03*
X117475000Y-63055500D03*
D28*
X105156000Y-53657500D03*
X120904000Y-53657500D03*
D29*
X107315000Y-56705500D03*
X118745000Y-56705500D03*
%TD*%
D21*
%TO.C,C32*%
X132347000Y-98806000D03*
X130797000Y-98806000D03*
%TD*%
D16*
%TO.C,R38*%
X138430000Y-145542000D03*
D17*
X138430000Y-132842000D03*
%TD*%
D18*
%TO.C,R17*%
X127063000Y-126238000D03*
X125413000Y-126238000D03*
%TD*%
D35*
%TO.C,Q1*%
X152050000Y-109474000D03*
D36*
X171910000Y-114554000D03*
D37*
X171910000Y-109474000D03*
X171910000Y-106934000D03*
X171910000Y-104394000D03*
%TD*%
D38*
%TO.C,R63*%
X177863500Y-75184000D03*
X182308500Y-75184000D03*
%TD*%
D25*
%TO.C,C11*%
X110998000Y-73419000D03*
X110998000Y-71869000D03*
%TD*%
D35*
%TO.C,Q5*%
X152050000Y-142494000D03*
D36*
X171910000Y-147574000D03*
D37*
X171910000Y-142494000D03*
X171910000Y-139954000D03*
X171910000Y-137414000D03*
%TD*%
D35*
%TO.C,Q2*%
X152050000Y-92964000D03*
D36*
X171910000Y-98044000D03*
D37*
X171910000Y-92964000D03*
X171910000Y-90424000D03*
X171910000Y-87884000D03*
%TD*%
D31*
%TO.C,U6*%
X109154001Y-74201251D03*
X108204000Y-74201251D03*
X107253999Y-74201251D03*
X107253999Y-71594749D03*
X108204000Y-71594749D03*
X109154001Y-71594749D03*
%TD*%
D38*
%TO.C,R61*%
X177863500Y-111506000D03*
X182308500Y-111506000D03*
%TD*%
D35*
%TO.C,Q4*%
X152050000Y-59944000D03*
D36*
X171910000Y-65024000D03*
D37*
X171910000Y-59944000D03*
X171910000Y-57404000D03*
X171910000Y-54864000D03*
%TD*%
D39*
%TO.C,C19*%
X107376000Y-67818000D03*
X105476000Y-67818000D03*
%TD*%
D23*
%TO.C,R1*%
X117602000Y-72961000D03*
X117602000Y-71311000D03*
%TD*%
D40*
%TO.C,U1*%
X117078001Y-79186999D03*
X116578002Y-79186999D03*
X116078000Y-79186999D03*
X115578001Y-79186999D03*
X115077999Y-79186999D03*
X115077999Y-74736998D03*
X115578001Y-74736998D03*
X116078000Y-74736998D03*
X116578002Y-74736998D03*
X117078001Y-74736998D03*
%TD*%
D35*
%TO.C,Q6*%
X152050000Y-125984000D03*
D36*
X171910000Y-131064000D03*
D37*
X171910000Y-125984000D03*
X171910000Y-123444000D03*
X171910000Y-120904000D03*
%TD*%
D23*
%TO.C,R4*%
X114554000Y-72961000D03*
X114554000Y-71311000D03*
%TD*%
D38*
%TO.C,R65*%
X177863500Y-147320000D03*
X182308500Y-147320000D03*
%TD*%
D32*
%TO.C,R5*%
X105347000Y-77724000D03*
X106997000Y-77724000D03*
%TD*%
D39*
%TO.C,C16*%
X107376000Y-65786000D03*
X105476000Y-65786000D03*
%TD*%
D23*
%TO.C,R2*%
X116078000Y-72961000D03*
X116078000Y-71311000D03*
%TD*%
%TO.C,R3*%
X113030000Y-72961000D03*
X113030000Y-71311000D03*
%TD*%
D18*
%TO.C,R6*%
X106997000Y-75946000D03*
X105347000Y-75946000D03*
%TD*%
D22*
%TO.C,C1*%
X118618000Y-75425000D03*
X118618000Y-76975000D03*
%TD*%
D33*
%TO.C,D2*%
X112588000Y-67642500D03*
X114488000Y-67642500D03*
X113538000Y-69517500D03*
%TD*%
D41*
%TO.C,L1*%
X109474000Y-69909000D03*
X109474000Y-67759000D03*
%TD*%
D35*
%TO.C,Q3*%
X152050000Y-76454000D03*
D36*
X171910000Y-81534000D03*
D37*
X171910000Y-76454000D03*
X171910000Y-73914000D03*
X171910000Y-71374000D03*
%TD*%
D22*
%TO.C,C13*%
X105410000Y-71615000D03*
X105410000Y-73165000D03*
%TD*%
D33*
%TO.C,D1*%
X116144000Y-67642500D03*
X118044000Y-67642500D03*
X117094000Y-69517500D03*
%TD*%
M02*
