%TF.GenerationSoftware,KiCad,Pcbnew,(6.0.9)*%
%TF.CreationDate,2023-06-09T19:15:00-04:00*%
%TF.ProjectId,HV servo drive v1,48562073-6572-4766-9f20-647269766520,rev?*%
%TF.SameCoordinates,Original*%
%TF.FileFunction,OtherDrawing,Comment*%
%FSLAX46Y46*%
G04 Gerber Fmt 4.6, Leading zero omitted, Abs format (unit mm)*
G04 Created by KiCad (PCBNEW (6.0.9)) date 2023-06-09 19:15:00*
%MOMM*%
%LPD*%
G01*
G04 APERTURE LIST*
%ADD10C,0.180000*%
%ADD11C,0.100000*%
%ADD12C,0.300000*%
%ADD13C,0.200000*%
%ADD14C,0.125000*%
%ADD15C,0.150000*%
%ADD16C,0.400000*%
G04 APERTURE END LIST*
D10*
X190898373Y-145082808D02*
G75*
G03*
X190898373Y-145082808I-3810000J0D01*
G01*
X190098880Y-144218474D02*
G75*
G03*
X189342162Y-142907800I-3010507J-864334D01*
G01*
X189342166Y-142907796D02*
G75*
G03*
X189118044Y-142913003I-109663J-105832D01*
G01*
X187633829Y-144601181D02*
X189118044Y-142913003D01*
X187633820Y-144601174D02*
G75*
G03*
X187778202Y-144851243I114453J-100634D01*
G01*
X189982315Y-144409964D02*
X187778202Y-144851243D01*
X189982313Y-144409955D02*
G75*
G03*
X190098879Y-144218474I-29940J149447D01*
G01*
X189342161Y-147257815D02*
G75*
G03*
X190098879Y-145947142I-2253788J2175007D01*
G01*
X190098878Y-145947142D02*
G75*
G03*
X189982315Y-145755652I-146485J42054D01*
G01*
X187778202Y-145314373D02*
X189982315Y-145755652D01*
X187778200Y-145314383D02*
G75*
G03*
X187633829Y-145564435I-29927J-149425D01*
G01*
X189118044Y-147252613D02*
X187633829Y-145564435D01*
X189118048Y-147252609D02*
G75*
G03*
X189342162Y-147257816I114455J100621D01*
G01*
X186331655Y-148122150D02*
G75*
G03*
X187845091Y-148122150I756718J3039355D01*
G01*
X187845104Y-148122203D02*
G75*
G03*
X187952644Y-147925457I-36831J147895D01*
G01*
X187232746Y-145796000D02*
X187952644Y-147925457D01*
X187232746Y-145796000D02*
G75*
G03*
X186944000Y-145796000I-144373J-48808D01*
G01*
X186224102Y-147925457D02*
X186944000Y-145796000D01*
X186224102Y-147925457D02*
G75*
G03*
X186331655Y-148122150I144374J-48807D01*
G01*
X184077867Y-145947142D02*
G75*
G03*
X184834584Y-147257816I3010500J864329D01*
G01*
X184834584Y-147257816D02*
G75*
G03*
X185058702Y-147252613I109662J105831D01*
G01*
X186542917Y-145564435D02*
X185058702Y-147252613D01*
X186542916Y-145564435D02*
G75*
G03*
X186398544Y-145314373I-114455J100627D01*
G01*
X184194431Y-145755652D02*
X186398544Y-145314373D01*
X184194431Y-145755652D02*
G75*
G03*
X184077867Y-145947142I29918J-149434D01*
G01*
X184834584Y-142907800D02*
G75*
G03*
X184077867Y-144218474I2253783J-2175003D01*
G01*
X184077868Y-144218474D02*
G75*
G03*
X184194431Y-144409964I146481J-42056D01*
G01*
X186398544Y-144851243D02*
X184194431Y-144409964D01*
X186398544Y-144851244D02*
G75*
G03*
X186542917Y-144601181I29917J149436D01*
G01*
X185058702Y-142913003D02*
X186542917Y-144601181D01*
X185058702Y-142913003D02*
G75*
G03*
X184834584Y-142907800I-114456J-100628D01*
G01*
X186944000Y-144369616D02*
G75*
G03*
X187232746Y-144369616I144373J48808D01*
G01*
X187952644Y-142240159D02*
X187232746Y-144369616D01*
X187952641Y-142240158D02*
G75*
G03*
X187845091Y-142043466I-144368J48810D01*
G01*
X187845091Y-142043466D02*
G75*
G03*
X186331655Y-142043466I-756718J-3039355D01*
G01*
X186331655Y-142043466D02*
G75*
G03*
X186224102Y-142240159I36821J-147886D01*
G01*
X186944000Y-144369616D02*
X186224102Y-142240159D01*
D11*
X133262761Y-75098714D02*
X133286571Y-75063000D01*
X133334190Y-75027285D01*
X133453238Y-75027285D01*
X133500857Y-75063000D01*
X133524666Y-75098714D01*
X133548476Y-75170142D01*
X133548476Y-75241571D01*
X133524666Y-75348714D01*
X133238952Y-75777285D01*
X133548476Y-75777285D01*
X133977047Y-75277285D02*
X133977047Y-75777285D01*
X133858000Y-74991571D02*
X133738952Y-75527285D01*
X134048476Y-75527285D01*
X134167523Y-75027285D02*
X134334190Y-75777285D01*
X134500857Y-75027285D01*
X130937047Y-75063000D02*
X130889428Y-75027285D01*
X130818000Y-75027285D01*
X130746571Y-75063000D01*
X130698952Y-75134428D01*
X130675142Y-75205857D01*
X130651333Y-75348714D01*
X130651333Y-75455857D01*
X130675142Y-75598714D01*
X130698952Y-75670142D01*
X130746571Y-75741571D01*
X130818000Y-75777285D01*
X130865619Y-75777285D01*
X130937047Y-75741571D01*
X130960857Y-75705857D01*
X130960857Y-75455857D01*
X130865619Y-75455857D01*
X131175142Y-75777285D02*
X131175142Y-75027285D01*
X131460857Y-75777285D01*
X131460857Y-75027285D01*
X131698952Y-75777285D02*
X131698952Y-75027285D01*
X131818000Y-75027285D01*
X131889428Y-75063000D01*
X131937047Y-75134428D01*
X131960857Y-75205857D01*
X131984666Y-75348714D01*
X131984666Y-75455857D01*
X131960857Y-75598714D01*
X131937047Y-75670142D01*
X131889428Y-75741571D01*
X131818000Y-75777285D01*
X131698952Y-75777285D01*
X138235619Y-75777285D02*
X138235619Y-75027285D01*
X138426095Y-75027285D01*
X138473714Y-75063000D01*
X138497523Y-75098714D01*
X138521333Y-75170142D01*
X138521333Y-75277285D01*
X138497523Y-75348714D01*
X138473714Y-75384428D01*
X138426095Y-75420142D01*
X138235619Y-75420142D01*
X138688000Y-75027285D02*
X138807047Y-75777285D01*
X138902285Y-75241571D01*
X138997523Y-75777285D01*
X139116571Y-75027285D01*
X139307047Y-75777285D02*
X139307047Y-75027285D01*
X139473714Y-75563000D01*
X139640380Y-75027285D01*
X139640380Y-75777285D01*
X135528952Y-75027285D02*
X135814666Y-75027285D01*
X135671809Y-75777285D02*
X135671809Y-75027285D01*
X135957523Y-75563000D02*
X136195619Y-75563000D01*
X135909904Y-75777285D02*
X136076571Y-75027285D01*
X136243238Y-75777285D01*
X136695619Y-75705857D02*
X136671809Y-75741571D01*
X136600380Y-75777285D01*
X136552761Y-75777285D01*
X136481333Y-75741571D01*
X136433714Y-75670142D01*
X136409904Y-75598714D01*
X136386095Y-75455857D01*
X136386095Y-75348714D01*
X136409904Y-75205857D01*
X136433714Y-75134428D01*
X136481333Y-75063000D01*
X136552761Y-75027285D01*
X136600380Y-75027285D01*
X136671809Y-75063000D01*
X136695619Y-75098714D01*
X136909904Y-75777285D02*
X136909904Y-75027285D01*
X136909904Y-75384428D02*
X137195619Y-75384428D01*
X137195619Y-75777285D02*
X137195619Y-75027285D01*
X126551619Y-75777285D02*
X126551619Y-75027285D01*
X126742095Y-75027285D01*
X126789714Y-75063000D01*
X126813523Y-75098714D01*
X126837333Y-75170142D01*
X126837333Y-75277285D01*
X126813523Y-75348714D01*
X126789714Y-75384428D01*
X126742095Y-75420142D01*
X126551619Y-75420142D01*
X127004000Y-75027285D02*
X127123047Y-75777285D01*
X127218285Y-75241571D01*
X127313523Y-75777285D01*
X127432571Y-75027285D01*
X127623047Y-75777285D02*
X127623047Y-75027285D01*
X127789714Y-75563000D01*
X127956380Y-75027285D01*
X127956380Y-75777285D01*
X123844952Y-75027285D02*
X124130666Y-75027285D01*
X123987809Y-75777285D02*
X123987809Y-75027285D01*
X124273523Y-75563000D02*
X124511619Y-75563000D01*
X124225904Y-75777285D02*
X124392571Y-75027285D01*
X124559238Y-75777285D01*
X125011619Y-75705857D02*
X124987809Y-75741571D01*
X124916380Y-75777285D01*
X124868761Y-75777285D01*
X124797333Y-75741571D01*
X124749714Y-75670142D01*
X124725904Y-75598714D01*
X124702095Y-75455857D01*
X124702095Y-75348714D01*
X124725904Y-75205857D01*
X124749714Y-75134428D01*
X124797333Y-75063000D01*
X124868761Y-75027285D01*
X124916380Y-75027285D01*
X124987809Y-75063000D01*
X125011619Y-75098714D01*
X125225904Y-75777285D02*
X125225904Y-75027285D01*
X125225904Y-75384428D02*
X125511619Y-75384428D01*
X125511619Y-75777285D02*
X125511619Y-75027285D01*
X121578761Y-75098714D02*
X121602571Y-75063000D01*
X121650190Y-75027285D01*
X121769238Y-75027285D01*
X121816857Y-75063000D01*
X121840666Y-75098714D01*
X121864476Y-75170142D01*
X121864476Y-75241571D01*
X121840666Y-75348714D01*
X121554952Y-75777285D01*
X121864476Y-75777285D01*
X122293047Y-75277285D02*
X122293047Y-75777285D01*
X122174000Y-74991571D02*
X122054952Y-75527285D01*
X122364476Y-75527285D01*
X122483523Y-75027285D02*
X122650190Y-75777285D01*
X122816857Y-75027285D01*
X119253047Y-75063000D02*
X119205428Y-75027285D01*
X119134000Y-75027285D01*
X119062571Y-75063000D01*
X119014952Y-75134428D01*
X118991142Y-75205857D01*
X118967333Y-75348714D01*
X118967333Y-75455857D01*
X118991142Y-75598714D01*
X119014952Y-75670142D01*
X119062571Y-75741571D01*
X119134000Y-75777285D01*
X119181619Y-75777285D01*
X119253047Y-75741571D01*
X119276857Y-75705857D01*
X119276857Y-75455857D01*
X119181619Y-75455857D01*
X119491142Y-75777285D02*
X119491142Y-75027285D01*
X119776857Y-75777285D01*
X119776857Y-75027285D01*
X120014952Y-75777285D02*
X120014952Y-75027285D01*
X120134000Y-75027285D01*
X120205428Y-75063000D01*
X120253047Y-75134428D01*
X120276857Y-75205857D01*
X120300666Y-75348714D01*
X120300666Y-75455857D01*
X120276857Y-75598714D01*
X120253047Y-75670142D01*
X120205428Y-75741571D01*
X120134000Y-75777285D01*
X120014952Y-75777285D01*
D12*
X132683333Y-77327142D02*
X132016666Y-77327142D01*
X132016666Y-78374761D02*
X132016666Y-76374761D01*
X132969047Y-76374761D01*
X133635714Y-76565238D02*
X133730952Y-76470000D01*
X133921428Y-76374761D01*
X134397619Y-76374761D01*
X134588095Y-76470000D01*
X134683333Y-76565238D01*
X134778571Y-76755714D01*
X134778571Y-76946190D01*
X134683333Y-77231904D01*
X133540476Y-78374761D01*
X134778571Y-78374761D01*
X120999333Y-77327142D02*
X120332666Y-77327142D01*
X120332666Y-78374761D02*
X120332666Y-76374761D01*
X121285047Y-76374761D01*
X123094571Y-78374761D02*
X121951714Y-78374761D01*
X122523142Y-78374761D02*
X122523142Y-76374761D01*
X122332666Y-76660476D01*
X122142190Y-76850952D01*
X121951714Y-76946190D01*
D13*
X178958761Y-137079809D02*
X176958761Y-137079809D01*
X177911142Y-137079809D02*
X177911142Y-135936952D01*
X178958761Y-135936952D02*
X176958761Y-135936952D01*
X176958761Y-135270285D02*
X178958761Y-134603619D01*
X176958761Y-133936952D01*
X178863523Y-133365523D02*
X178958761Y-133079809D01*
X178958761Y-132603619D01*
X178863523Y-132413142D01*
X178768285Y-132317904D01*
X178577809Y-132222666D01*
X178387333Y-132222666D01*
X178196857Y-132317904D01*
X178101619Y-132413142D01*
X178006380Y-132603619D01*
X177911142Y-132984571D01*
X177815904Y-133175047D01*
X177720666Y-133270285D01*
X177530190Y-133365523D01*
X177339714Y-133365523D01*
X177149238Y-133270285D01*
X177054000Y-133175047D01*
X176958761Y-132984571D01*
X176958761Y-132508380D01*
X177054000Y-132222666D01*
X178958761Y-131365523D02*
X176958761Y-131365523D01*
X176958761Y-130889333D01*
X177054000Y-130603619D01*
X177244476Y-130413142D01*
X177434952Y-130317904D01*
X177815904Y-130222666D01*
X178101619Y-130222666D01*
X178482571Y-130317904D01*
X178673047Y-130413142D01*
X178863523Y-130603619D01*
X178958761Y-130889333D01*
X178958761Y-131365523D01*
X178958761Y-126794095D02*
X178958761Y-127936952D01*
X178958761Y-127365523D02*
X176958761Y-127365523D01*
X177244476Y-127556000D01*
X177434952Y-127746476D01*
X177530190Y-127936952D01*
X178768285Y-125936952D02*
X178863523Y-125841714D01*
X178958761Y-125936952D01*
X178863523Y-126032190D01*
X178768285Y-125936952D01*
X178958761Y-125936952D01*
X176958761Y-124603619D02*
X176958761Y-124413142D01*
X177054000Y-124222666D01*
X177149238Y-124127428D01*
X177339714Y-124032190D01*
X177720666Y-123936952D01*
X178196857Y-123936952D01*
X178577809Y-124032190D01*
X178768285Y-124127428D01*
X178863523Y-124222666D01*
X178958761Y-124413142D01*
X178958761Y-124603619D01*
X178863523Y-124794095D01*
X178768285Y-124889333D01*
X178577809Y-124984571D01*
X178196857Y-125079809D01*
X177720666Y-125079809D01*
X177339714Y-124984571D01*
X177149238Y-124889333D01*
X177054000Y-124794095D01*
X176958761Y-124603619D01*
D12*
X184374761Y-71134761D02*
X182374761Y-71134761D01*
X182374761Y-70372857D01*
X182470000Y-70182380D01*
X182565238Y-70087142D01*
X182755714Y-69991904D01*
X183041428Y-69991904D01*
X183231904Y-70087142D01*
X183327142Y-70182380D01*
X183422380Y-70372857D01*
X183422380Y-71134761D01*
X182374761Y-68753809D02*
X182374761Y-68372857D01*
X182470000Y-68182380D01*
X182660476Y-67991904D01*
X183041428Y-67896666D01*
X183708095Y-67896666D01*
X184089047Y-67991904D01*
X184279523Y-68182380D01*
X184374761Y-68372857D01*
X184374761Y-68753809D01*
X184279523Y-68944285D01*
X184089047Y-69134761D01*
X183708095Y-69230000D01*
X183041428Y-69230000D01*
X182660476Y-69134761D01*
X182470000Y-68944285D01*
X182374761Y-68753809D01*
X182374761Y-67230000D02*
X184374761Y-66753809D01*
X182946190Y-66372857D01*
X184374761Y-65991904D01*
X182374761Y-65515714D01*
X183327142Y-64753809D02*
X183327142Y-64087142D01*
X184374761Y-63801428D02*
X184374761Y-64753809D01*
X182374761Y-64753809D01*
X182374761Y-63801428D01*
X184374761Y-61801428D02*
X183422380Y-62468095D01*
X184374761Y-62944285D02*
X182374761Y-62944285D01*
X182374761Y-62182380D01*
X182470000Y-61991904D01*
X182565238Y-61896666D01*
X182755714Y-61801428D01*
X183041428Y-61801428D01*
X183231904Y-61896666D01*
X183327142Y-61991904D01*
X183422380Y-62182380D01*
X183422380Y-62944285D01*
X182374761Y-59039523D02*
X182374761Y-58658571D01*
X182470000Y-58468095D01*
X182660476Y-58277619D01*
X183041428Y-58182380D01*
X183708095Y-58182380D01*
X184089047Y-58277619D01*
X184279523Y-58468095D01*
X184374761Y-58658571D01*
X184374761Y-59039523D01*
X184279523Y-59230000D01*
X184089047Y-59420476D01*
X183708095Y-59515714D01*
X183041428Y-59515714D01*
X182660476Y-59420476D01*
X182470000Y-59230000D01*
X182374761Y-59039523D01*
X183327142Y-56658571D02*
X183327142Y-57325238D01*
X184374761Y-57325238D02*
X182374761Y-57325238D01*
X182374761Y-56372857D01*
X183327142Y-54944285D02*
X183327142Y-55610952D01*
X184374761Y-55610952D02*
X182374761Y-55610952D01*
X182374761Y-54658571D01*
X186547142Y-66801428D02*
X186642380Y-66515714D01*
X186737619Y-66420476D01*
X186928095Y-66325238D01*
X187213809Y-66325238D01*
X187404285Y-66420476D01*
X187499523Y-66515714D01*
X187594761Y-66706190D01*
X187594761Y-67468095D01*
X185594761Y-67468095D01*
X185594761Y-66801428D01*
X185690000Y-66610952D01*
X185785238Y-66515714D01*
X185975714Y-66420476D01*
X186166190Y-66420476D01*
X186356666Y-66515714D01*
X186451904Y-66610952D01*
X186547142Y-66801428D01*
X186547142Y-67468095D01*
X186547142Y-65468095D02*
X186547142Y-64801428D01*
X187594761Y-64515714D02*
X187594761Y-65468095D01*
X185594761Y-65468095D01*
X185594761Y-64515714D01*
X186547142Y-62991904D02*
X186547142Y-63658571D01*
X187594761Y-63658571D02*
X185594761Y-63658571D01*
X185594761Y-62706190D01*
X185594761Y-61563333D02*
X185594761Y-61182380D01*
X185690000Y-60991904D01*
X185880476Y-60801428D01*
X186261428Y-60706190D01*
X186928095Y-60706190D01*
X187309047Y-60801428D01*
X187499523Y-60991904D01*
X187594761Y-61182380D01*
X187594761Y-61563333D01*
X187499523Y-61753809D01*
X187309047Y-61944285D01*
X186928095Y-62039523D01*
X186261428Y-62039523D01*
X185880476Y-61944285D01*
X185690000Y-61753809D01*
X185594761Y-61563333D01*
X187594761Y-58706190D02*
X186642380Y-59372857D01*
X187594761Y-59849047D02*
X185594761Y-59849047D01*
X185594761Y-59087142D01*
X185690000Y-58896666D01*
X185785238Y-58801428D01*
X185975714Y-58706190D01*
X186261428Y-58706190D01*
X186451904Y-58801428D01*
X186547142Y-58896666D01*
X186642380Y-59087142D01*
X186642380Y-59849047D01*
X186547142Y-57849047D02*
X186547142Y-57182380D01*
X187594761Y-56896666D02*
X187594761Y-57849047D01*
X185594761Y-57849047D01*
X185594761Y-56896666D01*
X190719523Y-69039523D02*
X190814761Y-68753809D01*
X190814761Y-68277619D01*
X190719523Y-68087142D01*
X190624285Y-67991904D01*
X190433809Y-67896666D01*
X190243333Y-67896666D01*
X190052857Y-67991904D01*
X189957619Y-68087142D01*
X189862380Y-68277619D01*
X189767142Y-68658571D01*
X189671904Y-68849047D01*
X189576666Y-68944285D01*
X189386190Y-69039523D01*
X189195714Y-69039523D01*
X189005238Y-68944285D01*
X188910000Y-68849047D01*
X188814761Y-68658571D01*
X188814761Y-68182380D01*
X188910000Y-67896666D01*
X189767142Y-67039523D02*
X189767142Y-66372857D01*
X190814761Y-66087142D02*
X190814761Y-67039523D01*
X188814761Y-67039523D01*
X188814761Y-66087142D01*
X188814761Y-65515714D02*
X190814761Y-64849047D01*
X188814761Y-64182380D01*
X190814761Y-63515714D02*
X188814761Y-63515714D01*
X190624285Y-61420476D02*
X190719523Y-61515714D01*
X190814761Y-61801428D01*
X190814761Y-61991904D01*
X190719523Y-62277619D01*
X190529047Y-62468095D01*
X190338571Y-62563333D01*
X189957619Y-62658571D01*
X189671904Y-62658571D01*
X189290952Y-62563333D01*
X189100476Y-62468095D01*
X188910000Y-62277619D01*
X188814761Y-61991904D01*
X188814761Y-61801428D01*
X188910000Y-61515714D01*
X189005238Y-61420476D01*
X190814761Y-60563333D02*
X188814761Y-60563333D01*
X190814761Y-59610952D02*
X188814761Y-59610952D01*
X190814761Y-58468095D01*
X188814761Y-58468095D01*
X188910000Y-56468095D02*
X188814761Y-56658571D01*
X188814761Y-56944285D01*
X188910000Y-57230000D01*
X189100476Y-57420476D01*
X189290952Y-57515714D01*
X189671904Y-57610952D01*
X189957619Y-57610952D01*
X190338571Y-57515714D01*
X190529047Y-57420476D01*
X190719523Y-57230000D01*
X190814761Y-56944285D01*
X190814761Y-56753809D01*
X190719523Y-56468095D01*
X190624285Y-56372857D01*
X189957619Y-56372857D01*
X189957619Y-56753809D01*
X190624285Y-55515714D02*
X190719523Y-55420476D01*
X190814761Y-55515714D01*
X190719523Y-55610952D01*
X190624285Y-55515714D01*
X190814761Y-55515714D01*
X190052857Y-55515714D02*
X188910000Y-55610952D01*
X188814761Y-55515714D01*
X188910000Y-55420476D01*
X190052857Y-55515714D01*
X188814761Y-55515714D01*
D14*
X138013428Y-97482428D02*
X138084857Y-97518142D01*
X138108666Y-97553857D01*
X138132476Y-97625285D01*
X138132476Y-97732428D01*
X138108666Y-97803857D01*
X138084857Y-97839571D01*
X138037238Y-97875285D01*
X137846761Y-97875285D01*
X137846761Y-97125285D01*
X138013428Y-97125285D01*
X138061047Y-97161000D01*
X138084857Y-97196714D01*
X138108666Y-97268142D01*
X138108666Y-97339571D01*
X138084857Y-97411000D01*
X138061047Y-97446714D01*
X138013428Y-97482428D01*
X137846761Y-97482428D01*
X138346761Y-97875285D02*
X138346761Y-97125285D01*
X138465809Y-97125285D01*
X138537238Y-97161000D01*
X138584857Y-97232428D01*
X138608666Y-97303857D01*
X138632476Y-97446714D01*
X138632476Y-97553857D01*
X138608666Y-97696714D01*
X138584857Y-97768142D01*
X138537238Y-97839571D01*
X138465809Y-97875285D01*
X138346761Y-97875285D01*
X138775333Y-97125285D02*
X139061047Y-97125285D01*
X138918190Y-97875285D02*
X138918190Y-97125285D01*
X139227714Y-97875285D02*
X139227714Y-97125285D01*
X139394380Y-97661000D01*
X139561047Y-97125285D01*
X139561047Y-97875285D01*
X139799142Y-97875285D02*
X139799142Y-97125285D01*
X139989619Y-97125285D01*
X140037238Y-97161000D01*
X140061047Y-97196714D01*
X140084857Y-97268142D01*
X140084857Y-97375285D01*
X140061047Y-97446714D01*
X140037238Y-97482428D01*
X139989619Y-97518142D01*
X139799142Y-97518142D01*
X140561047Y-97875285D02*
X140275333Y-97875285D01*
X140418190Y-97875285D02*
X140418190Y-97125285D01*
X140370571Y-97232428D01*
X140322952Y-97303857D01*
X140275333Y-97339571D01*
X134036761Y-97875285D02*
X134036761Y-97125285D01*
X134036761Y-97482428D02*
X134322476Y-97482428D01*
X134322476Y-97875285D02*
X134322476Y-97125285D01*
X134536761Y-97839571D02*
X134608190Y-97875285D01*
X134727238Y-97875285D01*
X134774857Y-97839571D01*
X134798666Y-97803857D01*
X134822476Y-97732428D01*
X134822476Y-97661000D01*
X134798666Y-97589571D01*
X134774857Y-97553857D01*
X134727238Y-97518142D01*
X134632000Y-97482428D01*
X134584380Y-97446714D01*
X134560571Y-97411000D01*
X134536761Y-97339571D01*
X134536761Y-97268142D01*
X134560571Y-97196714D01*
X134584380Y-97161000D01*
X134632000Y-97125285D01*
X134751047Y-97125285D01*
X134822476Y-97161000D01*
X134965333Y-97125285D02*
X135251047Y-97125285D01*
X135108190Y-97875285D02*
X135108190Y-97125285D01*
X135417714Y-97875285D02*
X135417714Y-97125285D01*
X135584380Y-97661000D01*
X135751047Y-97125285D01*
X135751047Y-97875285D01*
X135989142Y-97875285D02*
X135989142Y-97125285D01*
X136179619Y-97125285D01*
X136227238Y-97161000D01*
X136251047Y-97196714D01*
X136274857Y-97268142D01*
X136274857Y-97375285D01*
X136251047Y-97446714D01*
X136227238Y-97482428D01*
X136179619Y-97518142D01*
X135989142Y-97518142D01*
X136465333Y-97196714D02*
X136489142Y-97161000D01*
X136536761Y-97125285D01*
X136655809Y-97125285D01*
X136703428Y-97161000D01*
X136727238Y-97196714D01*
X136751047Y-97268142D01*
X136751047Y-97339571D01*
X136727238Y-97446714D01*
X136441523Y-97875285D01*
X136751047Y-97875285D01*
X130226761Y-97875285D02*
X130226761Y-97125285D01*
X130226761Y-97482428D02*
X130512476Y-97482428D01*
X130512476Y-97875285D02*
X130512476Y-97125285D01*
X130726761Y-97839571D02*
X130798190Y-97875285D01*
X130917238Y-97875285D01*
X130964857Y-97839571D01*
X130988666Y-97803857D01*
X131012476Y-97732428D01*
X131012476Y-97661000D01*
X130988666Y-97589571D01*
X130964857Y-97553857D01*
X130917238Y-97518142D01*
X130822000Y-97482428D01*
X130774380Y-97446714D01*
X130750571Y-97411000D01*
X130726761Y-97339571D01*
X130726761Y-97268142D01*
X130750571Y-97196714D01*
X130774380Y-97161000D01*
X130822000Y-97125285D01*
X130941047Y-97125285D01*
X131012476Y-97161000D01*
X131155333Y-97125285D02*
X131441047Y-97125285D01*
X131298190Y-97875285D02*
X131298190Y-97125285D01*
X131607714Y-97875285D02*
X131607714Y-97125285D01*
X131774380Y-97661000D01*
X131941047Y-97125285D01*
X131941047Y-97875285D01*
X132179142Y-97875285D02*
X132179142Y-97125285D01*
X132369619Y-97125285D01*
X132417238Y-97161000D01*
X132441047Y-97196714D01*
X132464857Y-97268142D01*
X132464857Y-97375285D01*
X132441047Y-97446714D01*
X132417238Y-97482428D01*
X132369619Y-97518142D01*
X132179142Y-97518142D01*
X132941047Y-97875285D02*
X132655333Y-97875285D01*
X132798190Y-97875285D02*
X132798190Y-97125285D01*
X132750571Y-97232428D01*
X132702952Y-97303857D01*
X132655333Y-97339571D01*
X118435523Y-88441571D02*
X118506952Y-88477285D01*
X118626000Y-88477285D01*
X118673619Y-88441571D01*
X118697428Y-88405857D01*
X118721238Y-88334428D01*
X118721238Y-88263000D01*
X118697428Y-88191571D01*
X118673619Y-88155857D01*
X118626000Y-88120142D01*
X118530761Y-88084428D01*
X118483142Y-88048714D01*
X118459333Y-88013000D01*
X118435523Y-87941571D01*
X118435523Y-87870142D01*
X118459333Y-87798714D01*
X118483142Y-87763000D01*
X118530761Y-87727285D01*
X118649809Y-87727285D01*
X118721238Y-87763000D01*
X118887904Y-87727285D02*
X119006952Y-88477285D01*
X119102190Y-87941571D01*
X119197428Y-88477285D01*
X119316476Y-87727285D01*
X119602190Y-87727285D02*
X119697428Y-87727285D01*
X119745047Y-87763000D01*
X119792666Y-87834428D01*
X119816476Y-87977285D01*
X119816476Y-88227285D01*
X119792666Y-88370142D01*
X119745047Y-88441571D01*
X119697428Y-88477285D01*
X119602190Y-88477285D01*
X119554571Y-88441571D01*
X119506952Y-88370142D01*
X119483142Y-88227285D01*
X119483142Y-87977285D01*
X119506952Y-87834428D01*
X119554571Y-87763000D01*
X119602190Y-87727285D01*
X116205047Y-87763000D02*
X116157428Y-87727285D01*
X116086000Y-87727285D01*
X116014571Y-87763000D01*
X115966952Y-87834428D01*
X115943142Y-87905857D01*
X115919333Y-88048714D01*
X115919333Y-88155857D01*
X115943142Y-88298714D01*
X115966952Y-88370142D01*
X116014571Y-88441571D01*
X116086000Y-88477285D01*
X116133619Y-88477285D01*
X116205047Y-88441571D01*
X116228857Y-88405857D01*
X116228857Y-88155857D01*
X116133619Y-88155857D01*
X116443142Y-88477285D02*
X116443142Y-87727285D01*
X116728857Y-88477285D01*
X116728857Y-87727285D01*
X116966952Y-88477285D02*
X116966952Y-87727285D01*
X117086000Y-87727285D01*
X117157428Y-87763000D01*
X117205047Y-87834428D01*
X117228857Y-87905857D01*
X117252666Y-88048714D01*
X117252666Y-88155857D01*
X117228857Y-88298714D01*
X117205047Y-88370142D01*
X117157428Y-88441571D01*
X117086000Y-88477285D01*
X116966952Y-88477285D01*
X115847904Y-90267285D02*
X116157428Y-90267285D01*
X115990761Y-90553000D01*
X116062190Y-90553000D01*
X116109809Y-90588714D01*
X116133619Y-90624428D01*
X116157428Y-90695857D01*
X116157428Y-90874428D01*
X116133619Y-90945857D01*
X116109809Y-90981571D01*
X116062190Y-91017285D01*
X115919333Y-91017285D01*
X115871714Y-90981571D01*
X115847904Y-90945857D01*
X116371714Y-90945857D02*
X116395523Y-90981571D01*
X116371714Y-91017285D01*
X116347904Y-90981571D01*
X116371714Y-90945857D01*
X116371714Y-91017285D01*
X116562190Y-90267285D02*
X116871714Y-90267285D01*
X116705047Y-90553000D01*
X116776476Y-90553000D01*
X116824095Y-90588714D01*
X116847904Y-90624428D01*
X116871714Y-90695857D01*
X116871714Y-90874428D01*
X116847904Y-90945857D01*
X116824095Y-90981571D01*
X116776476Y-91017285D01*
X116633619Y-91017285D01*
X116586000Y-90981571D01*
X116562190Y-90945857D01*
X117014571Y-90267285D02*
X117181238Y-91017285D01*
X117347904Y-90267285D01*
X117995047Y-90981571D02*
X118066476Y-91017285D01*
X118185523Y-91017285D01*
X118233142Y-90981571D01*
X118256952Y-90945857D01*
X118280761Y-90874428D01*
X118280761Y-90803000D01*
X118256952Y-90731571D01*
X118233142Y-90695857D01*
X118185523Y-90660142D01*
X118090285Y-90624428D01*
X118042666Y-90588714D01*
X118018857Y-90553000D01*
X117995047Y-90481571D01*
X117995047Y-90410142D01*
X118018857Y-90338714D01*
X118042666Y-90303000D01*
X118090285Y-90267285D01*
X118209333Y-90267285D01*
X118280761Y-90303000D01*
X118447428Y-90267285D02*
X118566476Y-91017285D01*
X118661714Y-90481571D01*
X118756952Y-91017285D01*
X118876000Y-90267285D01*
X119352190Y-90945857D02*
X119328380Y-90981571D01*
X119256952Y-91017285D01*
X119209333Y-91017285D01*
X119137904Y-90981571D01*
X119090285Y-90910142D01*
X119066476Y-90838714D01*
X119042666Y-90695857D01*
X119042666Y-90588714D01*
X119066476Y-90445857D01*
X119090285Y-90374428D01*
X119137904Y-90303000D01*
X119209333Y-90267285D01*
X119256952Y-90267285D01*
X119328380Y-90303000D01*
X119352190Y-90338714D01*
X119804571Y-91017285D02*
X119566476Y-91017285D01*
X119566476Y-90267285D01*
X119971238Y-91017285D02*
X119971238Y-90267285D01*
X120256952Y-91017285D02*
X120042666Y-90588714D01*
X120256952Y-90267285D02*
X119971238Y-90695857D01*
X118066476Y-93521571D02*
X118137904Y-93557285D01*
X118256952Y-93557285D01*
X118304571Y-93521571D01*
X118328380Y-93485857D01*
X118352190Y-93414428D01*
X118352190Y-93343000D01*
X118328380Y-93271571D01*
X118304571Y-93235857D01*
X118256952Y-93200142D01*
X118161714Y-93164428D01*
X118114095Y-93128714D01*
X118090285Y-93093000D01*
X118066476Y-93021571D01*
X118066476Y-92950142D01*
X118090285Y-92878714D01*
X118114095Y-92843000D01*
X118161714Y-92807285D01*
X118280761Y-92807285D01*
X118352190Y-92843000D01*
X118518857Y-92807285D02*
X118637904Y-93557285D01*
X118733142Y-93021571D01*
X118828380Y-93557285D01*
X118947428Y-92807285D01*
X119137904Y-93557285D02*
X119137904Y-92807285D01*
X119256952Y-92807285D01*
X119328380Y-92843000D01*
X119376000Y-92914428D01*
X119399809Y-92985857D01*
X119423619Y-93128714D01*
X119423619Y-93235857D01*
X119399809Y-93378714D01*
X119376000Y-93450142D01*
X119328380Y-93521571D01*
X119256952Y-93557285D01*
X119137904Y-93557285D01*
X119637904Y-93557285D02*
X119637904Y-92807285D01*
X119971238Y-92807285D02*
X120066476Y-92807285D01*
X120114095Y-92843000D01*
X120161714Y-92914428D01*
X120185523Y-93057285D01*
X120185523Y-93307285D01*
X120161714Y-93450142D01*
X120114095Y-93521571D01*
X120066476Y-93557285D01*
X119971238Y-93557285D01*
X119923619Y-93521571D01*
X119876000Y-93450142D01*
X119852190Y-93307285D01*
X119852190Y-93057285D01*
X119876000Y-92914428D01*
X119923619Y-92843000D01*
X119971238Y-92807285D01*
X116312190Y-93557285D02*
X116145523Y-93200142D01*
X116026476Y-93557285D02*
X116026476Y-92807285D01*
X116216952Y-92807285D01*
X116264571Y-92843000D01*
X116288380Y-92878714D01*
X116312190Y-92950142D01*
X116312190Y-93057285D01*
X116288380Y-93128714D01*
X116264571Y-93164428D01*
X116216952Y-93200142D01*
X116026476Y-93200142D01*
X116502666Y-93521571D02*
X116574095Y-93557285D01*
X116693142Y-93557285D01*
X116740761Y-93521571D01*
X116764571Y-93485857D01*
X116788380Y-93414428D01*
X116788380Y-93343000D01*
X116764571Y-93271571D01*
X116740761Y-93235857D01*
X116693142Y-93200142D01*
X116597904Y-93164428D01*
X116550285Y-93128714D01*
X116526476Y-93093000D01*
X116502666Y-93021571D01*
X116502666Y-92950142D01*
X116526476Y-92878714D01*
X116550285Y-92843000D01*
X116597904Y-92807285D01*
X116716952Y-92807285D01*
X116788380Y-92843000D01*
X116931238Y-92807285D02*
X117216952Y-92807285D01*
X117074095Y-93557285D02*
X117074095Y-92807285D01*
D15*
X115316000Y-89408000D02*
X120396000Y-89408000D01*
X115316000Y-91948000D02*
X120396000Y-91948000D01*
X117856000Y-86868000D02*
X117856000Y-94488000D01*
X115316000Y-86868000D02*
X120396000Y-86868000D01*
X120396000Y-86868000D02*
X120396000Y-94488000D01*
X120396000Y-94488000D02*
X115316000Y-94488000D01*
X115316000Y-94488000D02*
X115316000Y-86868000D01*
X112418952Y-109926380D02*
X111942761Y-109926380D01*
X111942761Y-108926380D01*
X112752285Y-109402571D02*
X113085619Y-109402571D01*
X113228476Y-109926380D02*
X112752285Y-109926380D01*
X112752285Y-108926380D01*
X113228476Y-108926380D01*
X113657047Y-109926380D02*
X113657047Y-108926380D01*
X113895142Y-108926380D01*
X114038000Y-108974000D01*
X114133238Y-109069238D01*
X114180857Y-109164476D01*
X114228476Y-109354952D01*
X114228476Y-109497809D01*
X114180857Y-109688285D01*
X114133238Y-109783523D01*
X114038000Y-109878761D01*
X113895142Y-109926380D01*
X113657047Y-109926380D01*
X115085619Y-109259714D02*
X115085619Y-109926380D01*
X114847523Y-108878761D02*
X114609428Y-109593047D01*
X115228476Y-109593047D01*
X112418952Y-108402380D02*
X111942761Y-108402380D01*
X111942761Y-107402380D01*
X112752285Y-107878571D02*
X113085619Y-107878571D01*
X113228476Y-108402380D02*
X112752285Y-108402380D01*
X112752285Y-107402380D01*
X113228476Y-107402380D01*
X113657047Y-108402380D02*
X113657047Y-107402380D01*
X113895142Y-107402380D01*
X114038000Y-107450000D01*
X114133238Y-107545238D01*
X114180857Y-107640476D01*
X114228476Y-107830952D01*
X114228476Y-107973809D01*
X114180857Y-108164285D01*
X114133238Y-108259523D01*
X114038000Y-108354761D01*
X113895142Y-108402380D01*
X113657047Y-108402380D01*
X114561809Y-107402380D02*
X115180857Y-107402380D01*
X114847523Y-107783333D01*
X114990380Y-107783333D01*
X115085619Y-107830952D01*
X115133238Y-107878571D01*
X115180857Y-107973809D01*
X115180857Y-108211904D01*
X115133238Y-108307142D01*
X115085619Y-108354761D01*
X114990380Y-108402380D01*
X114704666Y-108402380D01*
X114609428Y-108354761D01*
X114561809Y-108307142D01*
X112418952Y-106878380D02*
X111942761Y-106878380D01*
X111942761Y-105878380D01*
X112752285Y-106354571D02*
X113085619Y-106354571D01*
X113228476Y-106878380D02*
X112752285Y-106878380D01*
X112752285Y-105878380D01*
X113228476Y-105878380D01*
X113657047Y-106878380D02*
X113657047Y-105878380D01*
X113895142Y-105878380D01*
X114038000Y-105926000D01*
X114133238Y-106021238D01*
X114180857Y-106116476D01*
X114228476Y-106306952D01*
X114228476Y-106449809D01*
X114180857Y-106640285D01*
X114133238Y-106735523D01*
X114038000Y-106830761D01*
X113895142Y-106878380D01*
X113657047Y-106878380D01*
X114609428Y-105973619D02*
X114657047Y-105926000D01*
X114752285Y-105878380D01*
X114990380Y-105878380D01*
X115085619Y-105926000D01*
X115133238Y-105973619D01*
X115180857Y-106068857D01*
X115180857Y-106164095D01*
X115133238Y-106306952D01*
X114561809Y-106878380D01*
X115180857Y-106878380D01*
X112418952Y-105354380D02*
X111942761Y-105354380D01*
X111942761Y-104354380D01*
X112752285Y-104830571D02*
X113085619Y-104830571D01*
X113228476Y-105354380D02*
X112752285Y-105354380D01*
X112752285Y-104354380D01*
X113228476Y-104354380D01*
X113657047Y-105354380D02*
X113657047Y-104354380D01*
X113895142Y-104354380D01*
X114038000Y-104402000D01*
X114133238Y-104497238D01*
X114180857Y-104592476D01*
X114228476Y-104782952D01*
X114228476Y-104925809D01*
X114180857Y-105116285D01*
X114133238Y-105211523D01*
X114038000Y-105306761D01*
X113895142Y-105354380D01*
X113657047Y-105354380D01*
X115180857Y-105354380D02*
X114609428Y-105354380D01*
X114895142Y-105354380D02*
X114895142Y-104354380D01*
X114799904Y-104497238D01*
X114704666Y-104592476D01*
X114609428Y-104640095D01*
X111553809Y-122118380D02*
X111553809Y-121118380D01*
X111791904Y-121118380D01*
X111934761Y-121166000D01*
X112030000Y-121261238D01*
X112077619Y-121356476D01*
X112125238Y-121546952D01*
X112125238Y-121689809D01*
X112077619Y-121880285D01*
X112030000Y-121975523D01*
X111934761Y-122070761D01*
X111791904Y-122118380D01*
X111553809Y-122118380D01*
X112553809Y-122118380D02*
X112553809Y-121118380D01*
X113030000Y-122118380D02*
X113030000Y-121118380D01*
X113410952Y-121118380D01*
X113506190Y-121166000D01*
X113553809Y-121213619D01*
X113601428Y-121308857D01*
X113601428Y-121451714D01*
X113553809Y-121546952D01*
X113506190Y-121594571D01*
X113410952Y-121642190D01*
X113030000Y-121642190D01*
X114458571Y-121451714D02*
X114458571Y-122118380D01*
X114220476Y-121070761D02*
X113982380Y-121785047D01*
X114601428Y-121785047D01*
X111553809Y-119578380D02*
X111553809Y-118578380D01*
X111791904Y-118578380D01*
X111934761Y-118626000D01*
X112030000Y-118721238D01*
X112077619Y-118816476D01*
X112125238Y-119006952D01*
X112125238Y-119149809D01*
X112077619Y-119340285D01*
X112030000Y-119435523D01*
X111934761Y-119530761D01*
X111791904Y-119578380D01*
X111553809Y-119578380D01*
X112553809Y-119578380D02*
X112553809Y-118578380D01*
X113030000Y-119578380D02*
X113030000Y-118578380D01*
X113410952Y-118578380D01*
X113506190Y-118626000D01*
X113553809Y-118673619D01*
X113601428Y-118768857D01*
X113601428Y-118911714D01*
X113553809Y-119006952D01*
X113506190Y-119054571D01*
X113410952Y-119102190D01*
X113030000Y-119102190D01*
X113934761Y-118578380D02*
X114553809Y-118578380D01*
X114220476Y-118959333D01*
X114363333Y-118959333D01*
X114458571Y-119006952D01*
X114506190Y-119054571D01*
X114553809Y-119149809D01*
X114553809Y-119387904D01*
X114506190Y-119483142D01*
X114458571Y-119530761D01*
X114363333Y-119578380D01*
X114077619Y-119578380D01*
X113982380Y-119530761D01*
X113934761Y-119483142D01*
X111553809Y-117038380D02*
X111553809Y-116038380D01*
X111791904Y-116038380D01*
X111934761Y-116086000D01*
X112030000Y-116181238D01*
X112077619Y-116276476D01*
X112125238Y-116466952D01*
X112125238Y-116609809D01*
X112077619Y-116800285D01*
X112030000Y-116895523D01*
X111934761Y-116990761D01*
X111791904Y-117038380D01*
X111553809Y-117038380D01*
X112553809Y-117038380D02*
X112553809Y-116038380D01*
X113030000Y-117038380D02*
X113030000Y-116038380D01*
X113410952Y-116038380D01*
X113506190Y-116086000D01*
X113553809Y-116133619D01*
X113601428Y-116228857D01*
X113601428Y-116371714D01*
X113553809Y-116466952D01*
X113506190Y-116514571D01*
X113410952Y-116562190D01*
X113030000Y-116562190D01*
X113982380Y-116133619D02*
X114030000Y-116086000D01*
X114125238Y-116038380D01*
X114363333Y-116038380D01*
X114458571Y-116086000D01*
X114506190Y-116133619D01*
X114553809Y-116228857D01*
X114553809Y-116324095D01*
X114506190Y-116466952D01*
X113934761Y-117038380D01*
X114553809Y-117038380D01*
X111553809Y-114498380D02*
X111553809Y-113498380D01*
X111791904Y-113498380D01*
X111934761Y-113546000D01*
X112030000Y-113641238D01*
X112077619Y-113736476D01*
X112125238Y-113926952D01*
X112125238Y-114069809D01*
X112077619Y-114260285D01*
X112030000Y-114355523D01*
X111934761Y-114450761D01*
X111791904Y-114498380D01*
X111553809Y-114498380D01*
X112553809Y-114498380D02*
X112553809Y-113498380D01*
X113030000Y-114498380D02*
X113030000Y-113498380D01*
X113410952Y-113498380D01*
X113506190Y-113546000D01*
X113553809Y-113593619D01*
X113601428Y-113688857D01*
X113601428Y-113831714D01*
X113553809Y-113926952D01*
X113506190Y-113974571D01*
X113410952Y-114022190D01*
X113030000Y-114022190D01*
X114553809Y-114498380D02*
X113982380Y-114498380D01*
X114268095Y-114498380D02*
X114268095Y-113498380D01*
X114172857Y-113641238D01*
X114077619Y-113736476D01*
X113982380Y-113784095D01*
X137834761Y-118213142D02*
X137787142Y-118260761D01*
X137644285Y-118308380D01*
X137549047Y-118308380D01*
X137406190Y-118260761D01*
X137310952Y-118165523D01*
X137263333Y-118070285D01*
X137215714Y-117879809D01*
X137215714Y-117736952D01*
X137263333Y-117546476D01*
X137310952Y-117451238D01*
X137406190Y-117356000D01*
X137549047Y-117308380D01*
X137644285Y-117308380D01*
X137787142Y-117356000D01*
X137834761Y-117403619D01*
X138739523Y-118308380D02*
X138263333Y-118308380D01*
X138263333Y-117308380D01*
X139072857Y-118308380D02*
X139072857Y-117308380D01*
X139644285Y-118308380D02*
X139215714Y-117736952D01*
X139644285Y-117308380D02*
X139072857Y-117879809D01*
X141216380Y-117308380D02*
X141454476Y-118308380D01*
X141644952Y-117594095D01*
X141835428Y-118308380D01*
X142073523Y-117308380D01*
X142216380Y-118403619D02*
X142978285Y-118403619D01*
X143216380Y-118308380D02*
X143216380Y-117308380D01*
X143454476Y-117308380D01*
X143597333Y-117356000D01*
X143692571Y-117451238D01*
X143740190Y-117546476D01*
X143787809Y-117736952D01*
X143787809Y-117879809D01*
X143740190Y-118070285D01*
X143692571Y-118165523D01*
X143597333Y-118260761D01*
X143454476Y-118308380D01*
X143216380Y-118308380D01*
X144168761Y-118022666D02*
X144644952Y-118022666D01*
X144073523Y-118308380D02*
X144406857Y-117308380D01*
X144740190Y-118308380D01*
X144930666Y-117308380D02*
X145502095Y-117308380D01*
X145216380Y-118308380D02*
X145216380Y-117308380D01*
X145787809Y-118022666D02*
X146264000Y-118022666D01*
X145692571Y-118308380D02*
X146025904Y-117308380D01*
X146359238Y-118308380D01*
X142930666Y-113498380D02*
X143168761Y-114498380D01*
X143359238Y-113784095D01*
X143549714Y-114498380D01*
X143787809Y-113498380D01*
X144644952Y-114498380D02*
X144168761Y-114498380D01*
X144168761Y-113498380D01*
X142811619Y-109688380D02*
X143049714Y-110688380D01*
X143240190Y-109974095D01*
X143430666Y-110688380D01*
X143668761Y-109688380D01*
X144049714Y-110688380D02*
X144049714Y-109688380D01*
X144049714Y-110164571D02*
X144621142Y-110164571D01*
X144621142Y-110688380D02*
X144621142Y-109688380D01*
X141311619Y-105878380D02*
X141644952Y-106878380D01*
X141978285Y-105878380D01*
X142073523Y-106973619D02*
X142835428Y-106973619D01*
X143073523Y-106878380D02*
X143073523Y-105878380D01*
X143311619Y-105878380D01*
X143454476Y-105926000D01*
X143549714Y-106021238D01*
X143597333Y-106116476D01*
X143644952Y-106306952D01*
X143644952Y-106449809D01*
X143597333Y-106640285D01*
X143549714Y-106735523D01*
X143454476Y-106830761D01*
X143311619Y-106878380D01*
X143073523Y-106878380D01*
X144025904Y-106592666D02*
X144502095Y-106592666D01*
X143930666Y-106878380D02*
X144264000Y-105878380D01*
X144597333Y-106878380D01*
X144787809Y-105878380D02*
X145359238Y-105878380D01*
X145073523Y-106878380D02*
X145073523Y-105878380D01*
X145644952Y-106592666D02*
X146121142Y-106592666D01*
X145549714Y-106878380D02*
X145883047Y-105878380D01*
X146216380Y-106878380D01*
X143025904Y-102068380D02*
X143359238Y-103068380D01*
X143692571Y-102068380D01*
X144502095Y-103068380D02*
X144025904Y-103068380D01*
X144025904Y-102068380D01*
X142906857Y-98258380D02*
X143240190Y-99258380D01*
X143573523Y-98258380D01*
X143906857Y-99258380D02*
X143906857Y-98258380D01*
X143906857Y-98734571D02*
X144478285Y-98734571D01*
X144478285Y-99258380D02*
X144478285Y-98258380D01*
X141359238Y-94448380D02*
X141359238Y-95257904D01*
X141406857Y-95353142D01*
X141454476Y-95400761D01*
X141549714Y-95448380D01*
X141740190Y-95448380D01*
X141835428Y-95400761D01*
X141883047Y-95353142D01*
X141930666Y-95257904D01*
X141930666Y-94448380D01*
X142168761Y-95543619D02*
X142930666Y-95543619D01*
X143168761Y-95448380D02*
X143168761Y-94448380D01*
X143406857Y-94448380D01*
X143549714Y-94496000D01*
X143644952Y-94591238D01*
X143692571Y-94686476D01*
X143740190Y-94876952D01*
X143740190Y-95019809D01*
X143692571Y-95210285D01*
X143644952Y-95305523D01*
X143549714Y-95400761D01*
X143406857Y-95448380D01*
X143168761Y-95448380D01*
X144121142Y-95162666D02*
X144597333Y-95162666D01*
X144025904Y-95448380D02*
X144359238Y-94448380D01*
X144692571Y-95448380D01*
X144883047Y-94448380D02*
X145454476Y-94448380D01*
X145168761Y-95448380D02*
X145168761Y-94448380D01*
X145740190Y-95162666D02*
X146216380Y-95162666D01*
X145644952Y-95448380D02*
X145978285Y-94448380D01*
X146311619Y-95448380D01*
X143073523Y-90638380D02*
X143073523Y-91447904D01*
X143121142Y-91543142D01*
X143168761Y-91590761D01*
X143264000Y-91638380D01*
X143454476Y-91638380D01*
X143549714Y-91590761D01*
X143597333Y-91543142D01*
X143644952Y-91447904D01*
X143644952Y-90638380D01*
X144597333Y-91638380D02*
X144121142Y-91638380D01*
X144121142Y-90638380D01*
X142954476Y-86828380D02*
X142954476Y-87637904D01*
X143002095Y-87733142D01*
X143049714Y-87780761D01*
X143144952Y-87828380D01*
X143335428Y-87828380D01*
X143430666Y-87780761D01*
X143478285Y-87733142D01*
X143525904Y-87637904D01*
X143525904Y-86828380D01*
X144002095Y-87828380D02*
X144002095Y-86828380D01*
X144002095Y-87304571D02*
X144573523Y-87304571D01*
X144573523Y-87828380D02*
X144573523Y-86828380D01*
X111569714Y-94702380D02*
X112188761Y-94702380D01*
X111855428Y-95083333D01*
X111998285Y-95083333D01*
X112093523Y-95130952D01*
X112141142Y-95178571D01*
X112188761Y-95273809D01*
X112188761Y-95511904D01*
X112141142Y-95607142D01*
X112093523Y-95654761D01*
X111998285Y-95702380D01*
X111712571Y-95702380D01*
X111617333Y-95654761D01*
X111569714Y-95607142D01*
X112617333Y-95607142D02*
X112664952Y-95654761D01*
X112617333Y-95702380D01*
X112569714Y-95654761D01*
X112617333Y-95607142D01*
X112617333Y-95702380D01*
X112998285Y-94702380D02*
X113617333Y-94702380D01*
X113284000Y-95083333D01*
X113426857Y-95083333D01*
X113522095Y-95130952D01*
X113569714Y-95178571D01*
X113617333Y-95273809D01*
X113617333Y-95511904D01*
X113569714Y-95607142D01*
X113522095Y-95654761D01*
X113426857Y-95702380D01*
X113141142Y-95702380D01*
X113045904Y-95654761D01*
X112998285Y-95607142D01*
X113950666Y-95035714D02*
X114188761Y-95702380D01*
X114426857Y-95035714D01*
X114664952Y-95035714D02*
X115045904Y-95035714D01*
X114807809Y-95702380D02*
X114807809Y-94845238D01*
X114855428Y-94750000D01*
X114950666Y-94702380D01*
X115045904Y-94702380D01*
X117443428Y-100544380D02*
X118062476Y-100544380D01*
X117729142Y-100925333D01*
X117872000Y-100925333D01*
X117967238Y-100972952D01*
X118014857Y-101020571D01*
X118062476Y-101115809D01*
X118062476Y-101353904D01*
X118014857Y-101449142D01*
X117967238Y-101496761D01*
X117872000Y-101544380D01*
X117586285Y-101544380D01*
X117491047Y-101496761D01*
X117443428Y-101449142D01*
X118491047Y-101449142D02*
X118538666Y-101496761D01*
X118491047Y-101544380D01*
X118443428Y-101496761D01*
X118491047Y-101449142D01*
X118491047Y-101544380D01*
X118872000Y-100544380D02*
X119491047Y-100544380D01*
X119157714Y-100925333D01*
X119300571Y-100925333D01*
X119395809Y-100972952D01*
X119443428Y-101020571D01*
X119491047Y-101115809D01*
X119491047Y-101353904D01*
X119443428Y-101449142D01*
X119395809Y-101496761D01*
X119300571Y-101544380D01*
X119014857Y-101544380D01*
X118919619Y-101496761D01*
X118872000Y-101449142D01*
X119824380Y-100877714D02*
X120062476Y-101544380D01*
X120300571Y-100877714D01*
X108712095Y-113038000D02*
X108616857Y-112990380D01*
X108474000Y-112990380D01*
X108331142Y-113038000D01*
X108235904Y-113133238D01*
X108188285Y-113228476D01*
X108140666Y-113418952D01*
X108140666Y-113561809D01*
X108188285Y-113752285D01*
X108235904Y-113847523D01*
X108331142Y-113942761D01*
X108474000Y-113990380D01*
X108569238Y-113990380D01*
X108712095Y-113942761D01*
X108759714Y-113895142D01*
X108759714Y-113561809D01*
X108569238Y-113561809D01*
X109188285Y-113990380D02*
X109188285Y-112990380D01*
X109759714Y-113990380D01*
X109759714Y-112990380D01*
X110235904Y-113990380D02*
X110235904Y-112990380D01*
X110474000Y-112990380D01*
X110616857Y-113038000D01*
X110712095Y-113133238D01*
X110759714Y-113228476D01*
X110807333Y-113418952D01*
X110807333Y-113561809D01*
X110759714Y-113752285D01*
X110712095Y-113847523D01*
X110616857Y-113942761D01*
X110474000Y-113990380D01*
X110235904Y-113990380D01*
X108331142Y-106989619D02*
X108378761Y-106942000D01*
X108474000Y-106894380D01*
X108712095Y-106894380D01*
X108807333Y-106942000D01*
X108854952Y-106989619D01*
X108902571Y-107084857D01*
X108902571Y-107180095D01*
X108854952Y-107322952D01*
X108283523Y-107894380D01*
X108902571Y-107894380D01*
X109759714Y-107227714D02*
X109759714Y-107894380D01*
X109521619Y-106846761D02*
X109283523Y-107561047D01*
X109902571Y-107561047D01*
X110188285Y-107227714D02*
X110426380Y-107894380D01*
X110664476Y-107227714D01*
X105934000Y-134839000D02*
X105838761Y-134791380D01*
X105695904Y-134791380D01*
X105553047Y-134839000D01*
X105457809Y-134934238D01*
X105410190Y-135029476D01*
X105362571Y-135219952D01*
X105362571Y-135362809D01*
X105410190Y-135553285D01*
X105457809Y-135648523D01*
X105553047Y-135743761D01*
X105695904Y-135791380D01*
X105791142Y-135791380D01*
X105934000Y-135743761D01*
X105981619Y-135696142D01*
X105981619Y-135362809D01*
X105791142Y-135362809D01*
X106362571Y-135505666D02*
X106838761Y-135505666D01*
X106267333Y-135791380D02*
X106600666Y-134791380D01*
X106934000Y-135791380D01*
X107124476Y-134791380D02*
X107695904Y-134791380D01*
X107410190Y-135791380D02*
X107410190Y-134791380D01*
X108029238Y-135267571D02*
X108362571Y-135267571D01*
X108505428Y-135791380D02*
X108029238Y-135791380D01*
X108029238Y-134791380D01*
X108505428Y-134791380D01*
X104291142Y-137353761D02*
X104434000Y-137401380D01*
X104672095Y-137401380D01*
X104767333Y-137353761D01*
X104814952Y-137306142D01*
X104862571Y-137210904D01*
X104862571Y-137115666D01*
X104814952Y-137020428D01*
X104767333Y-136972809D01*
X104672095Y-136925190D01*
X104481619Y-136877571D01*
X104386380Y-136829952D01*
X104338761Y-136782333D01*
X104291142Y-136687095D01*
X104291142Y-136591857D01*
X104338761Y-136496619D01*
X104386380Y-136449000D01*
X104481619Y-136401380D01*
X104719714Y-136401380D01*
X104862571Y-136449000D01*
X105291142Y-136401380D02*
X105291142Y-137210904D01*
X105338761Y-137306142D01*
X105386380Y-137353761D01*
X105481619Y-137401380D01*
X105672095Y-137401380D01*
X105767333Y-137353761D01*
X105814952Y-137306142D01*
X105862571Y-137210904D01*
X105862571Y-136401380D01*
X106338761Y-137401380D02*
X106338761Y-136401380D01*
X106719714Y-136401380D01*
X106814952Y-136449000D01*
X106862571Y-136496619D01*
X106910190Y-136591857D01*
X106910190Y-136734714D01*
X106862571Y-136829952D01*
X106814952Y-136877571D01*
X106719714Y-136925190D01*
X106338761Y-136925190D01*
X107338761Y-137401380D02*
X107338761Y-136401380D01*
X107719714Y-136401380D01*
X107814952Y-136449000D01*
X107862571Y-136496619D01*
X107910190Y-136591857D01*
X107910190Y-136734714D01*
X107862571Y-136829952D01*
X107814952Y-136877571D01*
X107719714Y-136925190D01*
X107338761Y-136925190D01*
X108814952Y-137401380D02*
X108338761Y-137401380D01*
X108338761Y-136401380D01*
X109338761Y-136925190D02*
X109338761Y-137401380D01*
X109005428Y-136401380D02*
X109338761Y-136925190D01*
X109672095Y-136401380D01*
X114559931Y-146511320D02*
X114798026Y-147511320D01*
X114988502Y-146797035D01*
X115178978Y-147511320D01*
X115417073Y-146511320D01*
X115798026Y-147511320D02*
X115798026Y-146511320D01*
X116131359Y-147225606D01*
X116464692Y-146511320D01*
X116464692Y-147511320D01*
X123856857Y-146518380D02*
X123856857Y-147327904D01*
X123904476Y-147423142D01*
X123952095Y-147470761D01*
X124047333Y-147518380D01*
X124237809Y-147518380D01*
X124333047Y-147470761D01*
X124380666Y-147423142D01*
X124428285Y-147327904D01*
X124428285Y-146518380D01*
X124904476Y-147518380D02*
X124904476Y-146518380D01*
X125237809Y-147232666D01*
X125571142Y-146518380D01*
X125571142Y-147518380D01*
X119237238Y-146518380D02*
X119570571Y-147518380D01*
X119903904Y-146518380D01*
X120237238Y-147518380D02*
X120237238Y-146518380D01*
X120570571Y-147232666D01*
X120903904Y-146518380D01*
X120903904Y-147518380D01*
X128847359Y-146511320D02*
X129085454Y-147511320D01*
X129275931Y-146797035D01*
X129466407Y-147511320D01*
X129704502Y-146511320D01*
X133524666Y-146518380D02*
X133858000Y-147518380D01*
X134191333Y-146518380D01*
X138144285Y-146518380D02*
X138144285Y-147327904D01*
X138191904Y-147423142D01*
X138239523Y-147470761D01*
X138334761Y-147518380D01*
X138525238Y-147518380D01*
X138620476Y-147470761D01*
X138668095Y-147423142D01*
X138715714Y-147327904D01*
X138715714Y-146518380D01*
D12*
X184805142Y-137862571D02*
X185162285Y-139362571D01*
X185448000Y-138291142D01*
X185733714Y-139362571D01*
X186090857Y-137862571D01*
X189520000Y-137862571D02*
X190020000Y-139362571D01*
X190520000Y-137862571D01*
X194163428Y-137862571D02*
X194163428Y-139076857D01*
X194234857Y-139219714D01*
X194306285Y-139291142D01*
X194449142Y-139362571D01*
X194734857Y-139362571D01*
X194877714Y-139291142D01*
X194949142Y-139219714D01*
X195020571Y-139076857D01*
X195020571Y-137862571D01*
D16*
X200112285Y-79628857D02*
X200112285Y-77343142D01*
X200112285Y-89280857D02*
X200112285Y-86995142D01*
X201255142Y-88138000D02*
X198969428Y-88138000D01*
X198509142Y-117871714D02*
X201509142Y-117157428D01*
X199366285Y-116586000D01*
X201509142Y-116014571D01*
X198509142Y-115300285D01*
X198509142Y-109458000D02*
X201509142Y-108458000D01*
X198509142Y-107458000D01*
X198509142Y-95599142D02*
X200937714Y-95599142D01*
X201223428Y-95456285D01*
X201366285Y-95313428D01*
X201509142Y-95027714D01*
X201509142Y-94456285D01*
X201366285Y-94170571D01*
X201223428Y-94027714D01*
X200937714Y-93884857D01*
X198509142Y-93884857D01*
X198652000Y-128777714D02*
X198509142Y-129063428D01*
X198509142Y-129492000D01*
X198652000Y-129920571D01*
X198937714Y-130206285D01*
X199223428Y-130349142D01*
X199794857Y-130492000D01*
X200223428Y-130492000D01*
X200794857Y-130349142D01*
X201080571Y-130206285D01*
X201366285Y-129920571D01*
X201509142Y-129492000D01*
X201509142Y-129206285D01*
X201366285Y-128777714D01*
X201223428Y-128634857D01*
X200223428Y-128634857D01*
X200223428Y-129206285D01*
X201509142Y-127349142D02*
X198509142Y-127349142D01*
X201509142Y-125634857D01*
X198509142Y-125634857D01*
X201509142Y-124206285D02*
X198509142Y-124206285D01*
X198509142Y-123492000D01*
X198652000Y-123063428D01*
X198937714Y-122777714D01*
X199223428Y-122634857D01*
X199794857Y-122492000D01*
X200223428Y-122492000D01*
X200794857Y-122634857D01*
X201080571Y-122777714D01*
X201366285Y-123063428D01*
X201509142Y-123492000D01*
X201509142Y-124206285D01*
M02*
