%TF.GenerationSoftware,KiCad,Pcbnew,(6.0.9)*%
%TF.CreationDate,2023-06-09T19:15:00-04:00*%
%TF.ProjectId,HV servo drive v1,48562073-6572-4766-9f20-647269766520,rev?*%
%TF.SameCoordinates,Original*%
%TF.FileFunction,Soldermask,Top*%
%TF.FilePolarity,Negative*%
%FSLAX46Y46*%
G04 Gerber Fmt 4.6, Leading zero omitted, Abs format (unit mm)*
G04 Created by KiCad (PCBNEW (6.0.9)) date 2023-06-09 19:15:00*
%MOMM*%
%LPD*%
G01*
G04 APERTURE LIST*
G04 Aperture macros list*
%AMRoundRect*
0 Rectangle with rounded corners*
0 $1 Rounding radius*
0 $2 $3 $4 $5 $6 $7 $8 $9 X,Y pos of 4 corners*
0 Add a 4 corners polygon primitive as box body*
4,1,4,$2,$3,$4,$5,$6,$7,$8,$9,$2,$3,0*
0 Add four circle primitives for the rounded corners*
1,1,$1+$1,$2,$3*
1,1,$1+$1,$4,$5*
1,1,$1+$1,$6,$7*
1,1,$1+$1,$8,$9*
0 Add four rect primitives between the rounded corners*
20,1,$1+$1,$2,$3,$4,$5,0*
20,1,$1+$1,$4,$5,$6,$7,0*
20,1,$1+$1,$6,$7,$8,$9,0*
20,1,$1+$1,$8,$9,$2,$3,0*%
%AMRotRect*
0 Rectangle, with rotation*
0 The origin of the aperture is its center*
0 $1 length*
0 $2 width*
0 $3 Rotation angle, in degrees counterclockwise*
0 Add horizontal line*
21,1,$1,$2,0,0,$3*%
G04 Aperture macros list end*
%ADD10C,3.600000*%
%ADD11C,5.600000*%
%ADD12C,4.000000*%
%ADD13R,1.700000X1.700000*%
%ADD14O,1.700000X1.700000*%
%ADD15RoundRect,0.218750X-0.218750X-0.256250X0.218750X-0.256250X0.218750X0.256250X-0.218750X0.256250X0*%
%ADD16RoundRect,0.200000X0.275000X-0.200000X0.275000X0.200000X-0.275000X0.200000X-0.275000X-0.200000X0*%
%ADD17RoundRect,0.200000X-0.200000X-0.275000X0.200000X-0.275000X0.200000X0.275000X-0.200000X0.275000X0*%
%ADD18R,3.200000X1.600000*%
%ADD19R,1.600000X3.200000*%
%ADD20RoundRect,0.250000X0.250000X0.475000X-0.250000X0.475000X-0.250000X-0.475000X0.250000X-0.475000X0*%
%ADD21RoundRect,0.225000X0.225000X0.250000X-0.225000X0.250000X-0.225000X-0.250000X0.225000X-0.250000X0*%
%ADD22C,1.600000*%
%ADD23O,1.600000X1.600000*%
%ADD24RoundRect,0.200000X0.200000X0.275000X-0.200000X0.275000X-0.200000X-0.275000X0.200000X-0.275000X0*%
%ADD25RoundRect,0.225000X-0.225000X-0.250000X0.225000X-0.250000X0.225000X0.250000X-0.225000X0.250000X0*%
%ADD26RoundRect,0.225000X-0.250000X0.225000X-0.250000X-0.225000X0.250000X-0.225000X0.250000X0.225000X0*%
%ADD27RoundRect,0.250001X0.799999X0.799999X-0.799999X0.799999X-0.799999X-0.799999X0.799999X-0.799999X0*%
%ADD28C,2.100000*%
%ADD29RoundRect,0.225000X0.250000X-0.225000X0.250000X0.225000X-0.250000X0.225000X-0.250000X-0.225000X0*%
%ADD30RoundRect,0.150000X-0.150000X0.587500X-0.150000X-0.587500X0.150000X-0.587500X0.150000X0.587500X0*%
%ADD31R,0.558800X1.460500*%
%ADD32R,1.200000X0.900000*%
%ADD33RoundRect,0.250000X-0.312500X-0.625000X0.312500X-0.625000X0.312500X0.625000X-0.312500X0.625000X0*%
%ADD34RotRect,0.599999X1.799999X225.000000*%
%ADD35R,1.600000X1.600000*%
%ADD36C,1.524000*%
%ADD37C,2.159000*%
%ADD38C,3.683000*%
%ADD39C,1.905000*%
%ADD40R,3.276600X2.260600*%
%ADD41RoundRect,0.250000X-0.132583X0.503814X-0.503814X0.132583X0.132583X-0.503814X0.503814X-0.132583X0*%
%ADD42RoundRect,0.250000X0.262500X0.450000X-0.262500X0.450000X-0.262500X-0.450000X0.262500X-0.450000X0*%
%ADD43R,1.193800X0.304800*%
%ADD44R,0.304800X1.193800*%
%ADD45C,2.000000*%
%ADD46O,3.600000X3.600000*%
%ADD47R,4.500000X1.905000*%
%ADD48O,4.500000X1.905000*%
G04 APERTURE END LIST*
D10*
%TO.C,H4*%
X108458000Y-99822000D03*
D11*
X108458000Y-99822000D03*
%TD*%
D10*
%TO.C,H3*%
X108458000Y-146050000D03*
D11*
X108458000Y-146050000D03*
%TD*%
D12*
%TO.C,C9*%
X199638000Y-98552000D03*
X179338000Y-98552000D03*
X199638000Y-61052000D03*
X179338000Y-61052000D03*
%TD*%
%TO.C,C8*%
X179330000Y-104140000D03*
X199630000Y-104140000D03*
X179330000Y-141640000D03*
X199630000Y-141640000D03*
%TD*%
D11*
%TO.C,H2*%
X194310000Y-55118000D03*
D10*
X194310000Y-55118000D03*
%TD*%
D11*
%TO.C,H1*%
X194310000Y-147574000D03*
D10*
X194310000Y-147574000D03*
%TD*%
D13*
%TO.C,J3*%
X127254000Y-96774000D03*
D14*
X124714000Y-96774000D03*
X127254000Y-94234000D03*
X124714000Y-94234000D03*
X127254000Y-91694000D03*
X124714000Y-91694000D03*
%TD*%
D15*
%TO.C,D6*%
X116052500Y-109474000D03*
X117627500Y-109474000D03*
%TD*%
%TO.C,D5*%
X116052500Y-107950000D03*
X117627500Y-107950000D03*
%TD*%
%TO.C,D4*%
X116052500Y-106426000D03*
X117627500Y-106426000D03*
%TD*%
%TO.C,D3*%
X116052500Y-104902000D03*
X117627500Y-104902000D03*
%TD*%
D13*
%TO.C,TH3*%
X139192000Y-92451000D03*
D14*
X139192000Y-94991000D03*
%TD*%
D13*
%TO.C,TH2*%
X131572000Y-92451000D03*
D14*
X131572000Y-94991000D03*
%TD*%
D13*
%TO.C,TH1*%
X135382000Y-92451000D03*
D14*
X135382000Y-94991000D03*
%TD*%
D16*
%TO.C,R23*%
X146812000Y-116395000D03*
X146812000Y-114745000D03*
%TD*%
D17*
%TO.C,R22*%
X146495000Y-105664000D03*
X148145000Y-105664000D03*
%TD*%
D16*
%TO.C,R21*%
X146812000Y-93535000D03*
X146812000Y-91885000D03*
%TD*%
%TO.C,R20*%
X146812000Y-112585000D03*
X146812000Y-110935000D03*
%TD*%
D17*
%TO.C,R19*%
X146495000Y-99060000D03*
X148145000Y-99060000D03*
%TD*%
D16*
%TO.C,R18*%
X146812000Y-89217000D03*
X146812000Y-87567000D03*
%TD*%
D18*
%TO.C,TP16*%
X143764000Y-119380000D03*
%TD*%
%TO.C,TP15*%
X143764000Y-96520000D03*
%TD*%
%TO.C,TP14*%
X143764000Y-107950000D03*
%TD*%
D19*
%TO.C,TP13*%
X116078000Y-100838000D03*
%TD*%
D18*
%TO.C,TP12*%
X143764000Y-115570000D03*
%TD*%
%TO.C,TP11*%
X143764000Y-92710000D03*
%TD*%
%TO.C,TP10*%
X143764000Y-104140000D03*
%TD*%
%TO.C,TP9*%
X143764000Y-111760000D03*
%TD*%
%TO.C,TP8*%
X143764000Y-88900000D03*
%TD*%
%TO.C,TP7*%
X106934000Y-133350000D03*
%TD*%
D19*
%TO.C,TP6*%
X113284000Y-98044000D03*
%TD*%
D18*
%TO.C,TP5*%
X143764000Y-100330000D03*
%TD*%
D19*
%TO.C,TP4*%
X106680000Y-113538000D03*
%TD*%
D18*
%TO.C,TP3*%
X153924000Y-86614000D03*
%TD*%
D19*
%TO.C,TP2*%
X106680000Y-107442000D03*
%TD*%
D18*
%TO.C,TP1*%
X138684000Y-119380000D03*
%TD*%
D20*
%TO.C,C52*%
X167320000Y-102108000D03*
X165420000Y-102108000D03*
%TD*%
D21*
%TO.C,C50*%
X150635000Y-101854000D03*
X149085000Y-101854000D03*
%TD*%
%TO.C,C67*%
X161557000Y-147828000D03*
X160007000Y-147828000D03*
%TD*%
D22*
%TO.C,R44*%
X143002000Y-145542000D03*
D23*
X143002000Y-132842000D03*
%TD*%
D24*
%TO.C,R62*%
X167957000Y-143256000D03*
X166307000Y-143256000D03*
%TD*%
D25*
%TO.C,C28*%
X123939000Y-124968000D03*
X125489000Y-124968000D03*
%TD*%
D26*
%TO.C,C72*%
X164338000Y-77457000D03*
X164338000Y-79007000D03*
%TD*%
%TO.C,C71*%
X164338000Y-110477000D03*
X164338000Y-112027000D03*
%TD*%
D27*
%TO.C,J6*%
X194592000Y-135382000D03*
D28*
X189992000Y-135382000D03*
X185392000Y-135382000D03*
%TD*%
D20*
%TO.C,C60*%
X163256000Y-100076000D03*
X161356000Y-100076000D03*
%TD*%
D21*
%TO.C,C59*%
X167145000Y-100076000D03*
X165595000Y-100076000D03*
%TD*%
%TO.C,C66*%
X161557000Y-81788000D03*
X160007000Y-81788000D03*
%TD*%
%TO.C,C56*%
X150635000Y-134874000D03*
X149085000Y-134874000D03*
%TD*%
D29*
%TO.C,C24*%
X121666000Y-109487000D03*
X121666000Y-107937000D03*
%TD*%
D17*
%TO.C,R41*%
X133033000Y-126492000D03*
X134683000Y-126492000D03*
%TD*%
D30*
%TO.C,D15*%
X143952000Y-128602500D03*
X142052000Y-128602500D03*
X143002000Y-130477500D03*
%TD*%
D25*
%TO.C,C17*%
X135877000Y-112776000D03*
X137427000Y-112776000D03*
%TD*%
D20*
%TO.C,C54*%
X167320000Y-69088000D03*
X165420000Y-69088000D03*
%TD*%
D31*
%TO.C,U3*%
X130175000Y-85782150D03*
X131445000Y-85782150D03*
X132715000Y-85782150D03*
X133985000Y-85782150D03*
X133985000Y-80333850D03*
X132715000Y-80333850D03*
X131445000Y-80333850D03*
X130175000Y-80333850D03*
%TD*%
D22*
%TO.C,R40*%
X133858000Y-145542000D03*
D23*
X133858000Y-132842000D03*
%TD*%
D32*
%TO.C,D20*%
X157734000Y-82930000D03*
X157734000Y-79630000D03*
%TD*%
D22*
%TO.C,R29*%
X115570000Y-145542000D03*
D23*
X115570000Y-132842000D03*
%TD*%
D33*
%TO.C,R55*%
X165161500Y-55626000D03*
X168086500Y-55626000D03*
%TD*%
D30*
%TO.C,D12*%
X139380000Y-128602500D03*
X137480000Y-128602500D03*
X138430000Y-130477500D03*
%TD*%
D34*
%TO.C,U14*%
X160494693Y-77590770D03*
X161392718Y-76692744D03*
X162290744Y-75794718D03*
X163188770Y-74896693D03*
X155481307Y-67189230D03*
X154583282Y-68087256D03*
X153685256Y-68985282D03*
X152787230Y-69883307D03*
%TD*%
D26*
%TO.C,C5*%
X124206000Y-87617000D03*
X124206000Y-89167000D03*
%TD*%
D30*
%TO.C,D8*%
X125664000Y-128602500D03*
X123764000Y-128602500D03*
X124714000Y-130477500D03*
%TD*%
D31*
%TO.C,U10*%
X167513000Y-92525850D03*
X166243000Y-92525850D03*
X164973000Y-92525850D03*
X163703000Y-92525850D03*
X163703000Y-97974150D03*
X164973000Y-97974150D03*
X166243000Y-97974150D03*
X167513000Y-97974150D03*
%TD*%
%TO.C,U12*%
X167513000Y-125545850D03*
X166243000Y-125545850D03*
X164973000Y-125545850D03*
X163703000Y-125545850D03*
X163703000Y-130994150D03*
X164973000Y-130994150D03*
X166243000Y-130994150D03*
X167513000Y-130994150D03*
%TD*%
D29*
%TO.C,C4*%
X136398000Y-78499000D03*
X136398000Y-76949000D03*
%TD*%
D24*
%TO.C,R60*%
X167957000Y-77216000D03*
X166307000Y-77216000D03*
%TD*%
D17*
%TO.C,R45*%
X142177000Y-126492000D03*
X143827000Y-126492000D03*
%TD*%
%TO.C,R11*%
X119063000Y-102616000D03*
X120713000Y-102616000D03*
%TD*%
D21*
%TO.C,C51*%
X150635000Y-68834000D03*
X149085000Y-68834000D03*
%TD*%
D35*
%TO.C,SW1*%
X116088000Y-114056000D03*
D23*
X116088000Y-116596000D03*
X116088000Y-119136000D03*
X116088000Y-121676000D03*
X123708000Y-121676000D03*
X123708000Y-119136000D03*
X123708000Y-116596000D03*
X123708000Y-114056000D03*
%TD*%
D36*
%TO.C,J1*%
X127127000Y-64325500D03*
X128397000Y-63055500D03*
X129667000Y-64325500D03*
X130937000Y-63055500D03*
X132207000Y-64325500D03*
X133477000Y-63055500D03*
X134747000Y-64325500D03*
X136017000Y-63055500D03*
D37*
X123698000Y-53657500D03*
X139446000Y-53657500D03*
D38*
X125857000Y-56705500D03*
X137287000Y-56705500D03*
%TD*%
D39*
%TO.C,J4*%
X189484901Y-78466651D03*
X189484901Y-87966649D03*
X189484901Y-97466648D03*
X189484901Y-106966647D03*
X189484901Y-116466646D03*
X189484901Y-125966645D03*
%TD*%
D21*
%TO.C,C68*%
X161557000Y-112776000D03*
X160007000Y-112776000D03*
%TD*%
D27*
%TO.C,J5*%
X124770000Y-148844000D03*
D28*
X120170000Y-148844000D03*
X115570000Y-148844000D03*
%TD*%
D33*
%TO.C,R54*%
X169225500Y-68834000D03*
X172150500Y-68834000D03*
%TD*%
D40*
%TO.C,D16*%
X159258000Y-90119200D03*
X159258000Y-96316800D03*
%TD*%
D33*
%TO.C,R53*%
X165161500Y-88646000D03*
X168086500Y-88646000D03*
%TD*%
D17*
%TO.C,R12*%
X121349000Y-104394000D03*
X122999000Y-104394000D03*
%TD*%
D21*
%TO.C,C63*%
X167145000Y-133096000D03*
X165595000Y-133096000D03*
%TD*%
%TO.C,C49*%
X150635000Y-136906000D03*
X149085000Y-136906000D03*
%TD*%
D26*
%TO.C,C18*%
X112268000Y-77203000D03*
X112268000Y-78753000D03*
%TD*%
D21*
%TO.C,C69*%
X161557000Y-79756000D03*
X160007000Y-79756000D03*
%TD*%
D22*
%TO.C,R27*%
X120142000Y-145542000D03*
D23*
X120142000Y-132842000D03*
%TD*%
D31*
%TO.C,U11*%
X167513000Y-59505850D03*
X166243000Y-59505850D03*
X164973000Y-59505850D03*
X163703000Y-59505850D03*
X163703000Y-64954150D03*
X164973000Y-64954150D03*
X166243000Y-64954150D03*
X167513000Y-64954150D03*
%TD*%
D27*
%TO.C,J7*%
X138458000Y-148844000D03*
D28*
X133858000Y-148844000D03*
X129258000Y-148844000D03*
%TD*%
D41*
%TO.C,R51*%
X165745235Y-72506765D03*
X164454765Y-73797235D03*
%TD*%
D25*
%TO.C,C36*%
X142227000Y-124968000D03*
X143777000Y-124968000D03*
%TD*%
D17*
%TO.C,R28*%
X119317000Y-126492000D03*
X120967000Y-126492000D03*
%TD*%
D41*
%TO.C,R50*%
X165745235Y-105526765D03*
X164454765Y-106817235D03*
%TD*%
D21*
%TO.C,C14*%
X128791000Y-114300000D03*
X127241000Y-114300000D03*
%TD*%
D30*
%TO.C,D14*%
X130236000Y-128602500D03*
X128336000Y-128602500D03*
X129286000Y-130477500D03*
%TD*%
D40*
%TO.C,D17*%
X159258000Y-57353200D03*
X159258000Y-63550800D03*
%TD*%
D26*
%TO.C,C6*%
X130302000Y-87617000D03*
X130302000Y-89167000D03*
%TD*%
D24*
%TO.C,R64*%
X167957000Y-112014000D03*
X166307000Y-112014000D03*
%TD*%
D32*
%TO.C,D19*%
X157734000Y-115950000D03*
X157734000Y-112650000D03*
%TD*%
D26*
%TO.C,C7*%
X136398000Y-87617000D03*
X136398000Y-89167000D03*
%TD*%
D20*
%TO.C,C57*%
X167320000Y-135128000D03*
X165420000Y-135128000D03*
%TD*%
%TO.C,C58*%
X163256000Y-135128000D03*
X161356000Y-135128000D03*
%TD*%
%TO.C,C62*%
X163256000Y-67056000D03*
X161356000Y-67056000D03*
%TD*%
D21*
%TO.C,C61*%
X167145000Y-67056000D03*
X165595000Y-67056000D03*
%TD*%
D13*
%TO.C,M2*%
X131328000Y-72898000D03*
D14*
X133868000Y-72898000D03*
X136408000Y-72898000D03*
X138948000Y-72898000D03*
%TD*%
D34*
%TO.C,U15*%
X160494693Y-143630770D03*
X161392718Y-142732744D03*
X162290744Y-141834718D03*
X163188770Y-140936693D03*
X155481307Y-133229230D03*
X154583282Y-134127256D03*
X153685256Y-135025282D03*
X152787230Y-135923307D03*
%TD*%
D20*
%TO.C,C53*%
X163256000Y-102108000D03*
X161356000Y-102108000D03*
%TD*%
D42*
%TO.C,R48*%
X159408500Y-66040000D03*
X157583500Y-66040000D03*
%TD*%
%TO.C,R47*%
X159154500Y-98806000D03*
X157329500Y-98806000D03*
%TD*%
D34*
%TO.C,U13*%
X160494693Y-110610770D03*
X161392718Y-109712744D03*
X162290744Y-108814718D03*
X163188770Y-107916693D03*
X155481307Y-100209230D03*
X154583282Y-101107256D03*
X153685256Y-102005282D03*
X152787230Y-102903307D03*
%TD*%
D17*
%TO.C,R26*%
X123889000Y-126492000D03*
X125539000Y-126492000D03*
%TD*%
D25*
%TO.C,C33*%
X137655000Y-124968000D03*
X139205000Y-124968000D03*
%TD*%
D33*
%TO.C,R58*%
X165161500Y-121666000D03*
X168086500Y-121666000D03*
%TD*%
D43*
%TO.C,U5*%
X125060001Y-102930000D03*
X125060001Y-103429999D03*
X125060001Y-103930000D03*
X125060001Y-104429999D03*
X125060001Y-104930001D03*
X125060001Y-105430000D03*
X125060001Y-105929999D03*
X125060001Y-106430000D03*
X125060001Y-106930000D03*
X125060001Y-107430001D03*
X125060001Y-107930000D03*
X125060001Y-108429999D03*
X125060001Y-108930001D03*
X125060001Y-109430000D03*
X125060001Y-109930001D03*
X125060001Y-110430000D03*
D44*
X127060000Y-112429999D03*
X127559999Y-112429999D03*
X128060000Y-112429999D03*
X128559999Y-112429999D03*
X129060001Y-112429999D03*
X129560000Y-112429999D03*
X130059999Y-112429999D03*
X130560000Y-112429999D03*
X131060000Y-112429999D03*
X131560001Y-112429999D03*
X132060000Y-112429999D03*
X132559999Y-112429999D03*
X133060001Y-112429999D03*
X133560000Y-112429999D03*
X134060001Y-112429999D03*
X134560000Y-112429999D03*
D43*
X136559999Y-110430000D03*
X136559999Y-109930001D03*
X136559999Y-109430000D03*
X136559999Y-108930001D03*
X136559999Y-108429999D03*
X136559999Y-107930000D03*
X136559999Y-107430001D03*
X136559999Y-106930000D03*
X136559999Y-106430000D03*
X136559999Y-105929999D03*
X136559999Y-105430000D03*
X136559999Y-104930001D03*
X136559999Y-104429999D03*
X136559999Y-103930000D03*
X136559999Y-103429999D03*
X136559999Y-102930000D03*
D44*
X134560000Y-100930001D03*
X134060001Y-100930001D03*
X133560000Y-100930001D03*
X133060001Y-100930001D03*
X132559999Y-100930001D03*
X132060000Y-100930001D03*
X131560001Y-100930001D03*
X131060000Y-100930001D03*
X130560000Y-100930001D03*
X130059999Y-100930001D03*
X129560000Y-100930001D03*
X129060001Y-100930001D03*
X128559999Y-100930001D03*
X128060000Y-100930001D03*
X127559999Y-100930001D03*
X127060000Y-100930001D03*
%TD*%
D26*
%TO.C,C21*%
X138430000Y-102095000D03*
X138430000Y-103645000D03*
%TD*%
D21*
%TO.C,C70*%
X161557000Y-145796000D03*
X160007000Y-145796000D03*
%TD*%
D31*
%TO.C,U2*%
X124079000Y-85782150D03*
X125349000Y-85782150D03*
X126619000Y-85782150D03*
X127889000Y-85782150D03*
X127889000Y-80333850D03*
X126619000Y-80333850D03*
X125349000Y-80333850D03*
X124079000Y-80333850D03*
%TD*%
D29*
%TO.C,C2*%
X124206000Y-78499000D03*
X124206000Y-76949000D03*
%TD*%
D24*
%TO.C,R59*%
X167957000Y-110236000D03*
X166307000Y-110236000D03*
%TD*%
D21*
%TO.C,C65*%
X161557000Y-114808000D03*
X160007000Y-114808000D03*
%TD*%
D17*
%TO.C,R43*%
X128461000Y-126492000D03*
X130111000Y-126492000D03*
%TD*%
D20*
%TO.C,C64*%
X163256000Y-133096000D03*
X161356000Y-133096000D03*
%TD*%
D42*
%TO.C,R49*%
X159154500Y-131826000D03*
X157329500Y-131826000D03*
%TD*%
D20*
%TO.C,C55*%
X163256000Y-69088000D03*
X161356000Y-69088000D03*
%TD*%
D41*
%TO.C,R56*%
X165745235Y-138546765D03*
X164454765Y-139837235D03*
%TD*%
D29*
%TO.C,C20*%
X123190000Y-109487000D03*
X123190000Y-107937000D03*
%TD*%
D24*
%TO.C,R10*%
X123253000Y-100076000D03*
X121603000Y-100076000D03*
%TD*%
D25*
%TO.C,C34*%
X133083000Y-124968000D03*
X134633000Y-124968000D03*
%TD*%
D22*
%TO.C,R25*%
X124714000Y-145542000D03*
D23*
X124714000Y-132842000D03*
%TD*%
D25*
%TO.C,C29*%
X119367000Y-124968000D03*
X120917000Y-124968000D03*
%TD*%
D30*
%TO.C,D10*%
X116520000Y-128602500D03*
X114620000Y-128602500D03*
X115570000Y-130477500D03*
%TD*%
D21*
%TO.C,C48*%
X150635000Y-70866000D03*
X149085000Y-70866000D03*
%TD*%
D45*
%TO.C,U7*%
X110007825Y-79435425D03*
X110007825Y-76895425D03*
X110007825Y-87055425D03*
X110007825Y-92135425D03*
%TD*%
D33*
%TO.C,R52*%
X169225500Y-101854000D03*
X172150500Y-101854000D03*
%TD*%
D13*
%TO.C,M1*%
X119644000Y-72898000D03*
D14*
X122184000Y-72898000D03*
X124724000Y-72898000D03*
X127264000Y-72898000D03*
%TD*%
D29*
%TO.C,C3*%
X130302000Y-78499000D03*
X130302000Y-76949000D03*
%TD*%
D17*
%TO.C,R30*%
X114745000Y-126492000D03*
X116395000Y-126492000D03*
%TD*%
D25*
%TO.C,C35*%
X128511000Y-124968000D03*
X130061000Y-124968000D03*
%TD*%
D22*
%TO.C,R42*%
X129286000Y-145542000D03*
D23*
X129286000Y-132842000D03*
%TD*%
D17*
%TO.C,R39*%
X137605000Y-126492000D03*
X139255000Y-126492000D03*
%TD*%
D40*
%TO.C,D18*%
X159258000Y-123139200D03*
X159258000Y-129336800D03*
%TD*%
D36*
%TO.C,J2*%
X108585000Y-64325500D03*
X109855000Y-63055500D03*
X111125000Y-64325500D03*
X112395000Y-63055500D03*
X113665000Y-64325500D03*
X114935000Y-63055500D03*
X116205000Y-64325500D03*
X117475000Y-63055500D03*
D37*
X105156000Y-53657500D03*
X120904000Y-53657500D03*
D38*
X107315000Y-56705500D03*
X118745000Y-56705500D03*
%TD*%
D30*
%TO.C,D9*%
X121092000Y-128602500D03*
X119192000Y-128602500D03*
X120142000Y-130477500D03*
%TD*%
D21*
%TO.C,C47*%
X150635000Y-103886000D03*
X149085000Y-103886000D03*
%TD*%
D25*
%TO.C,C15*%
X126225000Y-99060000D03*
X127775000Y-99060000D03*
%TD*%
%TO.C,C12*%
X133591000Y-114300000D03*
X135141000Y-114300000D03*
%TD*%
D32*
%TO.C,D21*%
X157734000Y-148970000D03*
X157734000Y-145670000D03*
%TD*%
D21*
%TO.C,C25*%
X122949000Y-105918000D03*
X121399000Y-105918000D03*
%TD*%
D26*
%TO.C,C73*%
X164338000Y-143497000D03*
X164338000Y-145047000D03*
%TD*%
D30*
%TO.C,D13*%
X134808000Y-128602500D03*
X132908000Y-128602500D03*
X133858000Y-130477500D03*
%TD*%
D29*
%TO.C,C23*%
X112268000Y-90437000D03*
X112268000Y-88887000D03*
%TD*%
D31*
%TO.C,U4*%
X136271000Y-85782150D03*
X137541000Y-85782150D03*
X138811000Y-85782150D03*
X140081000Y-85782150D03*
X140081000Y-80333850D03*
X138811000Y-80333850D03*
X137541000Y-80333850D03*
X136271000Y-80333850D03*
%TD*%
D24*
%TO.C,R67*%
X167957000Y-145034000D03*
X166307000Y-145034000D03*
%TD*%
D33*
%TO.C,R57*%
X169225500Y-134874000D03*
X172150500Y-134874000D03*
%TD*%
D22*
%TO.C,R38*%
X138430000Y-145542000D03*
D23*
X138430000Y-132842000D03*
%TD*%
D24*
%TO.C,R66*%
X167957000Y-78994000D03*
X166307000Y-78994000D03*
%TD*%
D25*
%TO.C,C30*%
X114795000Y-124968000D03*
X116345000Y-124968000D03*
%TD*%
D46*
%TO.C,Q1*%
X152050000Y-109474000D03*
D47*
X171910000Y-114554000D03*
D48*
X171910000Y-109474000D03*
X171910000Y-106934000D03*
X171910000Y-104394000D03*
%TD*%
D46*
%TO.C,Q5*%
X152050000Y-142494000D03*
D47*
X171910000Y-147574000D03*
D48*
X171910000Y-142494000D03*
X171910000Y-139954000D03*
X171910000Y-137414000D03*
%TD*%
D46*
%TO.C,Q2*%
X152050000Y-92964000D03*
D47*
X171910000Y-98044000D03*
D48*
X171910000Y-92964000D03*
X171910000Y-90424000D03*
X171910000Y-87884000D03*
%TD*%
D46*
%TO.C,Q4*%
X152050000Y-59944000D03*
D47*
X171910000Y-65024000D03*
D48*
X171910000Y-59944000D03*
X171910000Y-57404000D03*
X171910000Y-54864000D03*
%TD*%
D46*
%TO.C,Q6*%
X152050000Y-125984000D03*
D47*
X171910000Y-131064000D03*
D48*
X171910000Y-125984000D03*
X171910000Y-123444000D03*
X171910000Y-120904000D03*
%TD*%
D46*
%TO.C,Q3*%
X152050000Y-76454000D03*
D47*
X171910000Y-81534000D03*
D48*
X171910000Y-76454000D03*
X171910000Y-73914000D03*
X171910000Y-71374000D03*
%TD*%
M02*
