%TF.GenerationSoftware,KiCad,Pcbnew,(6.0.9)*%
%TF.CreationDate,2023-06-09T19:15:00-04:00*%
%TF.ProjectId,HV servo drive v1,48562073-6572-4766-9f20-647269766520,rev?*%
%TF.SameCoordinates,Original*%
%TF.FileFunction,Paste,Bot*%
%TF.FilePolarity,Positive*%
%FSLAX46Y46*%
G04 Gerber Fmt 4.6, Leading zero omitted, Abs format (unit mm)*
G04 Created by KiCad (PCBNEW (6.0.9)) date 2023-06-09 19:15:00*
%MOMM*%
%LPD*%
G01*
G04 APERTURE LIST*
G04 Aperture macros list*
%AMRoundRect*
0 Rectangle with rounded corners*
0 $1 Rounding radius*
0 $2 $3 $4 $5 $6 $7 $8 $9 X,Y pos of 4 corners*
0 Add a 4 corners polygon primitive as box body*
4,1,4,$2,$3,$4,$5,$6,$7,$8,$9,$2,$3,0*
0 Add four circle primitives for the rounded corners*
1,1,$1+$1,$2,$3*
1,1,$1+$1,$4,$5*
1,1,$1+$1,$6,$7*
1,1,$1+$1,$8,$9*
0 Add four rect primitives between the rounded corners*
20,1,$1+$1,$2,$3,$4,$5,0*
20,1,$1+$1,$4,$5,$6,$7,0*
20,1,$1+$1,$6,$7,$8,$9,0*
20,1,$1+$1,$8,$9,$2,$3,0*%
G04 Aperture macros list end*
%ADD10RoundRect,0.250000X-0.250000X-0.475000X0.250000X-0.475000X0.250000X0.475000X-0.250000X0.475000X0*%
%ADD11RoundRect,0.200000X0.200000X0.275000X-0.200000X0.275000X-0.200000X-0.275000X0.200000X-0.275000X0*%
%ADD12RoundRect,0.225000X0.225000X0.250000X-0.225000X0.250000X-0.225000X-0.250000X0.225000X-0.250000X0*%
%ADD13RoundRect,0.225000X-0.250000X0.225000X-0.250000X-0.225000X0.250000X-0.225000X0.250000X0.225000X0*%
%ADD14RoundRect,0.200000X0.275000X-0.200000X0.275000X0.200000X-0.275000X0.200000X-0.275000X-0.200000X0*%
%ADD15RoundRect,0.250000X-0.850000X0.375000X-0.850000X-0.375000X0.850000X-0.375000X0.850000X0.375000X0*%
%ADD16RoundRect,0.225000X0.250000X-0.225000X0.250000X0.225000X-0.250000X0.225000X-0.250000X-0.225000X0*%
%ADD17R,0.508000X0.904700*%
%ADD18RoundRect,0.200000X-0.200000X-0.275000X0.200000X-0.275000X0.200000X0.275000X-0.200000X0.275000X0*%
%ADD19RoundRect,0.150000X-0.150000X0.587500X-0.150000X-0.587500X0.150000X-0.587500X0.150000X0.587500X0*%
%ADD20R,3.352800X5.207000*%
%ADD21RoundRect,0.250000X0.250000X0.475000X-0.250000X0.475000X-0.250000X-0.475000X0.250000X-0.475000X0*%
%ADD22O,0.299999X1.350000*%
%ADD23RoundRect,0.250000X0.850000X-0.375000X0.850000X0.375000X-0.850000X0.375000X-0.850000X-0.375000X0*%
G04 APERTURE END LIST*
D10*
%TO.C,C42*%
X117668000Y-96266000D03*
X119568000Y-96266000D03*
%TD*%
D11*
%TO.C,R9*%
X121475000Y-119126000D03*
X119825000Y-119126000D03*
%TD*%
%TO.C,R32*%
X129857000Y-121412000D03*
X128207000Y-121412000D03*
%TD*%
D12*
%TO.C,C22*%
X131839000Y-107188000D03*
X130289000Y-107188000D03*
%TD*%
D13*
%TO.C,C38*%
X105918000Y-124947749D03*
X105918000Y-123397749D03*
%TD*%
D11*
%TO.C,R8*%
X121475000Y-116586000D03*
X119825000Y-116586000D03*
%TD*%
%TO.C,R37*%
X132397000Y-97282000D03*
X130747000Y-97282000D03*
%TD*%
D13*
%TO.C,C37*%
X114554000Y-90665000D03*
X114554000Y-92215000D03*
%TD*%
D14*
%TO.C,R31*%
X129032000Y-130111000D03*
X129032000Y-128461000D03*
%TD*%
D15*
%TO.C,L2*%
X115316000Y-94683000D03*
X115316000Y-96833000D03*
%TD*%
D10*
%TO.C,C46*%
X117668000Y-101600000D03*
X119568000Y-101600000D03*
%TD*%
D11*
%TO.C,R7*%
X121475000Y-114046000D03*
X119825000Y-114046000D03*
%TD*%
D16*
%TO.C,C40*%
X120142000Y-92723000D03*
X120142000Y-91173000D03*
%TD*%
D10*
%TO.C,C45*%
X110932000Y-128998749D03*
X109032000Y-128998749D03*
%TD*%
D11*
%TO.C,R24*%
X136207000Y-97282000D03*
X134557000Y-97282000D03*
%TD*%
D17*
%TO.C,U8*%
X116397999Y-90136749D03*
X117348000Y-90136749D03*
X118298001Y-90136749D03*
X118298001Y-92743251D03*
X117348000Y-92743251D03*
X116397999Y-92743251D03*
%TD*%
D11*
%TO.C,R35*%
X109919000Y-120904000D03*
X111569000Y-120904000D03*
%TD*%
D17*
%TO.C,U9*%
X107761999Y-125476000D03*
X108712000Y-125476000D03*
X109662001Y-125476000D03*
X109662001Y-122869498D03*
X108712000Y-122869498D03*
X107761999Y-122869498D03*
%TD*%
D15*
%TO.C,L3*%
X106680000Y-129565749D03*
X106680000Y-127415749D03*
%TD*%
D11*
%TO.C,R34*%
X117157000Y-88138000D03*
X115507000Y-88138000D03*
%TD*%
D18*
%TO.C,R14*%
X117285000Y-108712000D03*
X118935000Y-108712000D03*
%TD*%
D12*
%TO.C,C27*%
X136157000Y-98806000D03*
X134607000Y-98806000D03*
%TD*%
%TO.C,C26*%
X127013000Y-124714000D03*
X125463000Y-124714000D03*
%TD*%
D19*
%TO.C,D11*%
X128082000Y-123522500D03*
X129982000Y-123522500D03*
X129032000Y-125397500D03*
%TD*%
D10*
%TO.C,C44*%
X117668000Y-98298000D03*
X119568000Y-98298000D03*
%TD*%
D12*
%TO.C,C39*%
X139967000Y-98806000D03*
X138417000Y-98806000D03*
%TD*%
D16*
%TO.C,C41*%
X111506000Y-123905749D03*
X111506000Y-125455749D03*
%TD*%
D18*
%TO.C,R13*%
X117285000Y-106680000D03*
X118935000Y-106680000D03*
%TD*%
D11*
%TO.C,R36*%
X106871000Y-120904000D03*
X108521000Y-120904000D03*
%TD*%
%TO.C,R33*%
X120205000Y-88138000D03*
X118555000Y-88138000D03*
%TD*%
D15*
%TO.C,L4*%
X115316000Y-99509000D03*
X115316000Y-101659000D03*
%TD*%
D14*
%TO.C,R16*%
X127000000Y-134175000D03*
X127000000Y-132525000D03*
%TD*%
D12*
%TO.C,C31*%
X129807000Y-119888000D03*
X128257000Y-119888000D03*
%TD*%
D11*
%TO.C,R15*%
X121475000Y-121666000D03*
X119825000Y-121666000D03*
%TD*%
D10*
%TO.C,C43*%
X110932000Y-131030749D03*
X109032000Y-131030749D03*
%TD*%
D11*
%TO.C,R46*%
X140017000Y-97282000D03*
X138367000Y-97282000D03*
%TD*%
D19*
%TO.C,D7*%
X125542000Y-128856500D03*
X127442000Y-128856500D03*
X126492000Y-130731500D03*
%TD*%
D12*
%TO.C,C32*%
X132347000Y-98806000D03*
X130797000Y-98806000D03*
%TD*%
D11*
%TO.C,R17*%
X127063000Y-126238000D03*
X125413000Y-126238000D03*
%TD*%
D20*
%TO.C,R63*%
X177863500Y-75184000D03*
X182308500Y-75184000D03*
%TD*%
D16*
%TO.C,C11*%
X110998000Y-73419000D03*
X110998000Y-71869000D03*
%TD*%
D17*
%TO.C,U6*%
X109154001Y-74201251D03*
X108204000Y-74201251D03*
X107253999Y-74201251D03*
X107253999Y-71594749D03*
X108204000Y-71594749D03*
X109154001Y-71594749D03*
%TD*%
D20*
%TO.C,R61*%
X177863500Y-111506000D03*
X182308500Y-111506000D03*
%TD*%
D21*
%TO.C,C19*%
X107376000Y-67818000D03*
X105476000Y-67818000D03*
%TD*%
D14*
%TO.C,R1*%
X117602000Y-72961000D03*
X117602000Y-71311000D03*
%TD*%
D22*
%TO.C,U1*%
X117078001Y-79186999D03*
X116578002Y-79186999D03*
X116078000Y-79186999D03*
X115578001Y-79186999D03*
X115077999Y-79186999D03*
X115077999Y-74736998D03*
X115578001Y-74736998D03*
X116078000Y-74736998D03*
X116578002Y-74736998D03*
X117078001Y-74736998D03*
%TD*%
D14*
%TO.C,R4*%
X114554000Y-72961000D03*
X114554000Y-71311000D03*
%TD*%
D20*
%TO.C,R65*%
X177863500Y-147320000D03*
X182308500Y-147320000D03*
%TD*%
D18*
%TO.C,R5*%
X105347000Y-77724000D03*
X106997000Y-77724000D03*
%TD*%
D21*
%TO.C,C16*%
X107376000Y-65786000D03*
X105476000Y-65786000D03*
%TD*%
D14*
%TO.C,R2*%
X116078000Y-72961000D03*
X116078000Y-71311000D03*
%TD*%
%TO.C,R3*%
X113030000Y-72961000D03*
X113030000Y-71311000D03*
%TD*%
D11*
%TO.C,R6*%
X106997000Y-75946000D03*
X105347000Y-75946000D03*
%TD*%
D13*
%TO.C,C1*%
X118618000Y-75425000D03*
X118618000Y-76975000D03*
%TD*%
D19*
%TO.C,D2*%
X112588000Y-67642500D03*
X114488000Y-67642500D03*
X113538000Y-69517500D03*
%TD*%
D23*
%TO.C,L1*%
X109474000Y-69909000D03*
X109474000Y-67759000D03*
%TD*%
D13*
%TO.C,C13*%
X105410000Y-71615000D03*
X105410000Y-73165000D03*
%TD*%
D19*
%TO.C,D1*%
X116144000Y-67642500D03*
X118044000Y-67642500D03*
X117094000Y-69517500D03*
%TD*%
M02*
